<?xml version='1.0' encoding='utf-8'?>
<mlt LC_NUMERIC="C" producer="main_bin" version="6.26.1" root="/home/duangsuse/Documents/演员/vis">
 <profile frame_rate_num="30" sample_aspect_num="1" display_aspect_den="9" colorspace="709" progressive="1" description="HD 720p 30 fps" display_aspect_num="16" frame_rate_den="1" width="1280" height="720" sample_aspect_den="1"/>
 <producer id="producer0" in="00:00:00.000" out="00:00:06.333">
  <property name="length">191</property>
  <property name="eof">pause</property>
  <property name="resource">才能猜测_不弱智.mp4</property>
  <property name="audio_index">1</property>
  <property name="video_index">0</property>
  <property name="mute_on_pause">0</property>
  <property name="mlt_service">avformat-novalidate</property>
  <property name="seekable">1</property>
  <property name="aspect_ratio">1</property>
  <property name="kdenlive:clipname"/>
  <property name="kdenlive:folderid">-1</property>
  <property name="kdenlive:id">2</property>
  <property name="kdenlive:file_size">10452662</property>
  <property name="kdenlive:file_hash">268f97557bf3ae81b6d5acbcefd760cc</property>
  <property name="kdenlive:audio_max">32</property>
  <property name="global_feed">1</property>
  <property name="meta.media.nb_streams">2</property>
  <property name="meta.media.0.stream.type">video</property>
  <property name="meta.media.0.stream.frame_rate">30.0994</property>
  <property name="meta.media.0.stream.sample_aspect_ratio">1</property>
  <property name="meta.media.0.codec.width">1280</property>
  <property name="meta.media.0.codec.height">720</property>
  <property name="meta.media.0.codec.rotate">0</property>
  <property name="meta.media.0.codec.frame_rate">30</property>
  <property name="meta.media.0.codec.pix_fmt">yuv420p</property>
  <property name="meta.media.0.codec.sample_aspect_ratio">0</property>
  <property name="meta.media.0.codec.colorspace">709</property>
  <property name="meta.media.0.codec.color_trc">1</property>
  <property name="meta.media.0.codec.name">h264</property>
  <property name="meta.media.0.codec.long_name">H.264 / AVC / MPEG-4 AVC / MPEG-4 part 10</property>
  <property name="meta.media.0.codec.bit_rate">12071951</property>
  <property name="meta.attr.0.stream.creation_time.markup">2021-08-05T03:35:46.000000Z</property>
  <property name="meta.attr.0.stream.language.markup">eng</property>
  <property name="meta.attr.0.stream.handler_name.markup">VideoHandle</property>
  <property name="meta.attr.0.stream.vendor_id.markup">[0][0][0][0]</property>
  <property name="meta.media.1.stream.type">audio</property>
  <property name="meta.media.1.codec.sample_fmt">fltp</property>
  <property name="meta.media.1.codec.sample_rate">48000</property>
  <property name="meta.media.1.codec.channels">2</property>
  <property name="meta.media.1.codec.name">aac</property>
  <property name="meta.media.1.codec.long_name">AAC (Advanced Audio Coding)</property>
  <property name="meta.media.1.codec.bit_rate">192280</property>
  <property name="meta.attr.1.stream.creation_time.markup">2021-08-05T03:35:46.000000Z</property>
  <property name="meta.attr.1.stream.language.markup">eng</property>
  <property name="meta.attr.1.stream.handler_name.markup">SoundHandle</property>
  <property name="meta.attr.1.stream.vendor_id.markup">[0][0][0][0]</property>
  <property name="meta.attr.major_brand.markup">mp42</property>
  <property name="meta.attr.minor_version.markup">0</property>
  <property name="meta.attr.compatible_brands.markup">isommp42</property>
  <property name="meta.attr.creation_time.markup">2021-08-05T03:35:46.000000Z</property>
  <property name="meta.attr.com.android.version.markup">8.0.0</property>
  <property name="meta.media.sample_aspect_num">1</property>
  <property name="meta.media.sample_aspect_den">1</property>
  <property name="meta.media.frame_rate_num">8550000</property>
  <property name="meta.media.frame_rate_den">284059</property>
  <property name="meta.media.colorspace">709</property>
  <property name="meta.media.color_trc">1</property>
  <property name="meta.media.width">1280</property>
  <property name="meta.media.height">720</property>
  <property name="meta.media.color_range">mpeg</property>
  <property name="meta.media.variable_frame_rate">1</property>
  <property name="meta.media.top_field_first">0</property>
  <property name="meta.media.progressive">1</property>
 </producer>
 <producer id="producer1" in="00:00:00.000" out="00:00:04.867">
  <property name="length">147</property>
  <property name="eof">pause</property>
  <property name="resource">痴迷不舍.mp4</property>
  <property name="audio_index">1</property>
  <property name="video_index">0</property>
  <property name="mute_on_pause">0</property>
  <property name="mlt_service">avformat-novalidate</property>
  <property name="seekable">1</property>
  <property name="aspect_ratio">1</property>
  <property name="kdenlive:clipname"/>
  <property name="kdenlive:folderid">-1</property>
  <property name="kdenlive:id">3</property>
  <property name="kdenlive:file_size">6396603</property>
  <property name="kdenlive:file_hash">f109c7e51330cd8b602b47dfd7d09796</property>
  <property name="kdenlive:audio_max">8</property>
  <property name="global_feed">1</property>
  <property name="meta.media.nb_streams">2</property>
  <property name="meta.media.0.stream.type">video</property>
  <property name="meta.media.0.stream.frame_rate">30.0916</property>
  <property name="meta.media.0.stream.sample_aspect_ratio">1</property>
  <property name="meta.media.0.codec.width">1280</property>
  <property name="meta.media.0.codec.height">720</property>
  <property name="meta.media.0.codec.rotate">0</property>
  <property name="meta.media.0.codec.frame_rate">30</property>
  <property name="meta.media.0.codec.pix_fmt">yuv420p</property>
  <property name="meta.media.0.codec.sample_aspect_ratio">0</property>
  <property name="meta.media.0.codec.colorspace">709</property>
  <property name="meta.media.0.codec.color_trc">1</property>
  <property name="meta.media.0.codec.name">h264</property>
  <property name="meta.media.0.codec.long_name">H.264 / AVC / MPEG-4 AVC / MPEG-4 part 10</property>
  <property name="meta.media.0.codec.bit_rate">9116120</property>
  <property name="meta.attr.0.stream.creation_time.markup">2021-08-05T04:42:26.000000Z</property>
  <property name="meta.attr.0.stream.language.markup">eng</property>
  <property name="meta.attr.0.stream.handler_name.markup">VideoHandle</property>
  <property name="meta.attr.0.stream.vendor_id.markup">[0][0][0][0]</property>
  <property name="meta.media.1.stream.type">audio</property>
  <property name="meta.media.1.codec.sample_fmt">fltp</property>
  <property name="meta.media.1.codec.sample_rate">48000</property>
  <property name="meta.media.1.codec.channels">2</property>
  <property name="meta.media.1.codec.name">aac</property>
  <property name="meta.media.1.codec.long_name">AAC (Advanced Audio Coding)</property>
  <property name="meta.media.1.codec.bit_rate">192338</property>
  <property name="meta.attr.1.stream.creation_time.markup">2021-08-05T04:42:26.000000Z</property>
  <property name="meta.attr.1.stream.language.markup">eng</property>
  <property name="meta.attr.1.stream.handler_name.markup">SoundHandle</property>
  <property name="meta.attr.1.stream.vendor_id.markup">[0][0][0][0]</property>
  <property name="meta.attr.major_brand.markup">mp42</property>
  <property name="meta.attr.minor_version.markup">0</property>
  <property name="meta.attr.compatible_brands.markup">isommp42</property>
  <property name="meta.attr.creation_time.markup">2021-08-05T04:42:26.000000Z</property>
  <property name="meta.attr.com.android.version.markup">8.0.0</property>
  <property name="meta.media.sample_aspect_num">1</property>
  <property name="meta.media.sample_aspect_den">1</property>
  <property name="meta.media.frame_rate_num">3262500</property>
  <property name="meta.media.frame_rate_den">108419</property>
  <property name="meta.media.colorspace">709</property>
  <property name="meta.media.color_trc">1</property>
  <property name="meta.media.width">1280</property>
  <property name="meta.media.height">720</property>
  <property name="meta.media.color_range">mpeg</property>
  <property name="meta.media.variable_frame_rate">1</property>
  <property name="meta.media.top_field_first">0</property>
  <property name="meta.media.progressive">1</property>
 </producer>
 <producer id="producer2" in="00:00:00.000" out="00:00:01.700">
  <property name="length">52</property>
  <property name="eof">pause</property>
  <property name="resource">否还值得.mp4</property>
  <property name="audio_index">1</property>
  <property name="video_index">0</property>
  <property name="mute_on_pause">0</property>
  <property name="mlt_service">avformat-novalidate</property>
  <property name="seekable">1</property>
  <property name="aspect_ratio">1</property>
  <property name="kdenlive:clipname"/>
  <property name="kdenlive:folderid">-1</property>
  <property name="kdenlive:id">4</property>
  <property name="kdenlive:file_size">3382275</property>
  <property name="kdenlive:file_hash">dad16399abda118e60a5743fb078a4de</property>
  <property name="kdenlive:audio_max">29</property>
  <property name="global_feed">1</property>
  <property name="meta.media.nb_streams">2</property>
  <property name="meta.media.0.stream.type">video</property>
  <property name="meta.media.0.stream.frame_rate">30.0127</property>
  <property name="meta.media.0.stream.sample_aspect_ratio">1</property>
  <property name="meta.media.0.codec.width">1280</property>
  <property name="meta.media.0.codec.height">720</property>
  <property name="meta.media.0.codec.rotate">0</property>
  <property name="meta.media.0.codec.frame_rate">30</property>
  <property name="meta.media.0.codec.pix_fmt">yuv420p</property>
  <property name="meta.media.0.codec.sample_aspect_ratio">0</property>
  <property name="meta.media.0.codec.colorspace">709</property>
  <property name="meta.media.0.codec.color_trc">1</property>
  <property name="meta.media.0.codec.name">h264</property>
  <property name="meta.media.0.codec.long_name">H.264 / AVC / MPEG-4 AVC / MPEG-4 part 10</property>
  <property name="meta.media.0.codec.bit_rate">11763469</property>
  <property name="meta.attr.0.stream.creation_time.markup">2021-08-05T03:35:13.000000Z</property>
  <property name="meta.attr.0.stream.language.markup">eng</property>
  <property name="meta.attr.0.stream.handler_name.markup">VideoHandle</property>
  <property name="meta.attr.0.stream.vendor_id.markup">[0][0][0][0]</property>
  <property name="meta.media.1.stream.type">audio</property>
  <property name="meta.media.1.codec.sample_fmt">fltp</property>
  <property name="meta.media.1.codec.sample_rate">48000</property>
  <property name="meta.media.1.codec.channels">2</property>
  <property name="meta.media.1.codec.name">aac</property>
  <property name="meta.media.1.codec.long_name">AAC (Advanced Audio Coding)</property>
  <property name="meta.media.1.codec.bit_rate">193092</property>
  <property name="meta.attr.1.stream.creation_time.markup">2021-08-05T03:35:13.000000Z</property>
  <property name="meta.attr.1.stream.language.markup">eng</property>
  <property name="meta.attr.1.stream.handler_name.markup">SoundHandle</property>
  <property name="meta.attr.1.stream.vendor_id.markup">[0][0][0][0]</property>
  <property name="meta.attr.major_brand.markup">mp42</property>
  <property name="meta.attr.minor_version.markup">0</property>
  <property name="meta.attr.compatible_brands.markup">isommp42</property>
  <property name="meta.attr.creation_time.markup">2021-08-05T03:35:13.000000Z</property>
  <property name="meta.attr.com.android.version.markup">8.0.0</property>
  <property name="meta.media.sample_aspect_num">1</property>
  <property name="meta.media.sample_aspect_den">1</property>
  <property name="meta.media.frame_rate_num">260000</property>
  <property name="meta.media.frame_rate_den">8663</property>
  <property name="meta.media.colorspace">709</property>
  <property name="meta.media.color_trc">1</property>
  <property name="meta.media.width">1280</property>
  <property name="meta.media.height">720</property>
  <property name="meta.media.color_range">mpeg</property>
  <property name="meta.media.variable_frame_rate">1</property>
  <property name="meta.media.top_field_first">0</property>
  <property name="meta.media.progressive">1</property>
 </producer>
 <producer id="producer3" in="00:00:00.000" out="00:00:02.267">
  <property name="length">69</property>
  <property name="eof">pause</property>
  <property name="resource">更快实现.mp4</property>
  <property name="audio_index">1</property>
  <property name="video_index">0</property>
  <property name="mute_on_pause">0</property>
  <property name="mlt_service">avformat-novalidate</property>
  <property name="seekable">1</property>
  <property name="aspect_ratio">1</property>
  <property name="kdenlive:clipname"/>
  <property name="kdenlive:folderid">-1</property>
  <property name="kdenlive:id">5</property>
  <property name="kdenlive:file_size">2394932</property>
  <property name="kdenlive:file_hash">1b7dbf22753abcde5d633b87390fcd47</property>
  <property name="kdenlive:audio_max">24</property>
  <property name="global_feed">1</property>
  <property name="meta.media.nb_streams">2</property>
  <property name="meta.media.0.stream.type">video</property>
  <property name="meta.media.0.stream.frame_rate">30.0081</property>
  <property name="meta.media.0.stream.sample_aspect_ratio">1</property>
  <property name="meta.media.0.codec.width">1280</property>
  <property name="meta.media.0.codec.height">720</property>
  <property name="meta.media.0.codec.rotate">0</property>
  <property name="meta.media.0.codec.frame_rate">30</property>
  <property name="meta.media.0.codec.pix_fmt">yuv420p</property>
  <property name="meta.media.0.codec.sample_aspect_ratio">0</property>
  <property name="meta.media.0.codec.colorspace">709</property>
  <property name="meta.media.0.codec.color_trc">1</property>
  <property name="meta.media.0.codec.name">h264</property>
  <property name="meta.media.0.codec.long_name">H.264 / AVC / MPEG-4 AVC / MPEG-4 part 10</property>
  <property name="meta.media.0.codec.bit_rate">5435218</property>
  <property name="meta.attr.0.stream.creation_time.markup">2021-08-05T03:42:13.000000Z</property>
  <property name="meta.attr.0.stream.language.markup">eng</property>
  <property name="meta.attr.0.stream.handler_name.markup">VideoHandle</property>
  <property name="meta.attr.0.stream.vendor_id.markup">[0][0][0][0]</property>
  <property name="meta.media.1.stream.type">audio</property>
  <property name="meta.media.1.codec.sample_fmt">fltp</property>
  <property name="meta.media.1.codec.sample_rate">48000</property>
  <property name="meta.media.1.codec.channels">2</property>
  <property name="meta.media.1.codec.name">aac</property>
  <property name="meta.media.1.codec.long_name">AAC (Advanced Audio Coding)</property>
  <property name="meta.media.1.codec.bit_rate">192944</property>
  <property name="meta.attr.1.stream.creation_time.markup">2021-08-05T03:42:13.000000Z</property>
  <property name="meta.attr.1.stream.language.markup">eng</property>
  <property name="meta.attr.1.stream.handler_name.markup">SoundHandle</property>
  <property name="meta.attr.1.stream.vendor_id.markup">[0][0][0][0]</property>
  <property name="meta.attr.major_brand.markup">mp42</property>
  <property name="meta.attr.minor_version.markup">0</property>
  <property name="meta.attr.compatible_brands.markup">isommp42</property>
  <property name="meta.attr.creation_time.markup">2021-08-05T03:42:13.000000Z</property>
  <property name="meta.attr.com.android.version.markup">8.0.0</property>
  <property name="meta.media.sample_aspect_num">1</property>
  <property name="meta.media.sample_aspect_den">1</property>
  <property name="meta.media.frame_rate_num">1224000</property>
  <property name="meta.media.frame_rate_den">40789</property>
  <property name="meta.media.colorspace">709</property>
  <property name="meta.media.color_trc">1</property>
  <property name="meta.media.width">1280</property>
  <property name="meta.media.height">720</property>
  <property name="meta.media.color_range">mpeg</property>
  <property name="meta.media.variable_frame_rate">1</property>
  <property name="meta.media.top_field_first">0</property>
  <property name="meta.media.progressive">1</property>
 </producer>
 <producer id="producer4" in="00:00:00.000" out="00:00:07.467">
  <property name="length">225</property>
  <property name="eof">pause</property>
  <property name="resource">没意见_写不短.mp4</property>
  <property name="audio_index">1</property>
  <property name="video_index">0</property>
  <property name="mute_on_pause">0</property>
  <property name="mlt_service">avformat-novalidate</property>
  <property name="seekable">1</property>
  <property name="aspect_ratio">1</property>
  <property name="kdenlive:clipname"/>
  <property name="kdenlive:folderid">-1</property>
  <property name="kdenlive:id">6</property>
  <property name="kdenlive:file_size">6188531</property>
  <property name="kdenlive:file_hash">6af6ac7de4f46669b30f8a8d33a3b38d</property>
  <property name="kdenlive:audio_max">28</property>
  <property name="global_feed">1</property>
  <property name="meta.media.nb_streams">2</property>
  <property name="meta.media.0.stream.type">video</property>
  <property name="meta.media.0.stream.frame_rate">30.1603</property>
  <property name="meta.media.0.stream.sample_aspect_ratio">1</property>
  <property name="meta.media.0.codec.width">1280</property>
  <property name="meta.media.0.codec.height">720</property>
  <property name="meta.media.0.codec.rotate">0</property>
  <property name="meta.media.0.codec.frame_rate">30</property>
  <property name="meta.media.0.codec.pix_fmt">yuv420p</property>
  <property name="meta.media.0.codec.sample_aspect_ratio">0</property>
  <property name="meta.media.0.codec.colorspace">709</property>
  <property name="meta.media.0.codec.color_trc">1</property>
  <property name="meta.media.0.codec.name">h264</property>
  <property name="meta.media.0.codec.long_name">H.264 / AVC / MPEG-4 AVC / MPEG-4 part 10</property>
  <property name="meta.media.0.codec.bit_rate">5609080</property>
  <property name="meta.attr.0.stream.creation_time.markup">2021-08-05T03:47:51.000000Z</property>
  <property name="meta.attr.0.stream.language.markup">eng</property>
  <property name="meta.attr.0.stream.handler_name.markup">VideoHandle</property>
  <property name="meta.attr.0.stream.vendor_id.markup">[0][0][0][0]</property>
  <property name="meta.media.1.stream.type">audio</property>
  <property name="meta.media.1.codec.sample_fmt">fltp</property>
  <property name="meta.media.1.codec.sample_rate">48000</property>
  <property name="meta.media.1.codec.channels">2</property>
  <property name="meta.media.1.codec.name">aac</property>
  <property name="meta.media.1.codec.long_name">AAC (Advanced Audio Coding)</property>
  <property name="meta.media.1.codec.bit_rate">192280</property>
  <property name="meta.attr.1.stream.creation_time.markup">2021-08-05T03:47:51.000000Z</property>
  <property name="meta.attr.1.stream.language.markup">eng</property>
  <property name="meta.attr.1.stream.handler_name.markup">SoundHandle</property>
  <property name="meta.attr.1.stream.vendor_id.markup">[0][0][0][0]</property>
  <property name="meta.attr.major_brand.markup">mp42</property>
  <property name="meta.attr.minor_version.markup">0</property>
  <property name="meta.attr.compatible_brands.markup">isommp42</property>
  <property name="meta.attr.creation_time.markup">2021-08-05T03:47:51.000000Z</property>
  <property name="meta.attr.com.android.version.markup">8.0.0</property>
  <property name="meta.media.sample_aspect_num">1</property>
  <property name="meta.media.sample_aspect_den">1</property>
  <property name="meta.media.frame_rate_num">5040000</property>
  <property name="meta.media.frame_rate_den">167107</property>
  <property name="meta.media.colorspace">709</property>
  <property name="meta.media.color_trc">1</property>
  <property name="meta.media.width">1280</property>
  <property name="meta.media.height">720</property>
  <property name="meta.media.color_range">mpeg</property>
  <property name="meta.media.top_field_first">0</property>
  <property name="meta.media.progressive">1</property>
 </producer>
 <producer id="producer5" in="00:00:00.000" out="00:00:04.500">
  <property name="length">136</property>
  <property name="eof">pause</property>
  <property name="resource">其实台下.mp4</property>
  <property name="audio_index">1</property>
  <property name="video_index">0</property>
  <property name="mute_on_pause">0</property>
  <property name="mlt_service">avformat-novalidate</property>
  <property name="seekable">1</property>
  <property name="aspect_ratio">1</property>
  <property name="kdenlive:clipname"/>
  <property name="kdenlive:folderid">-1</property>
  <property name="kdenlive:id">7</property>
  <property name="kdenlive:file_size">6912672</property>
  <property name="kdenlive:file_hash">ec8e78ca88da26af37361392ae8dc1f2</property>
  <property name="kdenlive:audio_max">20</property>
  <property name="global_feed">1</property>
  <property name="meta.media.nb_streams">2</property>
  <property name="meta.media.0.stream.type">video</property>
  <property name="meta.media.0.stream.frame_rate">30.173</property>
  <property name="meta.media.0.stream.sample_aspect_ratio">1</property>
  <property name="meta.media.0.codec.width">1280</property>
  <property name="meta.media.0.codec.height">720</property>
  <property name="meta.media.0.codec.rotate">0</property>
  <property name="meta.media.0.codec.frame_rate">30</property>
  <property name="meta.media.0.codec.pix_fmt">yuv420p</property>
  <property name="meta.media.0.codec.sample_aspect_ratio">0</property>
  <property name="meta.media.0.codec.colorspace">709</property>
  <property name="meta.media.0.codec.color_trc">1</property>
  <property name="meta.media.0.codec.name">h264</property>
  <property name="meta.media.0.codec.long_name">H.264 / AVC / MPEG-4 AVC / MPEG-4 part 10</property>
  <property name="meta.media.0.codec.bit_rate">10730070</property>
  <property name="meta.attr.0.stream.creation_time.markup">2021-08-05T04:42:03.000000Z</property>
  <property name="meta.attr.0.stream.language.markup">eng</property>
  <property name="meta.attr.0.stream.handler_name.markup">VideoHandle</property>
  <property name="meta.attr.0.stream.vendor_id.markup">[0][0][0][0]</property>
  <property name="meta.media.1.stream.type">audio</property>
  <property name="meta.media.1.codec.sample_fmt">fltp</property>
  <property name="meta.media.1.codec.sample_rate">48000</property>
  <property name="meta.media.1.codec.channels">2</property>
  <property name="meta.media.1.codec.name">aac</property>
  <property name="meta.media.1.codec.long_name">AAC (Advanced Audio Coding)</property>
  <property name="meta.media.1.codec.bit_rate">192348</property>
  <property name="meta.attr.1.stream.creation_time.markup">2021-08-05T04:42:03.000000Z</property>
  <property name="meta.attr.1.stream.language.markup">eng</property>
  <property name="meta.attr.1.stream.handler_name.markup">SoundHandle</property>
  <property name="meta.attr.1.stream.vendor_id.markup">[0][0][0][0]</property>
  <property name="meta.attr.major_brand.markup">mp42</property>
  <property name="meta.attr.minor_version.markup">0</property>
  <property name="meta.attr.compatible_brands.markup">isommp42</property>
  <property name="meta.attr.creation_time.markup">2021-08-05T04:42:03.000000Z</property>
  <property name="meta.attr.com.android.version.markup">8.0.0</property>
  <property name="meta.media.sample_aspect_num">1</property>
  <property name="meta.media.sample_aspect_den">1</property>
  <property name="meta.media.frame_rate_num">225000</property>
  <property name="meta.media.frame_rate_den">7457</property>
  <property name="meta.media.colorspace">709</property>
  <property name="meta.media.color_trc">1</property>
  <property name="meta.media.width">1280</property>
  <property name="meta.media.height">720</property>
  <property name="meta.media.color_range">mpeg</property>
  <property name="meta.media.top_field_first">0</property>
  <property name="meta.media.progressive">1</property>
 </producer>
 <producer id="producer6" in="00:00:00.000" out="00:00:09.233">
  <property name="length">278</property>
  <property name="eof">pause</property>
  <property name="resource">全力在调试.mp4</property>
  <property name="audio_index">1</property>
  <property name="video_index">0</property>
  <property name="mute_on_pause">0</property>
  <property name="mlt_service">avformat-novalidate</property>
  <property name="seekable">1</property>
  <property name="aspect_ratio">1</property>
  <property name="kdenlive:clipname"/>
  <property name="kdenlive:folderid">-1</property>
  <property name="kdenlive:id">8</property>
  <property name="kdenlive:file_size">14857823</property>
  <property name="kdenlive:file_hash">6f2a462fe808acddc17da89f5865ed60</property>
  <property name="kdenlive:audio_max">29</property>
  <property name="global_feed">1</property>
  <property name="meta.media.nb_streams">2</property>
  <property name="meta.media.0.stream.type">video</property>
  <property name="meta.media.0.stream.frame_rate">30.1767</property>
  <property name="meta.media.0.stream.sample_aspect_ratio">1</property>
  <property name="meta.media.0.codec.width">1280</property>
  <property name="meta.media.0.codec.height">720</property>
  <property name="meta.media.0.codec.rotate">0</property>
  <property name="meta.media.0.codec.frame_rate">30</property>
  <property name="meta.media.0.codec.pix_fmt">yuv420p</property>
  <property name="meta.media.0.codec.sample_aspect_ratio">0</property>
  <property name="meta.media.0.codec.colorspace">709</property>
  <property name="meta.media.0.codec.color_trc">1</property>
  <property name="meta.media.0.codec.name">h264</property>
  <property name="meta.media.0.codec.long_name">H.264 / AVC / MPEG-4 AVC / MPEG-4 part 10</property>
  <property name="meta.media.0.codec.bit_rate">12019895</property>
  <property name="meta.attr.0.stream.creation_time.markup">2021-08-05T03:44:13.000000Z</property>
  <property name="meta.attr.0.stream.language.markup">eng</property>
  <property name="meta.attr.0.stream.handler_name.markup">VideoHandle</property>
  <property name="meta.attr.0.stream.vendor_id.markup">[0][0][0][0]</property>
  <property name="meta.media.1.stream.type">audio</property>
  <property name="meta.media.1.codec.sample_fmt">fltp</property>
  <property name="meta.media.1.codec.sample_rate">48000</property>
  <property name="meta.media.1.codec.channels">2</property>
  <property name="meta.media.1.codec.name">aac</property>
  <property name="meta.media.1.codec.long_name">AAC (Advanced Audio Coding)</property>
  <property name="meta.media.1.codec.bit_rate">192212</property>
  <property name="meta.attr.1.stream.creation_time.markup">2021-08-05T03:44:13.000000Z</property>
  <property name="meta.attr.1.stream.language.markup">eng</property>
  <property name="meta.attr.1.stream.handler_name.markup">SoundHandle</property>
  <property name="meta.attr.1.stream.vendor_id.markup">[0][0][0][0]</property>
  <property name="meta.attr.major_brand.markup">mp42</property>
  <property name="meta.attr.minor_version.markup">0</property>
  <property name="meta.attr.compatible_brands.markup">isommp42</property>
  <property name="meta.attr.creation_time.markup">2021-08-05T03:44:13.000000Z</property>
  <property name="meta.attr.com.android.version.markup">8.0.0</property>
  <property name="meta.media.sample_aspect_num">1</property>
  <property name="meta.media.sample_aspect_den">1</property>
  <property name="meta.media.frame_rate_num">695000</property>
  <property name="meta.media.frame_rate_den">23031</property>
  <property name="meta.media.colorspace">709</property>
  <property name="meta.media.color_trc">1</property>
  <property name="meta.media.width">1280</property>
  <property name="meta.media.height">720</property>
  <property name="meta.media.color_range">mpeg</property>
  <property name="meta.media.top_field_first">0</property>
  <property name="meta.media.progressive">1</property>
 </producer>
 <producer id="producer7" in="00:00:00.000" out="00:00:04.367">
  <property name="length">132</property>
  <property name="eof">pause</property>
  <property name="resource">冗余的.mp4</property>
  <property name="audio_index">1</property>
  <property name="video_index">0</property>
  <property name="mute_on_pause">0</property>
  <property name="mlt_service">avformat-novalidate</property>
  <property name="seekable">1</property>
  <property name="aspect_ratio">1</property>
  <property name="kdenlive:clipname"/>
  <property name="kdenlive:folderid">-1</property>
  <property name="kdenlive:id">9</property>
  <property name="kdenlive:file_size">4056510</property>
  <property name="kdenlive:file_hash">adb1703031ec5ee877e9064b61581fb2</property>
  <property name="kdenlive:audio_max">30</property>
  <property name="global_feed">1</property>
  <property name="meta.media.nb_streams">2</property>
  <property name="meta.media.0.stream.type">video</property>
  <property name="meta.media.0.stream.frame_rate">30.1186</property>
  <property name="meta.media.0.stream.sample_aspect_ratio">1</property>
  <property name="meta.media.0.codec.width">1280</property>
  <property name="meta.media.0.codec.height">720</property>
  <property name="meta.media.0.codec.rotate">0</property>
  <property name="meta.media.0.codec.frame_rate">30</property>
  <property name="meta.media.0.codec.pix_fmt">yuv420p</property>
  <property name="meta.media.0.codec.sample_aspect_ratio">0</property>
  <property name="meta.media.0.codec.colorspace">709</property>
  <property name="meta.media.0.codec.color_trc">1</property>
  <property name="meta.media.0.codec.name">h264</property>
  <property name="meta.media.0.codec.long_name">H.264 / AVC / MPEG-4 AVC / MPEG-4 part 10</property>
  <property name="meta.media.0.codec.bit_rate">5794434</property>
  <property name="meta.attr.0.stream.creation_time.markup">2021-08-05T03:45:10.000000Z</property>
  <property name="meta.attr.0.stream.language.markup">eng</property>
  <property name="meta.attr.0.stream.handler_name.markup">VideoHandle</property>
  <property name="meta.attr.0.stream.vendor_id.markup">[0][0][0][0]</property>
  <property name="meta.media.1.stream.type">audio</property>
  <property name="meta.media.1.codec.sample_fmt">fltp</property>
  <property name="meta.media.1.codec.sample_rate">48000</property>
  <property name="meta.media.1.codec.channels">2</property>
  <property name="meta.media.1.codec.name">aac</property>
  <property name="meta.media.1.codec.long_name">AAC (Advanced Audio Coding)</property>
  <property name="meta.media.1.codec.bit_rate">192424</property>
  <property name="meta.attr.1.stream.creation_time.markup">2021-08-05T03:45:10.000000Z</property>
  <property name="meta.attr.1.stream.language.markup">eng</property>
  <property name="meta.attr.1.stream.handler_name.markup">SoundHandle</property>
  <property name="meta.attr.1.stream.vendor_id.markup">[0][0][0][0]</property>
  <property name="meta.attr.major_brand.markup">mp42</property>
  <property name="meta.attr.minor_version.markup">0</property>
  <property name="meta.attr.compatible_brands.markup">isommp42</property>
  <property name="meta.attr.creation_time.markup">2021-08-05T03:45:10.000000Z</property>
  <property name="meta.attr.com.android.version.markup">8.0.0</property>
  <property name="meta.media.sample_aspect_num">1</property>
  <property name="meta.media.sample_aspect_den">1</property>
  <property name="meta.media.frame_rate_num">11790000</property>
  <property name="meta.media.frame_rate_den">391453</property>
  <property name="meta.media.colorspace">709</property>
  <property name="meta.media.color_trc">1</property>
  <property name="meta.media.width">1280</property>
  <property name="meta.media.height">720</property>
  <property name="meta.media.color_range">mpeg</property>
  <property name="meta.media.variable_frame_rate">1</property>
  <property name="meta.media.top_field_first">0</property>
  <property name="meta.media.progressive">1</property>
 </producer>
 <producer id="producer8" in="00:00:00.000" out="00:00:09.033">
  <property name="length">272</property>
  <property name="eof">pause</property>
  <property name="resource">上课.mp4</property>
  <property name="audio_index">1</property>
  <property name="video_index">0</property>
  <property name="mute_on_pause">0</property>
  <property name="mlt_service">avformat-novalidate</property>
  <property name="seekable">1</property>
  <property name="aspect_ratio">1</property>
  <property name="kdenlive:clipname"/>
  <property name="kdenlive:folderid">-1</property>
  <property name="kdenlive:id">10</property>
  <property name="kdenlive:file_size">8273942</property>
  <property name="kdenlive:file_hash">0666faf15036a86c71fb2c9af7404ffa</property>
  <property name="kdenlive:audio_max">21</property>
  <property name="global_feed">1</property>
  <property name="meta.media.nb_streams">2</property>
  <property name="meta.media.0.stream.type">video</property>
  <property name="meta.media.0.stream.frame_rate">30.2135</property>
  <property name="meta.media.0.stream.sample_aspect_ratio">1</property>
  <property name="meta.media.0.codec.width">1280</property>
  <property name="meta.media.0.codec.height">720</property>
  <property name="meta.media.0.codec.rotate">0</property>
  <property name="meta.media.0.codec.frame_rate">30</property>
  <property name="meta.media.0.codec.pix_fmt">yuv420p</property>
  <property name="meta.media.0.codec.sample_aspect_ratio">0</property>
  <property name="meta.media.0.codec.colorspace">709</property>
  <property name="meta.media.0.codec.color_trc">1</property>
  <property name="meta.media.0.codec.name">h264</property>
  <property name="meta.media.0.codec.long_name">H.264 / AVC / MPEG-4 AVC / MPEG-4 part 10</property>
  <property name="meta.media.0.codec.bit_rate">6438858</property>
  <property name="meta.attr.0.stream.creation_time.markup">2021-08-05T03:41:15.000000Z</property>
  <property name="meta.attr.0.stream.language.markup">eng</property>
  <property name="meta.attr.0.stream.handler_name.markup">VideoHandle</property>
  <property name="meta.attr.0.stream.vendor_id.markup">[0][0][0][0]</property>
  <property name="meta.media.1.stream.type">audio</property>
  <property name="meta.media.1.codec.sample_fmt">fltp</property>
  <property name="meta.media.1.codec.sample_rate">48000</property>
  <property name="meta.media.1.codec.channels">2</property>
  <property name="meta.media.1.codec.name">aac</property>
  <property name="meta.media.1.codec.long_name">AAC (Advanced Audio Coding)</property>
  <property name="meta.media.1.codec.bit_rate">192226</property>
  <property name="meta.attr.1.stream.creation_time.markup">2021-08-05T03:41:15.000000Z</property>
  <property name="meta.attr.1.stream.language.markup">eng</property>
  <property name="meta.attr.1.stream.handler_name.markup">SoundHandle</property>
  <property name="meta.attr.1.stream.vendor_id.markup">[0][0][0][0]</property>
  <property name="meta.attr.major_brand.markup">mp42</property>
  <property name="meta.attr.minor_version.markup">0</property>
  <property name="meta.attr.compatible_brands.markup">isommp42</property>
  <property name="meta.attr.creation_time.markup">2021-08-05T03:41:15.000000Z</property>
  <property name="meta.attr.com.android.version.markup">8.0.0</property>
  <property name="meta.media.sample_aspect_num">1</property>
  <property name="meta.media.sample_aspect_den">1</property>
  <property name="meta.media.frame_rate_num">24480000</property>
  <property name="meta.media.frame_rate_den">810233</property>
  <property name="meta.media.colorspace">709</property>
  <property name="meta.media.color_trc">1</property>
  <property name="meta.media.width">1280</property>
  <property name="meta.media.height">720</property>
  <property name="meta.media.color_range">mpeg</property>
  <property name="meta.media.variable_frame_rate">1</property>
  <property name="meta.media.top_field_first">0</property>
  <property name="meta.media.progressive">1</property>
 </producer>
 <producer id="producer9" in="00:00:00.000" out="00:00:01.733">
  <property name="length">53</property>
  <property name="eof">pause</property>
  <property name="resource">一年看不见.mp4</property>
  <property name="audio_index">1</property>
  <property name="video_index">0</property>
  <property name="mute_on_pause">0</property>
  <property name="mlt_service">avformat-novalidate</property>
  <property name="seekable">1</property>
  <property name="aspect_ratio">1</property>
  <property name="kdenlive:clipname"/>
  <property name="kdenlive:folderid">-1</property>
  <property name="kdenlive:id">11</property>
  <property name="kdenlive:file_size">2100975</property>
  <property name="kdenlive:file_hash">b835e99fbaca33784a664daa4786417b</property>
  <property name="global_feed">1</property>
  <property name="meta.media.nb_streams">2</property>
  <property name="meta.media.0.stream.type">video</property>
  <property name="meta.media.0.stream.frame_rate">29.8616</property>
  <property name="meta.media.0.stream.sample_aspect_ratio">1</property>
  <property name="meta.media.0.codec.width">1280</property>
  <property name="meta.media.0.codec.height">720</property>
  <property name="meta.media.0.codec.rotate">0</property>
  <property name="meta.media.0.codec.frame_rate">30</property>
  <property name="meta.media.0.codec.pix_fmt">yuv420p</property>
  <property name="meta.media.0.codec.sample_aspect_ratio">0</property>
  <property name="meta.media.0.codec.colorspace">709</property>
  <property name="meta.media.0.codec.color_trc">1</property>
  <property name="meta.media.0.codec.name">h264</property>
  <property name="meta.media.0.codec.long_name">H.264 / AVC / MPEG-4 AVC / MPEG-4 part 10</property>
  <property name="meta.media.0.codec.bit_rate">5800807</property>
  <property name="meta.attr.0.stream.creation_time.markup">2021-08-05T03:42:46.000000Z</property>
  <property name="meta.attr.0.stream.language.markup">eng</property>
  <property name="meta.attr.0.stream.handler_name.markup">VideoHandle</property>
  <property name="meta.attr.0.stream.vendor_id.markup">[0][0][0][0]</property>
  <property name="meta.media.1.stream.type">audio</property>
  <property name="meta.media.1.codec.sample_fmt">fltp</property>
  <property name="meta.media.1.codec.sample_rate">48000</property>
  <property name="meta.media.1.codec.channels">2</property>
  <property name="meta.media.1.codec.name">aac</property>
  <property name="meta.media.1.codec.long_name">AAC (Advanced Audio Coding)</property>
  <property name="meta.media.1.codec.bit_rate">193111</property>
  <property name="meta.attr.1.stream.creation_time.markup">2021-08-05T03:42:46.000000Z</property>
  <property name="meta.attr.1.stream.language.markup">eng</property>
  <property name="meta.attr.1.stream.handler_name.markup">SoundHandle</property>
  <property name="meta.attr.1.stream.vendor_id.markup">[0][0][0][0]</property>
  <property name="meta.attr.major_brand.markup">mp42</property>
  <property name="meta.attr.minor_version.markup">0</property>
  <property name="meta.attr.compatible_brands.markup">isommp42</property>
  <property name="meta.attr.creation_time.markup">2021-08-05T03:42:46.000000Z</property>
  <property name="meta.attr.com.android.version.markup">8.0.0</property>
  <property name="meta.media.sample_aspect_num">1</property>
  <property name="meta.media.sample_aspect_den">1</property>
  <property name="meta.media.frame_rate_num">1560000</property>
  <property name="meta.media.frame_rate_den">52241</property>
  <property name="meta.media.colorspace">709</property>
  <property name="meta.media.color_trc">1</property>
  <property name="meta.media.width">1280</property>
  <property name="meta.media.height">720</property>
  <property name="meta.media.color_range">mpeg</property>
  <property name="kdenlive:audio_max">31</property>
  <property name="meta.media.variable_frame_rate">1</property>
  <property name="meta.media.top_field_first">0</property>
  <property name="meta.media.progressive">1</property>
 </producer>
 <producer id="producer10" in="00:00:00.000" out="00:00:02.100">
  <property name="length">64</property>
  <property name="eof">pause</property>
  <property name="resource">疑惑在.mp4</property>
  <property name="audio_index">1</property>
  <property name="video_index">0</property>
  <property name="mute_on_pause">0</property>
  <property name="mlt_service">avformat-novalidate</property>
  <property name="seekable">1</property>
  <property name="aspect_ratio">1</property>
  <property name="kdenlive:clipname"/>
  <property name="kdenlive:folderid">-1</property>
  <property name="kdenlive:id">12</property>
  <property name="kdenlive:file_size">2521533</property>
  <property name="kdenlive:file_hash">04a31975b6751e5601f3a499dd1103f7</property>
  <property name="global_feed">1</property>
  <property name="meta.media.nb_streams">2</property>
  <property name="meta.media.0.stream.type">video</property>
  <property name="meta.media.0.stream.frame_rate">30.206</property>
  <property name="meta.media.0.stream.sample_aspect_ratio">1</property>
  <property name="meta.media.0.codec.width">1280</property>
  <property name="meta.media.0.codec.height">720</property>
  <property name="meta.media.0.codec.rotate">0</property>
  <property name="meta.media.0.codec.frame_rate">30</property>
  <property name="meta.media.0.codec.pix_fmt">yuv420p</property>
  <property name="meta.media.0.codec.sample_aspect_ratio">0</property>
  <property name="meta.media.0.codec.colorspace">709</property>
  <property name="meta.media.0.codec.color_trc">1</property>
  <property name="meta.media.0.codec.name">h264</property>
  <property name="meta.media.0.codec.long_name">H.264 / AVC / MPEG-4 AVC / MPEG-4 part 10</property>
  <property name="meta.media.0.codec.bit_rate">6367967</property>
  <property name="meta.attr.0.stream.creation_time.markup">2021-08-05T03:49:47.000000Z</property>
  <property name="meta.attr.0.stream.language.markup">eng</property>
  <property name="meta.attr.0.stream.handler_name.markup">VideoHandle</property>
  <property name="meta.attr.0.stream.vendor_id.markup">[0][0][0][0]</property>
  <property name="meta.media.1.stream.type">audio</property>
  <property name="meta.media.1.codec.sample_fmt">fltp</property>
  <property name="meta.media.1.codec.sample_rate">48000</property>
  <property name="meta.media.1.codec.channels">2</property>
  <property name="meta.media.1.codec.name">aac</property>
  <property name="meta.media.1.codec.long_name">AAC (Advanced Audio Coding)</property>
  <property name="meta.media.1.codec.bit_rate">192918</property>
  <property name="meta.attr.1.stream.creation_time.markup">2021-08-05T03:49:47.000000Z</property>
  <property name="meta.attr.1.stream.language.markup">eng</property>
  <property name="meta.attr.1.stream.handler_name.markup">SoundHandle</property>
  <property name="meta.attr.1.stream.vendor_id.markup">[0][0][0][0]</property>
  <property name="meta.attr.major_brand.markup">mp42</property>
  <property name="meta.attr.minor_version.markup">0</property>
  <property name="meta.attr.compatible_brands.markup">isommp42</property>
  <property name="meta.attr.creation_time.markup">2021-08-05T03:49:47.000000Z</property>
  <property name="meta.attr.com.android.version.markup">8.0.0</property>
  <property name="meta.media.sample_aspect_num">1</property>
  <property name="meta.media.sample_aspect_den">1</property>
  <property name="meta.media.frame_rate_num">5670000</property>
  <property name="meta.media.frame_rate_den">187711</property>
  <property name="meta.media.colorspace">709</property>
  <property name="meta.media.color_trc">1</property>
  <property name="meta.media.width">1280</property>
  <property name="meta.media.height">720</property>
  <property name="meta.media.color_range">mpeg</property>
  <property name="kdenlive:audio_max">29</property>
  <property name="meta.media.variable_frame_rate">1</property>
  <property name="meta.media.top_field_first">0</property>
  <property name="meta.media.progressive">1</property>
 </producer>
 <producer id="producer11" in="00:00:00.000" out="00:00:09.733">
  <property name="length">293</property>
  <property name="eof">pause</property>
  <property name="resource">又不用作感言1.webm</property>
  <property name="audio_index">1</property>
  <property name="video_index">0</property>
  <property name="mute_on_pause">0</property>
  <property name="mlt_service">avformat-novalidate</property>
  <property name="seekable">1</property>
  <property name="aspect_ratio">1</property>
  <property name="kdenlive:clipname"/>
  <property name="kdenlive:folderid">-1</property>
  <property name="kdenlive:id">13</property>
  <property name="kdenlive:file_size">703439</property>
  <property name="kdenlive:file_hash">756eac0634ab695fa461ab19e3b9f0cc</property>
  <property name="global_feed">1</property>
  <property name="meta.media.nb_streams">2</property>
  <property name="meta.media.0.stream.type">video</property>
  <property name="meta.media.0.stream.frame_rate">30</property>
  <property name="meta.media.0.stream.sample_aspect_ratio">1</property>
  <property name="meta.media.0.codec.width">640</property>
  <property name="meta.media.0.codec.height">480</property>
  <property name="meta.media.0.codec.rotate">0</property>
  <property name="meta.media.0.codec.frame_rate">1000</property>
  <property name="meta.media.0.codec.pix_fmt">yuv420p</property>
  <property name="meta.media.0.codec.sample_aspect_ratio">0</property>
  <property name="meta.media.0.codec.colorspace">601</property>
  <property name="meta.media.0.codec.color_trc">6</property>
  <property name="meta.media.0.codec.name">vp8</property>
  <property name="meta.media.0.codec.long_name">On2 VP8</property>
  <property name="meta.media.0.codec.bit_rate">0</property>
  <property name="meta.attr.0.stream.language.markup">eng</property>
  <property name="meta.attr.0.stream.title.markup">Video</property>
  <property name="meta.media.1.stream.type">audio</property>
  <property name="meta.media.1.codec.sample_fmt">fltp</property>
  <property name="meta.media.1.codec.sample_rate">44100</property>
  <property name="meta.media.1.codec.channels">1</property>
  <property name="meta.media.1.codec.name">vorbis</property>
  <property name="meta.media.1.codec.long_name">Vorbis</property>
  <property name="meta.media.1.codec.bit_rate">0</property>
  <property name="meta.attr.1.stream.language.markup">eng</property>
  <property name="meta.attr.1.stream.title.markup">Audio</property>
  <property name="meta.attr.encoder.markup">GStreamer matroskamux version 1.18.4</property>
  <property name="meta.attr.creation_time.markup">2021-08-05T12:56:44.117483Z</property>
  <property name="meta.media.sample_aspect_num">1</property>
  <property name="meta.media.sample_aspect_den">1</property>
  <property name="meta.media.frame_rate_num">30</property>
  <property name="meta.media.frame_rate_den">1</property>
  <property name="meta.media.colorspace">601</property>
  <property name="meta.media.color_trc">6</property>
  <property name="meta.media.width">640</property>
  <property name="meta.media.height">480</property>
  <property name="meta.media.color_range">mpeg</property>
  <property name="kdenlive:audio_max">1</property>
  <property name="meta.media.top_field_first">0</property>
  <property name="meta.media.progressive">1</property>
 </producer>
 <producer id="producer12" in="00:00:00.000" out="00:00:06.300">
  <property name="length">190</property>
  <property name="eof">pause</property>
  <property name="resource">又不用作感言2.webm</property>
  <property name="audio_index">1</property>
  <property name="video_index">0</property>
  <property name="mute_on_pause">0</property>
  <property name="mlt_service">avformat-novalidate</property>
  <property name="seekable">1</property>
  <property name="aspect_ratio">1</property>
  <property name="kdenlive:clipname"/>
  <property name="kdenlive:folderid">-1</property>
  <property name="kdenlive:id">14</property>
  <property name="kdenlive:file_size">295018</property>
  <property name="kdenlive:file_hash">02446ce0e9ced937e261e9bc38bdd7f1</property>
  <property name="global_feed">1</property>
  <property name="meta.media.nb_streams">2</property>
  <property name="meta.media.0.stream.type">video</property>
  <property name="meta.media.0.stream.frame_rate">30</property>
  <property name="meta.media.0.stream.sample_aspect_ratio">1</property>
  <property name="meta.media.0.codec.width">640</property>
  <property name="meta.media.0.codec.height">480</property>
  <property name="meta.media.0.codec.rotate">0</property>
  <property name="meta.media.0.codec.frame_rate">1000</property>
  <property name="meta.media.0.codec.pix_fmt">yuv420p</property>
  <property name="meta.media.0.codec.sample_aspect_ratio">0</property>
  <property name="meta.media.0.codec.colorspace">601</property>
  <property name="meta.media.0.codec.color_trc">6</property>
  <property name="meta.media.0.codec.name">vp8</property>
  <property name="meta.media.0.codec.long_name">On2 VP8</property>
  <property name="meta.media.0.codec.bit_rate">0</property>
  <property name="meta.attr.0.stream.language.markup">eng</property>
  <property name="meta.attr.0.stream.title.markup">Video</property>
  <property name="meta.media.1.stream.type">audio</property>
  <property name="meta.media.1.codec.sample_fmt">fltp</property>
  <property name="meta.media.1.codec.sample_rate">44100</property>
  <property name="meta.media.1.codec.channels">1</property>
  <property name="meta.media.1.codec.name">vorbis</property>
  <property name="meta.media.1.codec.long_name">Vorbis</property>
  <property name="meta.media.1.codec.bit_rate">0</property>
  <property name="meta.attr.1.stream.language.markup">eng</property>
  <property name="meta.attr.1.stream.title.markup">Audio</property>
  <property name="meta.attr.encoder.markup">GStreamer matroskamux version 1.18.4</property>
  <property name="meta.attr.creation_time.markup">2021-08-05T12:55:31.171334Z</property>
  <property name="meta.media.sample_aspect_num">1</property>
  <property name="meta.media.sample_aspect_den">1</property>
  <property name="meta.media.frame_rate_num">30</property>
  <property name="meta.media.frame_rate_den">1</property>
  <property name="meta.media.colorspace">601</property>
  <property name="meta.media.color_trc">6</property>
  <property name="meta.media.width">640</property>
  <property name="meta.media.height">480</property>
  <property name="meta.media.color_range">mpeg</property>
  <property name="kdenlive:audio_max">1</property>
  <property name="meta.media.top_field_first">0</property>
  <property name="meta.media.progressive">1</property>
 </producer>
 <producer id="producer13" in="00:00:00.000" out="00:04:21.333">
  <property name="length">7841</property>
  <property name="eof">pause</property>
  <property name="resource">/home/duangsuse/Documents/演员/fin.mp3</property>
  <property name="meta.media.nb_streams">1</property>
  <property name="meta.media.0.stream.type">audio</property>
  <property name="meta.media.0.codec.sample_fmt">fltp</property>
  <property name="meta.media.0.codec.sample_rate">48000</property>
  <property name="meta.media.0.codec.channels">2</property>
  <property name="meta.media.0.codec.name">mp3float</property>
  <property name="meta.media.0.codec.long_name">MP3 (MPEG audio layer 3)</property>
  <property name="meta.media.0.codec.bit_rate">194671</property>
  <property name="meta.attr.0.stream.encoder.markup">LAME3.100</property>
  <property name="meta.attr.Software.markup">Lavf58.76.100</property>
  <property name="seekable">1</property>
  <property name="audio_index">0</property>
  <property name="video_index">-1</property>
  <property name="mute_on_pause">1</property>
  <property name="mlt_service">avformat</property>
  <property name="kdenlive:clipname"/>
  <property name="kdenlive:folderid">-1</property>
  <property name="kdenlive:id">15</property>
  <property name="kdenlive:file_size">6359959</property>
  <property name="kdenlive:file_hash">e19fbfd06429e1b4e96b7e3aea868d8f</property>
  <property name="kdenlive:audio_max">1</property>
  <property name="global_feed">1</property>
 </producer>
 <producer id="tractor0" in="00:00:00.000" out="00:00:02.800">
  <property name="length">85</property>
  <property name="eof">pause</property>
  <property name="resource">/home/duangsuse/Documents/演员/b.mlt</property>
  <property name="mlt_service">xml</property>
  <property name="global_feed">1</property>
  <property name="xml">was here</property>
  <property name="seekable">1</property>
  <property name="kdenlive:clipname"/>
  <property name="kdenlive:folderid">-1</property>
  <property name="kdenlive:id">16</property>
  <property name="kdenlive:file_size">832</property>
  <property name="kdenlive:file_hash">191df155090650c78a74a273d331f9a7</property>
 </producer>
 <producer id="producer14" in="00:00:00.000" out="00:00:05.767">
  <property name="length">174</property>
  <property name="eof">pause</property>
  <property name="resource"/>
  <property name="progressive">1</property>
  <property name="aspect_ratio">1</property>
  <property name="seekable">1</property>
  <property name="mlt_service">kdenlivetitle</property>
  <property name="kdenlive:duration">125</property>
  <property name="kdenlive:clipname">模板字幕剪辑</property>
  <property name="kdenlive:folderid">-1</property>
  <property name="kdenlive:id">17</property>
  <property name="force_reload">0</property>
  <property name="xmldata">&lt;kdenlivetitle duration="125" LC_NUMERIC="C" width="1920" height="1080" out="124">
 &lt;item type="QGraphicsTextItem" z-index="3">
  &lt;position x="736" y="820">
   &lt;transform>1,0,0,0,1,0,0,0,1&lt;/transform>
  &lt;/position>
  &lt;content line-spacing="0" shadow="0;#ff000000;0;0;0" font-underline="0" box-height="107" font="文泉驿等宽微米黑" letter-spacing="0" font-pixel-size="90" font-italic="0" typewriter="0;2;1;0;0" alignment="2" font-weight="63" box-width="324" font-color="254,255,240,255">@咱动苏&lt;/content>
 &lt;/item>
 &lt;item type="QGraphicsRectItem" z-index="2">
  &lt;position x="710" y="806">
   &lt;transform zoom="100">1,0,0,0,1,0,0,0,1&lt;/transform>
  &lt;/position>
  &lt;content brushcolor="0,0,0,255" pencolor="246,245,244,255" penwidth="10" rect="0,0,387.819,144.489" gradient="#ff33d17a;#ff204a87;70;100;90"/>
 &lt;/item>
 &lt;item type="QGraphicsTextItem" z-index="2">
  &lt;position x="510" y="422">
   &lt;transform>1,0,0,0,1,0,0,0,1&lt;/transform>
  &lt;/position>
  &lt;content line-spacing="0" shadow="1;#ff000000;0;0;0" font-underline="0" box-height="294" font-outline-color="97,53,131,255" font="文泉驿等宽微米黑" letter-spacing="200" font-pixel-size="250" font-italic="0" typewriter="0;2;1;0;0" alignment="2" font-weight="63" font-outline="6" box-width="900" font-color="254,255,240,255">演员&lt;/content>
 &lt;/item>
 &lt;startviewport rect="46.5851,44.6669,1920,1080"/>
 &lt;endviewport rect="21.6216,59.4595,1920,1080"/>
 &lt;background color="0,0,0,0"/>
&lt;/kdenlivetitle>
</property>
  <property name="global_feed">1</property>
  <property name="kdenlive:file_hash">bf2aa3845ea717cf8f5a232d3aa85060</property>
  <property name="meta.media.width">1920</property>
  <property name="meta.media.height">1080</property>
 </producer>
 <producer id="producer15" in="00:00:00.000" out="00:00:13.100">
  <property name="length">394</property>
  <property name="eof">pause</property>
  <property name="resource"/>
  <property name="progressive">1</property>
  <property name="aspect_ratio">1</property>
  <property name="seekable">1</property>
  <property name="mlt_service">kdenlivetitle</property>
  <property name="kdenlive:duration">125</property>
  <property name="kdenlive:clipname">模板字幕剪辑</property>
  <property name="kdenlive:folderid">-1</property>
  <property name="kdenlive:id">18</property>
  <property name="force_reload">0</property>
  <property name="xmldata">&lt;kdenlivetitle duration="125" LC_NUMERIC="C" width="1920" height="1080" out="124">
 &lt;item type="QGraphicsTextItem" z-index="-1">
  &lt;position x="591" y="351">
   &lt;transform>1,0,0,0,1,0,0,0,1&lt;/transform>
  &lt;/position>
  &lt;content line-spacing="0" shadow="0;#ff000000;0;0;0" font-underline="0" box-height="558" font="Arial Black" letter-spacing="0" font-pixel-size="79" font-italic="0" typewriter="1;1;1;3;0" alignment="2" font-weight="50" box-width="1264" font-color="254,255,240,255">纪念在技术圈那些年遇到的，
或许兴趣使然的，
始终在努力把自己染上技术的色彩，
却不曾想让它完整而自由，
接力为其赋予自己的色彩的，
孤独的「爱好者」们。&lt;/content>
 &lt;/item>
 &lt;startviewport rect="0,0,1920,1080"/>
 &lt;endviewport rect="0,0,1920,1080"/>
 &lt;background color="0,0,0,0"/>
&lt;/kdenlivetitle>
</property>
  <property name="global_feed">1</property>
  <property name="kdenlive:file_hash">741024e06e28cffb2a924a1921fdfdaf</property>
  <property name="meta.media.width">1920</property>
  <property name="meta.media.height">1080</property>
 </producer>
 <producer id="producer16" in="00:00:00.000" out="00:00:13.100">
  <property name="length">394</property>
  <property name="eof">pause</property>
  <property name="resource"/>
  <property name="progressive">1</property>
  <property name="aspect_ratio">1</property>
  <property name="seekable">1</property>
  <property name="mlt_service">kdenlivetitle</property>
  <property name="kdenlive:duration">125</property>
  <property name="kdenlive:clipname">或许从一开始作为失败者离...</property>
  <property name="kdenlive:folderid">-1</property>
  <property name="kdenlive:id">19</property>
  <property name="force_reload">0</property>
  <property name="xmldata">&lt;kdenlivetitle duration="125" LC_NUMERIC="C" width="1920" height="1080" out="124">
 &lt;item type="QGraphicsTextItem" z-index="-1">
  &lt;position x="269" y="469">
   &lt;transform>1,0,0,0,1,0,0,0,1&lt;/transform>
  &lt;/position>
  &lt;content line-spacing="0" shadow="0;#ff000000;0;0;0" font-underline="0" box-height="558" font="Arial Black" letter-spacing="0" font-pixel-size="79" font-italic="0" typewriter="1;2;2;0;0" alignment="2" font-weight="50" box-width="1595" font-color="254,255,240,255">或许	从一开始	作为失败者	离开	应用编程，
	到	大学生活	的	踌躇志满，
我就从没忘记，	无论	『科学』	或	『工程』	，
编程	始终	不是	低层	01的事；
总来源	于共同问题	认知	、	实际名动词模型。
何领域的问题	都有更易懂	、亲和的	表达方法。&lt;/content>
 &lt;/item>
 &lt;startviewport rect="0,0,1920,1080"/>
 &lt;endviewport rect="0,0,1920,1080"/>
 &lt;background color="0,0,0,0"/>
&lt;/kdenlivetitle>
</property>
  <property name="global_feed">1</property>
  <property name="kdenlive:file_hash">f0ba935a56f65b4962f0cbb2c680da21</property>
  <property name="meta.media.width">1920</property>
  <property name="meta.media.height">1080</property>
 </producer>
 <producer id="producer17" in="00:00:00.000" out="00:00:04.967">
  <property name="length">150</property>
  <property name="eof">pause</property>
  <property name="resource"/>
  <property name="progressive">1</property>
  <property name="aspect_ratio">1</property>
  <property name="seekable">1</property>
  <property name="mlt_service">kdenlivetitle</property>
  <property name="kdenlive:duration">150</property>
  <property name="kdenlive:clipname">让  看 上 去 不...</property>
  <property name="xmldata">&lt;kdenlivetitle duration="150" LC_NUMERIC="C" width="1280" height="720" out="149">
 &lt;item type="QGraphicsTextItem" z-index="0">
  &lt;position x="294" y="303">
   &lt;transform>1,0,0,0,1,0,0,0,1&lt;/transform>
  &lt;/position>
  &lt;content line-spacing="0" shadow="1;#64000000;9;3;-3" font-underline="0" box-height="93" font="文泉驿微米黑" letter-spacing="0" font-pixel-size="79" font-italic="0" typewriter="1;7;2;0;0" alignment="2" font-weight="75" gradient="#ff33d17a;#ff204a87;70;100;90" box-width="642" font-color="0,0,0,255">让	我	看	上	去	不	弱	智&lt;/content>
 &lt;/item>
 &lt;startviewport rect="0,0,1280,720"/>
 &lt;endviewport rect="0,0,1280,720"/>
 &lt;background color="0,0,0,0"/>
&lt;/kdenlivetitle>
</property>
  <property name="kdenlive:folderid">20</property>
  <property name="kdenlive:id">21</property>
  <property name="kdenlive:file_hash">7d741fbcda26a0e01cf116099b03d863</property>
  <property name="force_reload">0</property>
  <property name="meta.media.width">1280</property>
  <property name="meta.media.height">720</property>
 </producer>
 <producer id="producer18" in="00:00:00.000" out="00:00:04.967">
  <property name="length">150</property>
  <property name="eof">pause</property>
  <property name="resource"/>
  <property name="progressive">1</property>
  <property name="aspect_ratio">1</property>
  <property name="seekable">1</property>
  <property name="mlt_service">kdenlivetitle</property>
  <property name="kdenlive:duration">150</property>
  <property name="kdenlive:clipname">*未知识付费</property>
  <property name="xmldata">&lt;kdenlivetitle duration="150" LC_NUMERIC="C" width="1280" height="720" out="149">
 &lt;item type="QGraphicsTextItem" z-index="0">
  &lt;position x="648" y="441">
   &lt;transform>1,0,0,0,1,0,0,0,1&lt;/transform>
  &lt;/position>
  &lt;content line-spacing="0" shadow="0;#64000000;3;3;3" font-underline="0" box-height="93" font-outline-color="97,53,131,255" font="文泉驿微米黑" letter-spacing="0" font-pixel-size="79" font-italic="0" typewriter="0;2;1;0;0" alignment="2" font-weight="75" font-outline="0" box-width="438.5" font-color="255,255,255,255">*未知识付费&lt;/content>
 &lt;/item>
 &lt;startviewport rect="0,0,1280,720"/>
 &lt;endviewport rect="0,0,1280,720"/>
 &lt;background color="0,0,0,0"/>
&lt;/kdenlivetitle>
</property>
  <property name="kdenlive:folderid">20</property>
  <property name="kdenlive:id">22</property>
  <property name="kdenlive:file_hash">f0b0b0a09524f913260fc53b02e63570</property>
  <property name="force_reload">0</property>
  <property name="meta.media.width">1280</property>
  <property name="meta.media.height">720</property>
 </producer>
 <producer id="producer19" in="00:00:00.000" out="00:00:04.967">
  <property name="length">00:00:05.000</property>
  <property name="eof">pause</property>
  <property name="resource">/home/duangsuse/Downloads/Screenshot 2021-08-07 at 00-54-42 算术表达式的合法性判断与求值（上）_神奕的专栏-CSDN博客.png</property>
  <property name="ttl">25</property>
  <property name="aspect_ratio">1</property>
  <property name="progressive">1</property>
  <property name="seekable">1</property>
  <property name="meta.media.width">852</property>
  <property name="meta.media.height">493</property>
  <property name="mlt_service">qimage</property>
  <property name="kdenlive:clipname"/>
  <property name="kdenlive:duration">00:00:05.000</property>
  <property name="kdenlive:folderid">23</property>
  <property name="kdenlive:id">24</property>
  <property name="kdenlive:file_size">87518</property>
  <property name="kdenlive:file_hash">434b3dc630d0a5487b3911a763adadf2</property>
 </producer>
 <producer id="producer20" in="00:00:00.000" out="00:00:08.233">
  <property name="length">248</property>
  <property name="eof">pause</property>
  <property name="resource">/home/duangsuse/Downloads/Screenshot 2021-08-07 at 00-54-19 算术表达式的合法性判断与求值（上）_神奕的专栏-CSDN博客.png</property>
  <property name="ttl">25</property>
  <property name="aspect_ratio">1</property>
  <property name="progressive">1</property>
  <property name="seekable">1</property>
  <property name="meta.media.width">852</property>
  <property name="meta.media.height">1324</property>
  <property name="mlt_service">qimage</property>
  <property name="kdenlive:clipname"/>
  <property name="kdenlive:duration">00:00:05.000</property>
  <property name="kdenlive:folderid">23</property>
  <property name="kdenlive:id">25</property>
  <property name="kdenlive:file_size">125043</property>
  <property name="kdenlive:file_hash">618214312f35ae3897cd5770bda3ed90</property>
 </producer>
 <producer id="producer21" in="00:00:00.000" out="00:00:08.267">
  <property name="length">249</property>
  <property name="eof">pause</property>
  <property name="resource">/home/duangsuse/Downloads/Screenshot 2021-08-07 at 00-53-55 算术表达式的合法性判断与求值（上）_神奕的专栏-CSDN博客.png</property>
  <property name="ttl">25</property>
  <property name="aspect_ratio">1</property>
  <property name="progressive">1</property>
  <property name="seekable">1</property>
  <property name="meta.media.width">852</property>
  <property name="meta.media.height">915</property>
  <property name="mlt_service">qimage</property>
  <property name="kdenlive:clipname"/>
  <property name="kdenlive:duration">00:00:05.000</property>
  <property name="kdenlive:folderid">23</property>
  <property name="kdenlive:id">26</property>
  <property name="kdenlive:file_size">113485</property>
  <property name="kdenlive:file_hash">cd8227fe33556c111cae72ba06981650</property>
 </producer>
 <producer id="producer22" in="00:00:00.000" out="00:00:08.033">
  <property name="length">242</property>
  <property name="eof">pause</property>
  <property name="resource">/home/duangsuse/Downloads/Screenshot 2021-08-07 at 00-53-42 算术表达式的合法性判断与求值（上）_神奕的专栏-CSDN博客.png</property>
  <property name="ttl">25</property>
  <property name="aspect_ratio">1</property>
  <property name="progressive">1</property>
  <property name="seekable">1</property>
  <property name="meta.media.width">852</property>
  <property name="meta.media.height">1190</property>
  <property name="mlt_service">qimage</property>
  <property name="kdenlive:clipname"/>
  <property name="kdenlive:duration">00:00:05.000</property>
  <property name="kdenlive:folderid">23</property>
  <property name="kdenlive:id">27</property>
  <property name="kdenlive:file_size">105775</property>
  <property name="kdenlive:file_hash">9f02f2497fd17aa4646a1313b9ef50f6</property>
 </producer>
 <producer id="producer23" in="00:00:00.000" out="00:00:06.800">
  <property name="length">205</property>
  <property name="eof">pause</property>
  <property name="resource">/home/duangsuse/Downloads/Screenshot 2021-08-07 at 00-53-23 算术表达式的合法性判断与求值（上）_神奕的专栏-CSDN博客.png</property>
  <property name="ttl">25</property>
  <property name="aspect_ratio">1</property>
  <property name="progressive">1</property>
  <property name="seekable">1</property>
  <property name="meta.media.width">852</property>
  <property name="meta.media.height">753</property>
  <property name="mlt_service">qimage</property>
  <property name="kdenlive:clipname"/>
  <property name="kdenlive:duration">00:00:05.000</property>
  <property name="kdenlive:folderid">23</property>
  <property name="kdenlive:id">28</property>
  <property name="kdenlive:file_size">41427</property>
  <property name="kdenlive:file_hash">4ee8f11c7ca5a652875c7a21504c5170</property>
  <property name="global_feed">1</property>
 </producer>
 <producer id="producer24" in="00:00:00.000" out="00:00:04.967">
  <property name="length">00:00:05.000</property>
  <property name="eof">pause</property>
  <property name="resource">/home/duangsuse/Downloads/Screenshot 2021-08-07 at 01-14-34 用python编写控制网络设备的自动化脚本8：网页.png</property>
  <property name="ttl">25</property>
  <property name="aspect_ratio">1</property>
  <property name="progressive">1</property>
  <property name="seekable">1</property>
  <property name="meta.media.width">814</property>
  <property name="meta.media.height">2197</property>
  <property name="mlt_service">qimage</property>
  <property name="kdenlive:clipname"/>
  <property name="kdenlive:duration">00:00:05.000</property>
  <property name="kdenlive:folderid">20</property>
  <property name="kdenlive:id">29</property>
  <property name="kdenlive:file_size">493478</property>
  <property name="kdenlive:file_hash">d5262f245d18967f848ee571d1d42695</property>
 </producer>
 <producer id="producer25" in="00:00:00.000" out="00:00:12.667">
  <property name="length">381</property>
  <property name="eof">pause</property>
  <property name="resource">/home/duangsuse/Documents/演员/冗长空洞却美丽_mon.png</property>
  <property name="ttl">25</property>
  <property name="aspect_ratio">1</property>
  <property name="progressive">1</property>
  <property name="seekable">1</property>
  <property name="meta.media.width">2048</property>
  <property name="meta.media.height">1214</property>
  <property name="mlt_service">qimage</property>
  <property name="kdenlive:clipname"/>
  <property name="kdenlive:duration">00:00:05.000</property>
  <property name="kdenlive:folderid">20</property>
  <property name="kdenlive:id">30</property>
  <property name="kdenlive:file_size">919069</property>
  <property name="kdenlive:file_hash">034da80ffa5b9ae892cdffbc4e755a81</property>
 </producer>
 <producer id="producer26" in="00:00:00.000" out="00:00:15.000">
  <property name="length">451</property>
  <property name="eof">pause</property>
  <property name="resource">/home/duangsuse/Documents/演员/与我无关_mon.png</property>
  <property name="ttl">25</property>
  <property name="aspect_ratio">1</property>
  <property name="progressive">1</property>
  <property name="seekable">1</property>
  <property name="meta.media.width">1920</property>
  <property name="meta.media.height">1080</property>
  <property name="mlt_service">qimage</property>
  <property name="kdenlive:clipname"/>
  <property name="kdenlive:duration">00:00:05.000</property>
  <property name="kdenlive:folderid">20</property>
  <property name="kdenlive:id">31</property>
  <property name="kdenlive:file_size">2494807</property>
  <property name="kdenlive:file_hash">815b6a89819e7b88713d3070a37fb7d9</property>
 </producer>
 <producer id="producer27" in="00:00:00.000" out="00:00:05.067">
  <property name="length">153</property>
  <property name="eof">pause</property>
  <property name="resource">/home/duangsuse/Screenshots/截图_2021-08-07_05-42-34.png</property>
  <property name="ttl">25</property>
  <property name="aspect_ratio">1</property>
  <property name="progressive">1</property>
  <property name="seekable">1</property>
  <property name="meta.media.width">792</property>
  <property name="meta.media.height">663</property>
  <property name="mlt_service">qimage</property>
  <property name="kdenlive:clipname"/>
  <property name="kdenlive:duration">00:00:05.000</property>
  <property name="kdenlive:folderid">23</property>
  <property name="kdenlive:id">32</property>
  <property name="kdenlive:file_size">189535</property>
  <property name="kdenlive:file_hash">0b6024ca8d743d36383ee399ee0c78ef</property>
 </producer>
 <producer id="producer28" in="00:00:00.000" out="00:00:11.267">
  <property name="length">339</property>
  <property name="eof">pause</property>
  <property name="resource"/>
  <property name="progressive">1</property>
  <property name="aspect_ratio">1</property>
  <property name="seekable">1</property>
  <property name="mlt_service">kdenlivetitle</property>
  <property name="kdenlive:duration">150</property>
  <property name="kdenlive:clipname">『阳春白雪』</property>
  <property name="xmldata">&lt;kdenlivetitle duration="150" LC_NUMERIC="C" width="1280" height="720" out="149">
 &lt;item type="QGraphicsTextItem" z-index="0">
  &lt;position x="398" y="323">
   &lt;transform>1,0,0,0,1,0,0,0,1&lt;/transform>
  &lt;/position>
  &lt;content line-spacing="0" shadow="0;#64000000;3;3;3" font-underline="0" box-height="93" font-outline-color="97,53,131,255" font="文泉驿微米黑" letter-spacing="0" font-pixel-size="79" font-italic="0" typewriter="0;2;1;0;0" alignment="2" font-weight="50" font-outline="0" box-width="474" font-color="224,27,36,255">『阳春白雪』&lt;/content>
 &lt;/item>
 &lt;startviewport rect="0,0,1280,720"/>
 &lt;endviewport rect="0,0,1280,720"/>
 &lt;background color="0,0,0,0"/>
&lt;/kdenlivetitle>
</property>
  <property name="kdenlive:folderid">20</property>
  <property name="kdenlive:id">33</property>
  <property name="kdenlive:file_hash">77bda27cd7f97de3093ca45b3df88e60</property>
  <property name="force_reload">0</property>
  <property name="meta.media.width">1280</property>
  <property name="meta.media.height">720</property>
  <property name="global_feed">1</property>
 </producer>
 <producer id="producer29" in="00:00:00.000" out="00:00:10.500">
  <property name="length">316</property>
  <property name="eof">pause</property>
  <property name="resource"/>
  <property name="progressive">1</property>
  <property name="aspect_ratio">1</property>
  <property name="seekable">1</property>
  <property name="mlt_service">kdenlivetitle</property>
  <property name="kdenlive:duration">150</property>
  <property name="kdenlive:clipname">get :: (T a)...</property>
  <property name="xmldata">&lt;kdenlivetitle duration="150" LC_NUMERIC="C" width="1280" height="720" out="149">
 &lt;item type="QGraphicsTextItem" z-index="0">
  &lt;position x="93" y="110">
   &lt;transform>1,0,0,0,1,0,0,0,1&lt;/transform>
  &lt;/position>
  &lt;content line-spacing="0" shadow="0;#64000000;3;3;3" font-underline="0" box-height="850" font-outline-color="97,53,131,255" font="文泉驿微米黑" letter-spacing="0" font-pixel-size="29" font-italic="0" typewriter="0;2;1;0;0" alignment="1" font-weight="50" font-outline="0" box-width="1428.67" font-color="255,255,255,255">get :: (T a) -> a -- 下面，多参(多餐)函数只需多次投喂满单参即得结果
get _ = impossible

ap (T f) o = (map f) o -- JS内避免临时 (x=>y=>x+y)(1)  即 y=>1+y 求值序出现
map f o == ap (pure f) o

liftA2 f o1 o2 =ap(ap (T f) o1) o2
liftAN f os=fold (\o0 o->ap o0 o) (T f) os

(foldl f v xs)=xs.reduce(f,v) 真以为你记得住顺序人肉重构
只是靠语境按函数,单项,多项的类型逐个填写了

Maybe={map_:(op,x)=>isNul(x)?x: op(x), fold:(x,op,opN)=>(isNul(x)?opN:op)(x)}

add::(Monad m,Num a)=> m a -> (m a -> m a)
add m1 m2 = do
  a&amp;lt;-m1;b&amp;lt;-m2
  return a+b

map f No&amp;lt;|>(Just a)=Just (f a)
map f (Just a)&amp;lt;|>No=Just a

Maybe Alternative: map f No x=T fx; f T No=T -- No No; T T

pure(1-)&amp;lt;*>(Just 1)&amp;lt;|>pure 2 == (\x-> 1-x)&amp;lt;$>(Just 1)&amp;lt;|>pure 2 == Maybe(1).map(x=>1-x).fold(Just, no=>Just(2))&lt;/content>
 &lt;/item>
 &lt;startviewport rect="-10.7143,507.143,1280,720"/>
 &lt;endviewport rect="0,0,1280,720"/>
 &lt;background color="0,0,0,0"/>
&lt;/kdenlivetitle>
</property>
  <property name="kdenlive:folderid">20</property>
  <property name="kdenlive:id">34</property>
  <property name="kdenlive:file_hash">28e5116fb1f105658c2ec79dfe2f537b</property>
  <property name="force_reload">0</property>
  <property name="meta.media.width">1280</property>
  <property name="meta.media.height">720</property>
 </producer>
 <producer id="producer30" in="00:00:00.000" out="00:00:04.967">
  <property name="length">150</property>
  <property name="eof">pause</property>
  <property name="resource"/>
  <property name="progressive">1</property>
  <property name="aspect_ratio">1</property>
  <property name="seekable">1</property>
  <property name="mlt_service">kdenlivetitle</property>
  <property name="kdenlive:duration">150</property>
  <property name="kdenlive:clipname">《没来由》</property>
  <property name="xmldata">&lt;kdenlivetitle duration="150" LC_NUMERIC="C" width="1280" height="720" out="149">
 &lt;item type="QGraphicsTextItem" z-index="0">
  &lt;position x="806" y="28">
   &lt;transform>1,0,0,0,1,0,0,0,1&lt;/transform>
  &lt;/position>
  &lt;content line-spacing="0" shadow="0;#64000000;3;3;3" font-underline="0" box-height="117" font="文泉驿微米黑" letter-spacing="0" font-pixel-size="99" font-italic="0" typewriter="0;2;1;0;0" alignment="2" font-weight="50" gradient="#ff613583;#ff204a87;70;100;90" box-width="495" font-color="0,0,0,255">《没来由》&lt;/content>
 &lt;/item>
 &lt;startviewport rect="0,0,1280,720"/>
 &lt;endviewport rect="0,0,1280,720"/>
 &lt;background color="0,0,0,0"/>
&lt;/kdenlivetitle>
</property>
  <property name="kdenlive:folderid">20</property>
  <property name="kdenlive:id">35</property>
  <property name="kdenlive:file_hash">7f2fd17fd92becd6901d75a1a27816c9</property>
  <property name="force_reload">0</property>
  <property name="meta.media.width">1280</property>
  <property name="meta.media.height">720</property>
  <property name="global_feed">1</property>
 </producer>
 <producer id="producer31" in="00:00:00.000" out="00:00:07.433">
  <property name="length">224</property>
  <property name="eof">pause</property>
  <property name="resource">/home/duangsuse/Downloads/Screenshot 2021-08-07 at 03-30-40 使用 Haskell 编写灵活的 Parser （下）.png</property>
  <property name="ttl">25</property>
  <property name="aspect_ratio">1</property>
  <property name="progressive">1</property>
  <property name="seekable">1</property>
  <property name="meta.media.width">690</property>
  <property name="meta.media.height">1041</property>
  <property name="mlt_service">qimage</property>
  <property name="kdenlive:clipname"/>
  <property name="kdenlive:duration">00:00:05.000</property>
  <property name="kdenlive:folderid">37</property>
  <property name="kdenlive:id">36</property>
  <property name="kdenlive:file_size">103946</property>
  <property name="kdenlive:file_hash">14130234119d3dfcf91d3c5c9b76c41e</property>
 </producer>
 <producer id="producer33" in="00:00:00.000" out="00:00:06.233">
  <property name="length">188</property>
  <property name="eof">pause</property>
  <property name="resource">/home/duangsuse/Downloads/Screenshot 2021-08-07 at 02-10-28 是类型类！还有函子，可应用函子和单子！.png</property>
  <property name="ttl">25</property>
  <property name="aspect_ratio">1</property>
  <property name="progressive">1</property>
  <property name="seekable">1</property>
  <property name="meta.media.width">740</property>
  <property name="meta.media.height">895</property>
  <property name="mlt_service">qimage</property>
  <property name="kdenlive:clipname"/>
  <property name="kdenlive:duration">00:00:05.000</property>
  <property name="kdenlive:folderid">37</property>
  <property name="kdenlive:id">38</property>
  <property name="kdenlive:file_size">123920</property>
  <property name="kdenlive:file_hash">2556e9fd225523868f074af14149b8f1</property>
 </producer>
 <producer id="producer35" in="00:00:00.000" out="00:00:04.967">
  <property name="length">00:00:05.000</property>
  <property name="eof">pause</property>
  <property name="resource">/home/duangsuse/Downloads/Screenshot 2021-08-07 at 00-51-18 miniKanren简介（1）.png</property>
  <property name="ttl">25</property>
  <property name="aspect_ratio">1</property>
  <property name="progressive">1</property>
  <property name="seekable">1</property>
  <property name="meta.media.width">978</property>
  <property name="meta.media.height">966</property>
  <property name="mlt_service">qimage</property>
  <property name="kdenlive:clipname"/>
  <property name="kdenlive:duration">00:00:05.000</property>
  <property name="kdenlive:folderid">42</property>
  <property name="kdenlive:id">39</property>
  <property name="kdenlive:file_size">87706</property>
  <property name="kdenlive:file_hash">a8a596418ba20ad8734860d7aba07d55</property>
 </producer>
 <producer id="producer36" in="00:00:00.000" out="00:00:05.800">
  <property name="length">175</property>
  <property name="eof">pause</property>
  <property name="resource">/home/duangsuse/Downloads/Screenshot 2021-08-06 at 20-34-11 2021最新最全Java 进阶资料合集.png</property>
  <property name="ttl">25</property>
  <property name="aspect_ratio">1</property>
  <property name="progressive">1</property>
  <property name="seekable">1</property>
  <property name="meta.media.width">690</property>
  <property name="meta.media.height">914</property>
  <property name="mlt_service">qimage</property>
  <property name="kdenlive:clipname"/>
  <property name="kdenlive:duration">00:00:05.000</property>
  <property name="kdenlive:folderid">42</property>
  <property name="kdenlive:id">40</property>
  <property name="kdenlive:file_size">789659</property>
  <property name="kdenlive:file_hash">aca469af8088abc4ed6ccf805b450695</property>
 </producer>
 <producer id="producer37" in="00:00:00.000" out="00:00:04.967">
  <property name="length">00:00:05.000</property>
  <property name="eof">pause</property>
  <property name="resource">/home/duangsuse/Downloads/Screenshot 2021-08-06 at 20-26-28 能不能有人简单的解释下 miniKanren 的实现方式？ - 知乎.png</property>
  <property name="ttl">25</property>
  <property name="aspect_ratio">1</property>
  <property name="progressive">1</property>
  <property name="seekable">1</property>
  <property name="meta.media.width">694</property>
  <property name="meta.media.height">581</property>
  <property name="mlt_service">qimage</property>
  <property name="kdenlive:clipname"/>
  <property name="kdenlive:duration">00:00:05.000</property>
  <property name="kdenlive:folderid">42</property>
  <property name="kdenlive:id">41</property>
  <property name="kdenlive:file_size">79736</property>
  <property name="kdenlive:file_hash">8e67344eaa7d050deba10f21fb4f86c3</property>
 </producer>
 <producer id="producer38" in="00:00:00.000" out="00:00:05.867">
  <property name="length">177</property>
  <property name="eof">pause</property>
  <property name="resource">/home/duangsuse/Downloads/Screenshot 2021-08-07 at 01-14-34 用python编写控制网络设备的自动化脚本8：网页.png</property>
  <property name="ttl">25</property>
  <property name="aspect_ratio">1</property>
  <property name="progressive">1</property>
  <property name="seekable">1</property>
  <property name="meta.media.width">814</property>
  <property name="meta.media.height">2197</property>
  <property name="mlt_service">qimage</property>
  <property name="kdenlive:clipname"/>
  <property name="kdenlive:duration">00:00:05.000</property>
  <property name="kdenlive:folderid">42</property>
  <property name="kdenlive:id">43</property>
  <property name="kdenlive:file_size">493478</property>
  <property name="kdenlive:file_hash">d5262f245d18967f848ee571d1d42695</property>
 </producer>
 <producer id="producer39" in="00:00:00.000" out="00:00:11.267">
  <property name="length">339</property>
  <property name="eof">pause</property>
  <property name="resource"/>
  <property name="progressive">1</property>
  <property name="aspect_ratio">1</property>
  <property name="seekable">1</property>
  <property name="mlt_service">kdenlivetitle</property>
  <property name="kdenlive:duration">150</property>
  <property name="kdenlive:clipname">《考验》</property>
  <property name="xmldata">&lt;kdenlivetitle duration="150" LC_NUMERIC="C" width="1280" height="720" out="149">
 &lt;item type="QGraphicsTextItem" z-index="2">
  &lt;position x="395" y="295">
   &lt;transform>1,0,0,0,1,0,0,0,1&lt;/transform>
  &lt;/position>
  &lt;content line-spacing="0" shadow="1;#64000000;32;3;3" font-underline="0" box-height="146" font="文泉驿微米黑" letter-spacing="0" font-pixel-size="123" font-italic="0" typewriter="1;10;2;0;0" alignment="2" font-weight="50" gradient="#ff613583;#ffe01b24;70;100;61" box-width="603" font-color="0,0,0,255">《	考	验	》&lt;/content>
 &lt;/item>
 &lt;startviewport rect="0,0,1280,720"/>
 &lt;endviewport rect="0,0,1280,720"/>
 &lt;background color="0,0,0,0"/>
&lt;/kdenlivetitle>
</property>
  <property name="kdenlive:folderid">20</property>
  <property name="kdenlive:id">44</property>
  <property name="force_reload">0</property>
  <property name="global_feed">1</property>
  <property name="kdenlive:file_hash">b021ee7da72695f54b9047c68b51489c</property>
  <property name="meta.media.width">1280</property>
  <property name="meta.media.height">720</property>
 </producer>
 <producer id="producer34" in="00:00:00.000" out="00:00:11.267">
  <property name="length">339</property>
  <property name="eof">pause</property>
  <property name="resource"/>
  <property name="progressive">1</property>
  <property name="aspect_ratio">1</property>
  <property name="seekable">1</property>
  <property name="mlt_service">kdenlivetitle</property>
  <property name="kdenlive:duration">150</property>
  <property name="kdenlive:clipname">『 下 里 巴 人 ? ...</property>
  <property name="xmldata">&lt;kdenlivetitle duration="150" LC_NUMERIC="C" width="1280" height="720" out="149">
 &lt;item type="QGraphicsTextItem" z-index="0">
  &lt;position x="386" y="323">
   &lt;transform>1,0,0,0,1,0,0,0,1&lt;/transform>
  &lt;/position>
  &lt;content line-spacing="0" shadow="0;#64000000;3;3;3" font-underline="0" box-height="93" font-outline-color="97,53,131,255" font="文泉驿微米黑" letter-spacing="0" font-pixel-size="79" font-italic="0" typewriter="1;8;2;0;0" alignment="2" font-weight="50" font-outline="0" box-width="639" font-color="230,97,0,255">『	下	里	巴		人	?	』&lt;/content>
 &lt;/item>
 &lt;startviewport rect="0,0,1280,720"/>
 &lt;endviewport rect="0,0,1280,720"/>
 &lt;background color="0,0,0,0"/>
&lt;/kdenlivetitle>
</property>
  <property name="kdenlive:folderid">20</property>
  <property name="kdenlive:id">45</property>
  <property name="force_reload">0</property>
  <property name="global_feed">1</property>
  <property name="kdenlive:file_hash">574ea24ec30bec7d884171d7fff284fe</property>
  <property name="meta.media.width">1280</property>
  <property name="meta.media.height">720</property>
 </producer>
 <producer id="producer40" in="00:00:00.000" out="00:00:07.267">
  <property name="length">219</property>
  <property name="eof">pause</property>
  <property name="resource">/home/duangsuse/Downloads/Screenshot 2021-08-07 at 00-20-01 虚拟机随谈（一）：解释器，树遍历解释器，基于栈与基于寄存器，大杂烩 - Script Ahead, Code Behind - ITeye博客.png</property>
  <property name="ttl">25</property>
  <property name="aspect_ratio">1</property>
  <property name="progressive">1</property>
  <property name="seekable">1</property>
  <property name="meta.media.width">859</property>
  <property name="meta.media.height">1134</property>
  <property name="mlt_service">qimage</property>
  <property name="kdenlive:clipname"/>
  <property name="kdenlive:duration">00:00:05.000</property>
  <property name="kdenlive:folderid">37</property>
  <property name="kdenlive:id">46</property>
  <property name="kdenlive:file_size">272173</property>
  <property name="kdenlive:file_hash">537aa09346ee937dede7ee4a91c4a9b9</property>
 </producer>
 <producer id="producer41" in="00:00:00.000" out="00:00:06.467">
  <property name="length">195</property>
  <property name="eof">pause</property>
  <property name="resource">/home/duangsuse/Downloads/Screenshot 2021-08-07 at 07-13-59 Visitor Pattern 与 Finally Tagless：解决表达式问题.png</property>
  <property name="ttl">25</property>
  <property name="aspect_ratio">1</property>
  <property name="progressive">1</property>
  <property name="seekable">1</property>
  <property name="meta.media.width">690</property>
  <property name="meta.media.height">298</property>
  <property name="mlt_service">qimage</property>
  <property name="kdenlive:clipname"/>
  <property name="kdenlive:duration">00:00:05.000</property>
  <property name="kdenlive:folderid">23</property>
  <property name="kdenlive:id">47</property>
  <property name="kdenlive:file_size">56930</property>
  <property name="kdenlive:file_hash">5e3bc7535f44e221334e2d738beb6fc9</property>
 </producer>
 <producer id="producer42" in="00:00:00.000" out="00:00:06.467">
  <property name="length">195</property>
  <property name="eof">pause</property>
  <property name="resource">/home/duangsuse/Downloads/Screenshot 2021-08-07 at 07-11-58 Visitor Pattern 与 Finally Tagless：解决表达式问题.png</property>
  <property name="ttl">25</property>
  <property name="aspect_ratio">1</property>
  <property name="progressive">1</property>
  <property name="seekable">1</property>
  <property name="meta.media.width">690</property>
  <property name="meta.media.height">622</property>
  <property name="mlt_service">qimage</property>
  <property name="kdenlive:clipname"/>
  <property name="kdenlive:duration">00:00:05.000</property>
  <property name="kdenlive:folderid">23</property>
  <property name="kdenlive:id">48</property>
  <property name="kdenlive:file_size">131084</property>
  <property name="kdenlive:file_hash">6c7f04830384aaff4c984f6a33b64d14</property>
 </producer>
 <producer id="producer43" in="00:00:00.000" out="00:00:06.467">
  <property name="length">195</property>
  <property name="eof">pause</property>
  <property name="resource"/>
  <property name="progressive">1</property>
  <property name="aspect_ratio">1</property>
  <property name="seekable">1</property>
  <property name="mlt_service">kdenlivetitle</property>
  <property name="kdenlive:duration">150</property>
  <property name="kdenlive:clipname">『请自阅』</property>
  <property name="xmldata">&lt;kdenlivetitle duration="150" LC_NUMERIC="C" width="1280" height="720" out="149">
 &lt;item type="QGraphicsTextItem" z-index="0">
  &lt;position x="806" y="28">
   &lt;transform>1,0,0,0,1,0,0,0,1&lt;/transform>
  &lt;/position>
  &lt;content line-spacing="0" shadow="0;#64000000;3;3;3" font-underline="0" box-height="117" font="文泉驿微米黑" letter-spacing="0" font-pixel-size="99" font-italic="0" typewriter="0;2;1;0;0" alignment="2" font-weight="50" gradient="#ff613583;#ff204a87;70;100;90" box-width="495" font-color="0,0,0,255">『请自阅』&lt;/content>
 &lt;/item>
 &lt;startviewport rect="0,0,1280,720"/>
 &lt;endviewport rect="0,0,1280,720"/>
 &lt;background color="0,0,0,0"/>
&lt;/kdenlivetitle>
</property>
  <property name="kdenlive:folderid">20</property>
  <property name="kdenlive:id">49</property>
  <property name="force_reload">0</property>
  <property name="global_feed">1</property>
  <property name="kdenlive:file_hash">fc07802bdacb8977c50f21d22e9ad857</property>
  <property name="meta.media.width">1280</property>
  <property name="meta.media.height">720</property>
 </producer>
 <producer id="producer44" in="00:00:00.000" out="00:00:04.967">
  <property name="length">00:00:05.000</property>
  <property name="eof">pause</property>
  <property name="resource">/home/duangsuse/Downloads/Screenshot 2021-08-07 at 01-08-16 小白详解 Trie 树.png</property>
  <property name="ttl">25</property>
  <property name="aspect_ratio">1</property>
  <property name="progressive">1</property>
  <property name="seekable">1</property>
  <property name="meta.media.width">730</property>
  <property name="meta.media.height">1000</property>
  <property name="mlt_service">qimage</property>
  <property name="kdenlive:clipname"/>
  <property name="kdenlive:duration">00:00:05.000</property>
  <property name="kdenlive:folderid">20</property>
  <property name="kdenlive:id">50</property>
  <property name="kdenlive:file_size">222722</property>
  <property name="kdenlive:file_hash">af3105edbebce514d0dcaf02a912582b</property>
 </producer>
 <producer id="producer45" in="00:00:00.000" out="00:00:04.967">
  <property name="length">00:00:05.000</property>
  <property name="eof">pause</property>
  <property name="resource">/home/duangsuse/Documents/910566f36edac88a64d356de787459ac.png</property>
  <property name="ttl">25</property>
  <property name="aspect_ratio">1</property>
  <property name="progressive">1</property>
  <property name="seekable">1</property>
  <property name="meta.media.width">650</property>
  <property name="meta.media.height">616</property>
  <property name="mlt_service">qimage</property>
  <property name="kdenlive:clipname"/>
  <property name="kdenlive:duration">00:00:05.000</property>
  <property name="kdenlive:folderid">23</property>
  <property name="kdenlive:id">51</property>
  <property name="kdenlive:file_size">52992</property>
  <property name="kdenlive:file_hash">57fee4ba52d6e9a9616ff516b521b5ba</property>
 </producer>
 <producer id="producer46" in="00:00:00.000" out="00:00:04.967">
  <property name="length">00:00:05.000</property>
  <property name="eof">pause</property>
  <property name="resource">/home/duangsuse/Documents/演员/冗长空洞却美丽.jpg</property>
  <property name="ttl">25</property>
  <property name="aspect_ratio">1</property>
  <property name="progressive">1</property>
  <property name="seekable">1</property>
  <property name="meta.media.width">1024</property>
  <property name="meta.media.height">607</property>
  <property name="mlt_service">qimage</property>
  <property name="kdenlive:clipname"/>
  <property name="kdenlive:duration">00:00:05.000</property>
  <property name="kdenlive:folderid">23</property>
  <property name="kdenlive:id">52</property>
  <property name="kdenlive:file_size">163443</property>
  <property name="kdenlive:file_hash">e39b34a852d6ad6bc7645506ddd5e989</property>
 </producer>
 <producer id="producer32" in="00:00:00.000" out="00:00:11.267">
  <property name="length">339</property>
  <property name="eof">pause</property>
  <property name="resource"/>
  <property name="progressive">1</property>
  <property name="aspect_ratio">1</property>
  <property name="seekable">1</property>
  <property name="mlt_service">kdenlivetitle</property>
  <property name="kdenlive:duration">150</property>
  <property name="kdenlive:clipname">《 不明 觉历 》</property>
  <property name="xmldata">&lt;kdenlivetitle duration="150" LC_NUMERIC="C" width="1280" height="720" out="149">
 &lt;item type="QGraphicsTextItem" z-index="2">
  &lt;position x="277" y="300">
   &lt;transform>1,0,0,0,1,0,0,0,1&lt;/transform>
  &lt;/position>
  &lt;content line-spacing="0" shadow="1;#64000000;32;3;3" font-underline="0" box-height="288" font="文泉驿微米黑" letter-spacing="0" font-pixel-size="123" font-italic="0" typewriter="1;11;2;0;0" alignment="2" font-weight="50" gradient="#ff613583;#ffe01b24;70;100;61" box-width="926" font-color="0,0,0,255">《	不明	觉历	》
&lt;/content>
 &lt;/item>
 &lt;startviewport rect="0,0,1280,720"/>
 &lt;endviewport rect="0,0,1280,720"/>
 &lt;background color="0,0,0,0"/>
&lt;/kdenlivetitle>
</property>
  <property name="kdenlive:folderid">20</property>
  <property name="kdenlive:id">53</property>
  <property name="force_reload">0</property>
  <property name="global_feed">1</property>
  <property name="kdenlive:file_hash">a67d0e0c9cb27eb59d7e92c83fd53da8</property>
  <property name="meta.media.width">1280</property>
  <property name="meta.media.height">720</property>
 </producer>
 <producer id="producer48" in="00:00:00.000" out="00:00:04.967">
  <property name="length">00:00:05.000</property>
  <property name="eof">pause</property>
  <property name="resource">/home/duangsuse/Downloads/Screenshot 2021-08-07 at 02-14-33 JavaScript 函数式编程（三）- B.png</property>
  <property name="ttl">25</property>
  <property name="aspect_ratio">1</property>
  <property name="progressive">1</property>
  <property name="seekable">1</property>
  <property name="meta.media.width">756</property>
  <property name="meta.media.height">975</property>
  <property name="mlt_service">qimage</property>
  <property name="kdenlive:clipname"/>
  <property name="kdenlive:duration">00:00:05.000</property>
  <property name="kdenlive:folderid">37</property>
  <property name="kdenlive:id">54</property>
  <property name="kdenlive:file_size">105531</property>
  <property name="kdenlive:file_hash">697fc8b4abbc839a53ca697104dfc37d</property>
 </producer>
 <producer id="producer49" in="00:00:00.000" out="00:00:04.967">
  <property name="length">150</property>
  <property name="eof">pause</property>
  <property name="resource"/>
  <property name="progressive">1</property>
  <property name="aspect_ratio">1</property>
  <property name="seekable">1</property>
  <property name="mlt_service">kdenlivetitle</property>
  <property name="kdenlive:duration">150</property>
  <property name="kdenlive:clipname">好的程序直观反映它所操纵...</property>
  <property name="xmldata">&lt;kdenlivetitle duration="150" LC_NUMERIC="C" width="1280" height="720" out="149">
 &lt;item type="QGraphicsTextItem" z-index="0">
  &lt;position x="190" y="242">
   &lt;transform>1,0,0,0,1,0,0,0,1&lt;/transform>
  &lt;/position>
  &lt;content line-spacing="0" shadow="0;#64000000;3;3;3" font-underline="0" box-height="236" font="文泉驿微米黑" letter-spacing="0" font-pixel-size="50" font-italic="0" typewriter="0;1;2;0;0" alignment="2" font-weight="50" box-width="900" font-color="255,255,255,255">好的程序直观反映它所操纵数据的结构

好的文章直观反映问题之领域的数据模型
和其上算法的必要性&lt;/content>
 &lt;/item>
 &lt;startviewport rect="0,0,1280,720"/>
 &lt;endviewport rect="0,0,1280,720"/>
 &lt;background color="0,0,0,0"/>
&lt;/kdenlivetitle>
</property>
  <property name="kdenlive:folderid">56</property>
  <property name="kdenlive:id">55</property>
  <property name="kdenlive:file_hash">318e7bf5ac09dfdf8cfc024abf227528</property>
  <property name="force_reload">0</property>
  <property name="meta.media.width">1280</property>
  <property name="meta.media.height">720</property>
  <property name="global_feed">1</property>
 </producer>
 <producer id="producer50" in="00:00:00.000" out="00:00:09.033">
  <property name="length">272</property>
  <property name="eof">pause</property>
  <property name="resource"/>
  <property name="progressive">1</property>
  <property name="aspect_ratio">1</property>
  <property name="seekable">1</property>
  <property name="mlt_service">kdenlivetitle</property>
  <property name="kdenlive:duration">150</property>
  <property name="kdenlive:clipname">不是简洁便优美，也不是冗...</property>
  <property name="xmldata">&lt;kdenlivetitle duration="150" LC_NUMERIC="C" width="1280" height="720" out="149">
 &lt;item type="QGraphicsTextItem" z-index="0">
  &lt;position x="36" y="67">
   &lt;transform>1,0,0,0,1,0,0,0,1&lt;/transform>
  &lt;/position>
  &lt;content line-spacing="0" shadow="0;#64000000;3;3;3" font-underline="0" box-height="649" font="文泉驿微米黑" letter-spacing="0" font-pixel-size="50" font-italic="0" typewriter="1;15;2;0;0" alignment="1" font-weight="50" box-width="1170" font-color="255,255,255,255">不是简洁便优美，也不是冗长就易懂；
不是学术便完胜，	也不是死板就高性能	。

对问题的好奇没有高低，	
对答案的渴求	却总受对他人及知识之傲慢的敌意	。
同一个问题有不同说法也有不同解法	，

无所谓天才或凡人，	
找到心中最富于表现的答案，	
才是语言最诚实的答案	。
&lt;/content>
 &lt;/item>
 &lt;startviewport rect="0,0,1280,720"/>
 &lt;endviewport rect="0,0,1280,720"/>
 &lt;background color="0,0,0,0"/>
&lt;/kdenlivetitle>
</property>
  <property name="kdenlive:folderid">56</property>
  <property name="kdenlive:id">57</property>
  <property name="force_reload">0</property>
  <property name="global_feed">1</property>
  <property name="kdenlive:file_hash">ebde6d947b143be0366d857c01a9a5f1</property>
  <property name="meta.media.width">1280</property>
  <property name="meta.media.height">720</property>
 </producer>
 <producer id="producer47" in="00:00:00.000" out="00:00:14.367">
  <property name="length">432</property>
  <property name="eof">pause</property>
  <property name="resource"/>
  <property name="progressive">1</property>
  <property name="aspect_ratio">1</property>
  <property name="seekable">1</property>
  <property name="mlt_service">kdenlivetitle</property>
  <property name="kdenlive:duration">150</property>
  <property name="kdenlive:clipname">我从来不需要向别人证明我...</property>
  <property name="xmldata">&lt;kdenlivetitle duration="150" LC_NUMERIC="C" width="1280" height="720" out="149">
 &lt;item type="QGraphicsTextItem" z-index="1">
  &lt;position x="225" y="306">
   &lt;transform>1,0,0,0,1,0,0,0,1&lt;/transform>
  &lt;/position>
  &lt;content shadow="0;#64000000;3;3;3" font-underline="0" box-height="354" font="文泉驿微米黑" letter-spacing="0" font-pixel-size="50" font-italic="0" typewriter="0;2;1;0;0" alignment="2" font-weight="50" box-width="1050" font-color="255,255,255,255">我没有那么无私；我丝毫不在乎旁人，
只因为它是美丽而自由的，
而愿意让它为更多人看见、带来更多可能，
不在编程中显山露水，只是命名的语义到位，
在它没有偏见与名誉的世界里，一切都刚刚好；
毕竟喜欢是放纵，而爱是克制。&lt;/content>
 &lt;/item>
 &lt;item type="QGraphicsTextItem" z-index="0">
  &lt;position x="16" y="20">
   &lt;transform>1,0,0,0,1,0,0,0,1&lt;/transform>
  &lt;/position>
  &lt;content shadow="0;#64000000;3;3;3" font-underline="0" box-height="295" font="文泉驿微米黑" letter-spacing="0" font-pixel-size="50" font-italic="0" typewriter="0;2;1;0;0" alignment="2" font-weight="50" box-width="900" font-color="255,255,255,255">我从来不需要向别人证明我爱这些东西，
需要证明的爱都不够纯粹。
我从来不暗示自己明白过，
也一直努力提取出更洁白的它们。
&lt;/content>
 &lt;/item>
 &lt;startviewport rect="-0.146692,-614.054,1280,720"/>
 &lt;endviewport rect="0,0,1280,720"/>
 &lt;background color="0,0,0,0"/>
&lt;/kdenlivetitle>
</property>
  <property name="kdenlive:folderid">56</property>
  <property name="kdenlive:id">58</property>
  <property name="kdenlive:file_hash">c12846de229a6229249323f78e2819cc</property>
  <property name="force_reload">0</property>
  <property name="meta.media.width">1280</property>
  <property name="meta.media.height">720</property>
 </producer>
 <producer id="producer51" in="00:00:00.000" out="00:00:04.967">
  <property name="length">150</property>
  <property name="eof">pause</property>
  <property name="resource"/>
  <property name="progressive">1</property>
  <property name="aspect_ratio">1</property>
  <property name="seekable">1</property>
  <property name="mlt_service">kdenlivetitle</property>
  <property name="kdenlive:duration">150</property>
  <property name="kdenlive:clipname">@Override 只是...</property>
  <property name="xmldata">&lt;kdenlivetitle duration="150" LC_NUMERIC="C" width="1280" height="720" out="149">
 &lt;item type="QGraphicsTextItem" z-index="0">
  &lt;position x="6" y="-3">
   &lt;transform>1,0,0,0,1,0,0,0,1&lt;/transform>
  &lt;/position>
  &lt;content line-spacing="0" shadow="0;#64000000;3;3;3" font-underline="0" box-height="714" font="文泉驿微米黑" letter-spacing="0" font-pixel-size="29" font-italic="0" typewriter="0;2;1;0;0" alignment="1" font-weight="50" box-width="1268.34" font-color="255,255,255,255">@Override 只是注解处理程序(javax.annotation._Proc_or.process(env,elements))的覆盖检查
new T(){} 会创建一个能以构造器&amp;amp;字段闭包住局部量的匿名子类，但包量不可变
printf("",...) 和 cout&amp;lt;&amp;lt;""&amp;lt;&amp;lt;"" 只是对函数、ostream 对象上 operator&amp;lt;&amp;lt; 中缀函数的调用，不叫语法
使用不常见的语法实现目的并不能令程序变快，但它着实会使程序更难懂、更难移植和重构
C 意义堆上分配是 (T)malloc(sizeof T)/new 靠free/delete撤回、栈上分配参数和局部量随返回丢弃，
Java无谓亦不需=null ，但不应把短生命周期的 Object 存在 class/static 级，可用 WeakRef

先学严格异步的 JS/DOM 比先学基于 os.Handler 队列主循环视图更新任务的 Andr_ 更简单，易配置
DOM 视图主节点模型 text|(tag attr* child*) 后者称 Element ，具 style 属性和 inner_ ，
Qt,GTK,Py Tk,android.view 的模型与之类似，但 A_ 需 ctx 参数、Tk/Qt 需父节点参数；

面向对象(OOP)的 class 不如称 thing, 代表一组名词信息量上能有的动(方法)名(属性)词集
static 成员(名动词)是 class 1:1 伴生对象单实例的成员，就像 Ruby/Py 的 class 属 metaclass 类型的
单实例，final 量不可重赋值,成员不可再定
子程序提升一级就是 class ，参数变属性(=更规范的“字段”=名词)，单抽象方法即 SAM
lambda 和 invokedynamic 没关系，也可用反射 Method invoke 代替，
只是顺带性方便了N参 lam 接口实例的创建

反射是按编译期?名称访问动名词，代理是把某些调用带参数移交至不同主语或整体覆盖
函数式(FP)的闭包是能将 (k=> _=>k)(1)() k值带出外部 k=> 函数的函数值
OOP的对象相当于可分段执行的 FP的函数闭包 (n=>{get:x=>x-n}).send(:get, 1)&lt;/content>
 &lt;/item>
 &lt;startviewport rect="0,0,1280,720"/>
 &lt;endviewport rect="0,0,1280,720"/>
 &lt;background color="0,0,0,0"/>
&lt;/kdenlivetitle>
</property>
  <property name="kdenlive:folderid">60</property>
  <property name="kdenlive:id">59</property>
  <property name="kdenlive:file_hash">945890832c6b090cf38daf82bc4dc441</property>
  <property name="force_reload">0</property>
  <property name="meta.media.width">1280</property>
  <property name="meta.media.height">720</property>
 </producer>
 <producer id="producer52" in="00:00:00.000" out="00:00:04.967">
  <property name="length">150</property>
  <property name="eof">pause</property>
  <property name="resource"/>
  <property name="progressive">1</property>
  <property name="aspect_ratio">1</property>
  <property name="seekable">1</property>
  <property name="mlt_service">kdenlivetitle</property>
  <property name="kdenlive:duration">150</property>
  <property name="kdenlive:clipname">ES6,Kt `${1}...</property>
  <property name="xmldata">&lt;kdenlivetitle duration="150" LC_NUMERIC="C" width="1280" height="720" out="149">
 &lt;item type="QGraphicsTextItem" z-index="0">
  &lt;position x="31" y="22">
   &lt;transform>1,0,0,0,1,0,0,0,1&lt;/transform>
  &lt;/position>
  &lt;content line-spacing="0" shadow="0;#64000000;3;3;3" font-underline="0" box-height="756" font="文泉驿微米黑" letter-spacing="0" font-pixel-size="31" font-italic="0" typewriter="0;2;1;0;0" alignment="1" font-weight="50" box-width="1259.41" font-color="255,255,255,255">ES6,Kt `${1}` 字串内插(interpolat-ion)是多参的特殊表达式，同理 Py f"{}", Rb "#{}", C# $"{}"
纯函数式和函数式没有任何关系、纯函数式也不是定义式编程/数据&amp;amp;动作绑定的必须品，
它只是数学范畴-映射思维方法带入编程，本不需实机求值

JS 支持set的Interval周期和Timeout定时器支持省略时差参数、
剪贴板用 inp.select&amp;amp;doc.execCmd copy 命令写 onpaste.data 读、
下载链接通过 URL._ObjectURL 从 Blob(mime,bufs) 创建、
图片通过 FileReader DataURL(mime) 读取、
富文本编辑器通过 iframe>body[ContentEditable] 属性
和 doc.selection.getRangeAt(0) 裁剪编辑，内拖拽也
易 draggable&amp;amp;ondragend(path[0]) 实现；
低层次优先滑动切换是利用事件冒泡(未ev.stopPropa_)通知所有父节点，
addEv_ 的参三是 isCapture 反向冒泡=捕获序，这都不是魔法也本不需专门引入框架。

构造器一般为超类(实例是超集)优先固不应访问能被子类覆盖的虚成员(未调子构造器)，
Rb Py JS 都有 allocate/new; new(cls)/__init__; Object()/T.call(self) 的分配-初始化过程，
JS 的实例/构造函数(o.constr_)都有 __proto__ 指向父层成员表直至 Obj_.prototype 表，
每个函数都可有 prototype 成员表与 constr_是它的o，Lua 利用 __get 钩函数也兼容原型链；
这些动态语言的对象较类似 K-V 表，灵活但默认效能低，适合低计算密集任务

&lt;/content>
 &lt;/item>
 &lt;startviewport rect="0,0,1280,720"/>
 &lt;endviewport rect="0,0,1280,720"/>
 &lt;background color="0,0,0,0"/>
&lt;/kdenlivetitle>
</property>
  <property name="kdenlive:folderid">60</property>
  <property name="kdenlive:id">61</property>
  <property name="kdenlive:file_hash">18421a1f6f3e1c88d7a0b8b931da64f2</property>
  <property name="force_reload">0</property>
  <property name="meta.media.width">1280</property>
  <property name="meta.media.height">720</property>
 </producer>
 <producer id="producer53" in="00:00:00.000" out="00:00:04.967">
  <property name="length">150</property>
  <property name="eof">pause</property>
  <property name="resource"/>
  <property name="progressive">1</property>
  <property name="aspect_ratio">1</property>
  <property name="seekable">1</property>
  <property name="mlt_service">kdenlivetitle</property>
  <property name="kdenlive:duration">150</property>
  <property name="kdenlive:clipname">二维数组索引 a[i][...</property>
  <property name="xmldata">&lt;kdenlivetitle duration="150" LC_NUMERIC="C" width="1280" height="720" out="149">
 &lt;item type="QGraphicsTextItem" z-index="0">
  &lt;position x="30" y="36">
   &lt;transform>1,0,0,0,1,0,0,0,1&lt;/transform>
  &lt;/position>
  &lt;content line-spacing="0" shadow="0;#64000000;3;3;3" font-underline="0" box-height="648" font-outline-color="97,53,131,255" font="文泉驿微米黑" letter-spacing="0" font-pixel-size="31" font-italic="1" typewriter="0;2;1;0;0" alignment="1" font-weight="50" font-outline="0" box-width="1280.42" font-color="255,255,255,255">二维数组索引 a[i][j] 其中 i&amp;lt;n, j&amp;lt;m ；分配时a长 n,内每项长 m ，i竖j横行；
亦可以连续地址 n*m 的方式 a[i*m+j] 表示，行含多格(非“列”)；
若在位图/终端处理时无所适从，试试 a[y][x] 行号优先顺序！

链表和数组都是列表的实现方法，链 {x,xs} 到 xs=null 止，
push:ll={x,ll};数组 push:if(realloc改变)copy旧值; a[N-1]=x; 
故其取置更快，而链表更能利用零散内存且简单

字串"" 是字符的数组(len_,[i],slice)通用可互化，字符是字符集(ASCII,Unicode,GBK..)内的编号，
编码是字串的二进制等价形式如 ASCII-8bit,UTF-8 ；字符串s==s1是低开销操作，
 s=s+s1 高费因要创建新不可变&amp;amp;单实例字串，请StringBuilder

广度搜索 BFS 是依赖关系管理器必备算法，若不是树形(有子->父 的环)则需检查集合已存?，
深先搜索 DFS 可用于处理文件树，每层子项都加上层名即回溯完整路径

冷知识：名词再高端也没意义，涵义才有意义，可以随便换；
语言再噱头也没意义，语义才是意义，可以随便换；只要你不怕别人不会
&lt;/content>
 &lt;/item>
 &lt;startviewport rect="0,0,1280,720"/>
 &lt;endviewport rect="0,0,1280,720"/>
 &lt;background color="0,0,0,0"/>
&lt;/kdenlivetitle>
</property>
  <property name="kdenlive:folderid">60</property>
  <property name="kdenlive:id">62</property>
  <property name="kdenlive:file_hash">50d1190aab77399424389b99ed4b662b</property>
  <property name="force_reload">0</property>
  <property name="meta.media.width">1280</property>
  <property name="meta.media.height">720</property>
 </producer>
 <producer id="producer54" in="00:00:00.000" out="00:00:04.967">
  <property name="length">150</property>
  <property name="eof">pause</property>
  <property name="resource"/>
  <property name="progressive">1</property>
  <property name="aspect_ratio">1</property>
  <property name="seekable">1</property>
  <property name="mlt_service">kdenlivetitle</property>
  <property name="kdenlive:duration">150</property>
  <property name="kdenlive:clipname">二分查找在 Py 上有二...</property>
  <property name="xmldata">&lt;kdenlivetitle duration="150" LC_NUMERIC="C" width="1280" height="720" out="149">
 &lt;item type="QGraphicsTextItem" z-index="0">
  &lt;position x="97" y="4">
   &lt;transform>1,0,0,0,1,0,0,0,1&lt;/transform>
  &lt;/position>
  &lt;content line-spacing="0" shadow="0;#64000000;3;3;3" font-underline="0" box-height="684" font="文泉驿微米黑" letter-spacing="0" font-pixel-size="31" font-italic="0" typewriter="0;2;1;0;0" alignment="1" font-weight="50" box-width="1085.73" font-color="255,255,255,255">二分查找在 Py 上有二分法封装: bisect([1,5],2)==1 ，
自然序即升序0小先、逆序即降序大先
列表 a.insert(i,x) 即JS a.splice(i,0,x)==[] 后 a[i]==x (右插)

递归程序或许对数据的某部分应用自身，直至基线条件 如 f(n) n=0? 0: f(n-1)+1
每层(包含顶层)按子项结果得到自身结果；
递归结构如 自然数=0|自然数+1 "无值链表"，不要滥用递归可读性变差。

快速排序把列表按中点分为 &amp;lt;中, >=中 两部分递归，单项即停止；
快排一次能整合多项，便于子列表排序，其总移动量*最多递归层数 O(n*log2 n)
冒泡排序认定 i1 右侧是有序部分，寻找0~i1间的更大者交换、
选择排序是用删除+新列表的冒泡皆 O(sum(1~n)*n)；请不要手写不会更快

图建模为 d:Map&amp;lt;T, Set&amp;lt;加权? Pair&amp;lt;Int,T> : T>>， 
d.keys 是根节点集， d[k] 是(边->下点)集；或可有 hasWalk 记录是否走过
Dijkstra 狄图算法在带权图上找到权重和最低径，从权
和=0 p0点开始轻优先，记录所有点的[当下已知]最轻前点&amp;amp;其权和，
故未知前点=不直接可达不得优先，走遍后从任意 p-p0 可回溯最短路径；
先搜索到的最短子径是确定的，不能有负权边。&lt;/content>
 &lt;/item>
 &lt;startviewport rect="0,0,1280,720"/>
 &lt;endviewport rect="0,0,1280,720"/>
 &lt;background color="0,0,0,0"/>
&lt;/kdenlivetitle>
</property>
  <property name="kdenlive:folderid">60</property>
  <property name="kdenlive:id">63</property>
  <property name="kdenlive:file_hash">9aa7f636bf36c81a96348c8ef0f42ae0</property>
  <property name="force_reload">0</property>
  <property name="meta.media.width">1280</property>
  <property name="meta.media.height">720</property>
 </producer>
 <producer id="producer55" in="00:00:00.000" out="00:00:04.967">
  <property name="length">150</property>
  <property name="eof">pause</property>
  <property name="resource"/>
  <property name="progressive">1</property>
  <property name="aspect_ratio">1</property>
  <property name="seekable">1</property>
  <property name="mlt_service">kdenlivetitle</property>
  <property name="kdenlive:duration">150</property>
  <property name="kdenlive:clipname">UnionFind 并查...</property>
  <property name="xmldata">&lt;kdenlivetitle duration="150" LC_NUMERIC="C" width="1280" height="720" out="149">
 &lt;item type="QGraphicsTextItem" z-index="0">
  &lt;position x="28" y="178">
   &lt;transform>1,0,0,0,1,0,0,0,1&lt;/transform>
  &lt;/position>
  &lt;content line-spacing="0" shadow="0;#64000000;3;3;3" font-underline="0" box-height="396" font="文泉驿微米黑" letter-spacing="0" font-pixel-size="31" font-italic="0" typewriter="0;2;1;0;0" alignment="1" font-weight="50" box-width="1234.8" font-color="255,255,255,255">UnionFind 并查集利用数组状表(K=V=Int)构造/检查树形传递性关系，
k最初与自己关联，若 merg(k,a) 则 k 与最大(顶父节点)的 a 关联；
如 1-2, 2-5 时先连2,后能通过2连5(可顺便把k改成5,未来只需共通5即与己关联)；
 merg(a,b) 俩都是此种 a=b=c 传递&amp;amp;交换律链。

DP 动态编程类似参数缓存优化的递归(咱也没学过不敢乱说)

简单子串搜索 (s,ss)=>(0~n(s)-n(ss)).find(i=>s.startsWith(ss,/*at*/i)) 如 ss="a" 区间=(0~N-1)
常用归纳 "汤姆,杰瑞".split().reduce((q,k)=>q||"正常文本".indexOf(k)!=-1, false) 
是 || false a.some=any 存在命题的简单实现； &amp;amp;&amp;amp; true 则是 .every=all 的
&lt;/content>
 &lt;/item>
 &lt;startviewport rect="0,0,1280,720"/>
 &lt;endviewport rect="0,0,1280,720"/>
 &lt;background color="0,0,0,0"/>
&lt;/kdenlivetitle>
</property>
  <property name="kdenlive:folderid">60</property>
  <property name="kdenlive:id">64</property>
  <property name="kdenlive:file_hash">b2a99469b54eedb56fd2fda0576a3ce0</property>
  <property name="force_reload">0</property>
  <property name="meta.media.width">1280</property>
  <property name="meta.media.height">720</property>
 </producer>
 <producer id="producer56" in="00:00:00.000" out="00:00:04.967">
  <property name="length">150</property>
  <property name="eof">pause</property>
  <property name="resource"/>
  <property name="progressive">1</property>
  <property name="aspect_ratio">1</property>
  <property name="seekable">1</property>
  <property name="mlt_service">kdenlivetitle</property>
  <property name="kdenlive:duration">150</property>
  <property name="kdenlive:clipname">编译原理和二进制序列化、...</property>
  <property name="xmldata">&lt;kdenlivetitle duration="150" LC_NUMERIC="C" width="1280" height="720" out="149">
 &lt;item type="QGraphicsTextItem" z-index="0">
  &lt;position x="53" y="20">
   &lt;transform>1,0,0,0,1,0,0,0,1&lt;/transform>
  &lt;/position>
  &lt;content line-spacing="0" shadow="0;#64000000;3;3;3" font-underline="0" box-height="756" font="文泉驿微米黑" letter-spacing="0" font-pixel-size="31" font-italic="0" typewriter="0;2;1;0;0" alignment="1" font-weight="50" box-width="1185.58" font-color="255,255,255,255">编译原理和二进制序列化、虚拟机、词法分析没有硬关系，编译只是按上下文
令树转化的普通子程序，解释器/编译器+虚拟机 两者有大量重叠(读写/参数编号化)代码

作用域是符号->值/编译期定义的层叠、可变映射，可用全复制、
K->栈&amp;lt;V>、栈&amp;lt;名值表>、栈&amp;lt;K旧值表>+全局表(首末项皆常见) 实现
词法域是编译期对动态域(i号参数?局部量?外部函数量?k名全局量?)
名字的定义位置细分，支撑带数据程序闭包创建

调用求值序：传值(=应用序)、惰性(传名)、表达式(C宏)
数组、具名?元组(=record=dataclass=struct)都是积类型(可能性总和是乘法每项,即全部)
但具名不以编号索引、数组不允不同类项；和类型(可能性总和是加法每项,即任一)是
带 tag(=type) 的规范 union；enum 是const定义+新建类型的特殊写法

类型推导是把关于某&amp;lt;T>的所有供需处(实参类型 Box&amp;lt;Int>、
形参需求 Box&amp;lt;T>,f:T->R 等)信息相等归一，失败则不通过
DFA 自动机是前缀树广度搜索，前缀树(=Trie)是 List&amp;lt;K>至K,..末K 嵌套表
(似文件树 cd,mkdir-p;touch V.txt)，NFA 不可判状态机是多转移规则的 DFA 前身，
 其本身是 Trie 的编号化，正则匹配也不一定要明显用它实现


&lt;/content>
 &lt;/item>
 &lt;startviewport rect="0,0,1280,720"/>
 &lt;endviewport rect="0,0,1280,720"/>
 &lt;background color="0,0,0,0"/>
&lt;/kdenlivetitle>
</property>
  <property name="kdenlive:folderid">60</property>
  <property name="kdenlive:id">65</property>
  <property name="kdenlive:file_hash">966f5ea0d1a26b15f5cef1408b6eccae</property>
  <property name="force_reload">0</property>
  <property name="meta.media.width">1280</property>
  <property name="meta.media.height">720</property>
 </producer>
 <producer id="producer57" in="00:00:00.000" out="00:00:04.967">
  <property name="length">150</property>
  <property name="eof">pause</property>
  <property name="resource"/>
  <property name="progressive">1</property>
  <property name="aspect_ratio">1</property>
  <property name="seekable">1</property>
  <property name="mlt_service">kdenlivetitle</property>
  <property name="kdenlive:duration">150</property>
  <property name="kdenlive:clipname">组合子是以闭包组成的树，...</property>
  <property name="xmldata">&lt;kdenlivetitle duration="150" LC_NUMERIC="C" width="1280" height="720" out="149">
 &lt;item type="QGraphicsTextItem" z-index="0">
  &lt;position x="11" y="33">
   &lt;transform>1,0,0,0,1,0,0,0,1&lt;/transform>
  &lt;/position>
  &lt;content line-spacing="0" shadow="0;#64000000;3;3;3" font-underline="0" box-height="720" font="文泉驿微米黑" letter-spacing="0" font-pixel-size="31" font-italic="0" typewriter="0;2;1;0;0" alignment="1" font-weight="50" box-width="1271.63" font-color="255,255,255,255">组合子是以闭包组成的树，可进行后序遍历；(0+1)+2 可化为 f('+',f('+',f(0) 判
闭包住的参数，看情况递归?求值

CPS是不返回编程-只靠回调调用某函数，这样它就能自主决定下步操作是否执行；CPS 类
似 Promise 能实现异步与异常级联返回(因为本来就没调用)，也能优化为不耗栈带返回编程
Continuation 是程序下一步路径作为值，一般由闭包+指令指针/树路径构成或以状态机模拟，
平行协程是必须提供创建方引用才能 yield 给它的无上下级协程

尾递归优化TCO 是对任何情况都返回递归结果的函数的循环化，此种函数
递归=重赋值所有参数&amp;amp;跳到头部再来遍, Lua/Scheme 可支持

await/async 是利用协程yield时休眠实现- async程序yield收回调的操作给执行器，
执行器等待并把结果 next(v)给休眠程序即“片段化”要等返回的线型程序；
若不利用 next() 而共享变量仍可实现，
本质是异步回调知道 async 程序的下一步从何处继续，即 CPS 化async内的异步调用

关系式(=逻辑式)编程是面向关系为真的判断/推断/查询工具，主流有
 miniKanren.org, SWI?Prolog 二家族, Coq,Agda 逻辑成立性系统也同类

&lt;/content>
 &lt;/item>
 &lt;startviewport rect="0,0,1280,720"/>
 &lt;endviewport rect="0,0,1280,720"/>
 &lt;background color="0,0,0,0"/>
&lt;/kdenlivetitle>
</property>
  <property name="kdenlive:folderid">60</property>
  <property name="kdenlive:id">66</property>
  <property name="kdenlive:file_hash">bcacb233adede5bcb759c209500f9b81</property>
  <property name="force_reload">0</property>
  <property name="meta.media.width">1280</property>
  <property name="meta.media.height">720</property>
 </producer>
 <producer id="producer58" in="00:00:00.000" out="00:00:04.967">
  <property name="length">150</property>
  <property name="eof">pause</property>
  <property name="resource"/>
  <property name="progressive">1</property>
  <property name="aspect_ratio">1</property>
  <property name="seekable">1</property>
  <property name="mlt_service">kdenlivetitle</property>
  <property name="kdenlive:duration">150</property>
  <property name="kdenlive:clipname">mK 归一化 unifi...</property>
  <property name="xmldata">&lt;kdenlivetitle duration="150" LC_NUMERIC="C" width="1280" height="720" out="149">
 &lt;item type="QGraphicsTextItem" z-index="0">
  &lt;position x="14" y="17">
   &lt;transform>1,0,0,0,1,0,0,0,1&lt;/transform>
  &lt;/position>
  &lt;content line-spacing="0" shadow="0;#64000000;3;3;3" font-underline="0" box-height="684" font="文泉驿微米黑" letter-spacing="0" font-pixel-size="31" font-italic="0" typewriter="0;2;1;0;0" alignment="1" font-weight="50" box-width="1246.55" font-color="255,255,255,255">mK 归一化 unification 内变量是一种[1,x]=[1,2]上都可有的值，被unify(a,b)和grab(v)接受
用于解构&amp;amp;求解/从部分解回溯出完整解；输出结构可有性质故反函数有相等测试必要，
且 one/all(...ps) 的组合目标能从 ps bfs 出所有可能性

T1=Subtype of T 是T能兼容其T1、T1派生自T 的类型系统成分，T1有T的所有接口成分，
能覆写T成员的特性称为多态(=polymorphism,同名不同义)，它执行时要按真实类型判断，
类型签名重载(overload) 是无开销的编译期多态

类型A,B 的交集(&amp;amp;)是双方共同超类? 不对，那是 f(A|B) 共同&amp;amp;独有，如 Int|Float=Number，
而(+)即(&amp;amp;)是A,B中的子类或空集；类型的交并集不是成员集意义上，而是看实例数
x is A&amp;amp;B=isA&amp;amp;isB (垠王称|为^能被某飞喷了 贵圈傲乱)。

soundness 和 completeness 指检查器无假(无错,有错)，
即总是(能查错,能通过正常)输入 ，停机问题死循环亦属程序输入，故二者逻辑上不可兼具

lambda 演算是符号形式的规则，在 (Subst 变量名) (Abst 型参 体) (Apply abst 实参) 三基元
有 a-重命名和 b-归纳(执行) 操作，lam 的函数是柯里化(curry)多参->多次单参的，
喂参不够得函数值；Scheme 比它多个 (let[[a 1]] a) =((lam(a) a) 1) 及 1, "abc" 等实际符号，
和基元 Prim 的 Apply (+ a b) 实现&lt;/content>
 &lt;/item>
 &lt;startviewport rect="0,0,1280,720"/>
 &lt;endviewport rect="0,0,1280,720"/>
 &lt;background color="0,0,0,0"/>
&lt;/kdenlivetitle>
</property>
  <property name="kdenlive:folderid">60</property>
  <property name="kdenlive:id">67</property>
  <property name="kdenlive:file_hash">3ca3b492a749a904b2f16178d47f13af</property>
  <property name="force_reload">0</property>
  <property name="meta.media.width">1280</property>
  <property name="meta.media.height">720</property>
 </producer>
 <producer id="producer59" in="00:00:00.000" out="00:00:04.967">
  <property name="length">150</property>
  <property name="eof">pause</property>
  <property name="resource"/>
  <property name="progressive">1</property>
  <property name="aspect_ratio">1</property>
  <property name="seekable">1</property>
  <property name="mlt_service">kdenlivetitle</property>
  <property name="kdenlive:duration">150</property>
  <property name="kdenlive:clipname">纯函数式没有一个实用技巧...</property>
  <property name="xmldata">&lt;kdenlivetitle duration="150" LC_NUMERIC="C" width="1280" height="720" out="149">
 &lt;item type="QGraphicsTextItem" z-index="0">
  &lt;position x="5" y="62">
   &lt;transform>1,0,0,0,1,0,0,0,1&lt;/transform>
  &lt;/position>
  &lt;content line-spacing="0" shadow="0;#64000000;3;3;3" font-underline="0" box-height="608" font-outline-color="97,53,131,255" font="文泉驿微米黑" letter-spacing="0" font-pixel-size="27" font-italic="0" typewriter="0;2;1;0;0" alignment="1" font-weight="50" font-outline="0" box-width="1269" font-color="255,255,255,255">纯函数式没有一个实用技巧是普通函数式不能达到的。用自由的重赋值它易于实现更短且好的定义式框架，
纯函数式鼓吹的无副作用也只是限制副作用，若求值过程只是在纸上，也隐含着对「栈」的「操作」，
况且这是上世纪以来的电子计算机。与高性能相反，即便有解构、模式匹配等高级特性，它们既不直白也爱
滥用高开销的语言内部解构，反而有不少人执着于「高雅」，认为只要自己是，就比人高级，

哪怕在某些方面输了。或许有人智商高，但你为「表达」付出的精力越多，为「实质」所剩余的就越少
副作用存在于每个程序里——返回值是规范吗？C返回值只不过是被调向调用方共同知道的一个地方
写数据而已
C很不严谨，但这并不意味着它处处难用，实际它缺的不是约束而是更多语法糖，减少错误率有很多方法

范畴论的教程10个人眼里有10个版本，就是说这些人做科普很差。我见过科普能力最好的人
Grokking Monad 画了无数张图也没能讲明白常见范畴的层次关系，反而是自定义的JSer较有料，
说白了计算机工程和数学根本是两个领域，图形学和物理会更近一些，而OI算法往往是不实际的问题
——生活能遇到的问题少
这些都是场面话，专供不撞南墙不回头的萌新劝退，若你能把Java这些写出明确而不冗余的感觉，
纯函数式又有什么好？讲了这么多最终没搞清Monad范畴的箭头到底是什么，搞清就是基础数学上的事了
「数学和编程没有关系！编程和生活、举例技能关系最大」，
你所迷信的大佬，或许自己也是模仿，并不想背后的理论；
来应用编程，做好看的 App 它不比过于抽象的 Abst/Apply 香？&lt;/content>
 &lt;/item>
 &lt;startviewport rect="0,0,1280,720"/>
 &lt;endviewport rect="0,0,1280,720"/>
 &lt;background color="0,0,0,0"/>
&lt;/kdenlivetitle>
</property>
  <property name="kdenlive:folderid">60</property>
  <property name="kdenlive:id">68</property>
  <property name="kdenlive:file_hash">57e45c92e6a069c32af4337413658a7b</property>
  <property name="force_reload">0</property>
  <property name="meta.media.width">1280</property>
  <property name="meta.media.height">720</property>
 </producer>
 <producer id="producer60" in="00:00:00.000" out="00:00:04.967">
  <property name="length">150</property>
  <property name="eof">pause</property>
  <property name="resource"/>
  <property name="progressive">1</property>
  <property name="aspect_ratio">1</property>
  <property name="seekable">1</property>
  <property name="mlt_service">kdenlivetitle</property>
  <property name="kdenlive:duration">150</property>
  <property name="kdenlive:clipname">某说法：范畴是类型T，映...</property>
  <property name="xmldata">&lt;kdenlivetitle duration="150" LC_NUMERIC="C" width="1280" height="720" out="149">
 &lt;item type="QGraphicsTextItem" z-index="0">
  &lt;position x="7" y="-1">
   &lt;transform>1,0,0,0,1,0,0,0,1&lt;/transform>
  &lt;/position>
  &lt;content line-spacing="0" shadow="0;#64000000;3;3;3" font-underline="0" box-height="704" font="文泉驿微米黑" letter-spacing="0" font-pixel-size="27" font-italic="0" typewriter="0;2;1;0;0" alignment="1" font-weight="50" box-width="1265.27" font-color="255,255,255,255">某说法：范畴是类型T，映射是 T->R 的范畴间(图论)箭头；凡是有 fEach=(map f::a->b)
::(List a->List b) 即把 *(=任何类型)范畴的箭头映射到 List 范畴的箭头的T都是范畴；
箭头可以组合(祖母=母.父)，  Hs 的(a+b)计算不动点是 (0+)=(id::a->a) ，
否则 ((N-1)+) =(+1).(N+) ，即 (1+1)=(+1).id 1 ，
"移动1"的标准版: (a+0)a,(a+(N-1)) (a+1)+N ，故计算可用箭头组合描述

Monad 是指 monoid-含幺(音yao1, 1于*,0于+, =单位元)群上的群(IO,Maybe,Either a 等都是) ，
逻辑约束 广义群(f,a b c:T)=f(f(a,b),c) 有效即 f:(T,T->T), +结合律=群 ；其中 群=半群，a上b=a且满足b
当计算 Sum{add} 群时，把 Sum(n).add(x)=Sum(n+x) 即可，它实则也是 Monoid, mzero=0 ；结合另
List(1,2).map(Sum).fold(mzero) 得 Sum(3) ，这种 List&amp;lt;Sum&amp;lt;Int>> 双范畴的方法可用(:是+或concat)
foldMap:(m,f,x0)=m.reduce(a:f(x), x0);(m,f)=m.map(f).reduce(a:x) 进行计算；那 List&amp;lt;*>.mzero=[]

『纯』的字眼意味着限制副作用的范围-仅引用时如透明-真正用到才计算，而 Monad (readLn::IO Int)
(getLine::IO String >>=putStrLn::IO()) 给了副作用一个标记，且只有整体用到才会执行，不熟?
可以 ghci import再 :browse Control.Applicative 看这么个幺群

Monad 拥有 (>>=) 即 flatMap::(Monoid m)=>(a->m b)->(m a->m b) 操作，然后别名
(m>>f)=m>>=\_->f,return=pure，如 map (\x->T (f x)) 换这个logo中缀可避免 (List (List a)) 类型出现，
弱类型时  join m=m>>=(noOp::a->a) 可以从我们用计算机数据模拟范畴论的 T 内取出包住的原数据
(List 会是多项，但视其为范畴，固范畴不总是只“包着值方便map计算步骤”的)；

然后 ap (T f) o = (map f) o 故 pure(1-)&amp;lt;*>(Just 1)是0 ，即 liftA(1-)(Just 1) 即 它 f o=pure f&amp;lt;*>o ，亦可 fmap&lt;/content>
 &lt;/item>
 &lt;startviewport rect="0,0,1280,720"/>
 &lt;endviewport rect="0,0,1280,720"/>
 &lt;background color="0,0,0,0"/>
&lt;/kdenlivetitle>
</property>
  <property name="kdenlive:folderid">60</property>
  <property name="kdenlive:id">69</property>
  <property name="kdenlive:file_hash">ba0ddf3bbbaeb3baf4edc8c56b711c04</property>
  <property name="force_reload">0</property>
  <property name="meta.media.width">1280</property>
  <property name="meta.media.height">720</property>
 </producer>
 <producer id="producer61" in="00:00:00.000" out="00:00:04.967">
  <property name="length">150</property>
  <property name="eof">pause</property>
  <property name="resource"/>
  <property name="progressive">1</property>
  <property name="aspect_ratio">1</property>
  <property name="seekable">1</property>
  <property name="mlt_service">kdenlivetitle</property>
  <property name="kdenlive:duration">150</property>
  <property name="kdenlive:clipname">Kt,Java T::f...</property>
  <property name="xmldata">&lt;kdenlivetitle duration="150" LC_NUMERIC="C" width="1280" height="720" out="149">
 &lt;item type="QGraphicsTextItem" z-index="0">
  &lt;position x="31" y="104">
   &lt;transform>1,0,0,0,1,0,0,0,1&lt;/transform>
  &lt;/position>
  &lt;content line-spacing="0" shadow="0;#64000000;3;3;3" font-underline="0" box-height="429" font-outline-color="97,53,131,255" font="文泉驿微米黑" letter-spacing="0" font-pixel-size="28" font-italic="0" typewriter="0;2;1;0;0" alignment="1" font-weight="50" font-outline="0" box-width="1218.97" font-color="255,255,255,255">Kt,Java T::f, o::f 可以用于引用实例/物上动词 f ，参数1可代表this 即 T.(A)->R 互换 (T,A)->R
class A{static class AA{}} 是不能用 new A().new AA() 创建&amp;amp;能访问外层动名词、需 new A.AA() 的
命名空间性质嵌套层次，可用非static 即 inner class替代返回 new A(){} 函数

(a==b)a先执行、(i)的值是它最新一次的值， i/*未变*/==i++; ++i==i/*既变*/;
i/*未变*/+1==++i; ++i=(i=i+1) 既增新值 即 i.also{i+=1};(i+1).also{i=it} 的保存旧值?区别

(&amp;amp;&amp;amp;) 和 (&amp;amp;) 的区别除了参数类型限制，a&amp;amp;&amp;amp;b 若a已成立不执行b，而单&amp;amp; 会完整执行a,b ；(||) 同理
此技巧 bash 常见也有 a=a||init() (即空则 ?:init()) 的 JS/Rb 版

请勿在表达式混入变量的写操作，尽量把 i++ 移到后面 ++i 移到前面，
尤其是多次无关联时，这和性能毫无关系
&lt;/content>
 &lt;/item>
 &lt;startviewport rect="0,0,1280,720"/>
 &lt;endviewport rect="0,0,1280,720"/>
 &lt;background color="0,0,0,0"/>
&lt;/kdenlivetitle>
</property>
  <property name="kdenlive:folderid">60</property>
  <property name="kdenlive:id">70</property>
  <property name="kdenlive:file_hash">8ec51f07062f66b6720af570ef800893</property>
  <property name="force_reload">0</property>
  <property name="meta.media.width">1280</property>
  <property name="meta.media.height">720</property>
 </producer>
 <playlist id="main_bin">
  <property name="kdenlive:folder.-1.20">字</property>
  <property name="kdenlive:folder.-1.23">符号</property>
  <property name="kdenlive:folder.20.37">文件夹</property>
  <property name="kdenlive:folder.20.42">Jav</property>
  <property name="kdenlive:folder.23.56">震声</property>
  <property name="kdenlive:folder.23.60">平声</property>
  <property name="kdenlive:docproperties.activeTrack">5</property>
  <property name="kdenlive:docproperties.audioChannels">2</property>
  <property name="kdenlive:docproperties.audioTarget">-1</property>
  <property name="kdenlive:docproperties.dirtypreviewchunks">25,50,75</property>
  <property name="kdenlive:docproperties.disablepreview">0</property>
  <property name="kdenlive:docproperties.documentid">1628200406675</property>
  <property name="kdenlive:docproperties.enableTimelineZone">1</property>
  <property name="kdenlive:docproperties.enableexternalproxy">0</property>
  <property name="kdenlive:docproperties.enableproxy">0</property>
  <property name="kdenlive:docproperties.externalproxyparams">../Sub;;S03.MP4;../Clip;;.MXF</property>
  <property name="kdenlive:docproperties.generateimageproxy">0</property>
  <property name="kdenlive:docproperties.generateproxy">0</property>
  <property name="kdenlive:docproperties.groups">[
    {
        "children": [
            {
                "data": "5:6558",
                "leaf": "clip",
                "type": "Leaf"
            },
            {
                "data": "0:6558",
                "leaf": "clip",
                "type": "Leaf"
            }
        ],
        "type": "AVSplit"
    },
    {
        "children": [
            {
                "data": "5:6130",
                "leaf": "clip",
                "type": "Leaf"
            },
            {
                "data": "0:6130",
                "leaf": "clip",
                "type": "Leaf"
            }
        ],
        "type": "AVSplit"
    },
    {
        "children": [
            {
                "data": "0:3532",
                "leaf": "clip",
                "type": "Leaf"
            },
            {
                "data": "5:3532",
                "leaf": "clip",
                "type": "Leaf"
            }
        ],
        "type": "AVSplit"
    },
    {
        "children": [
            {
                "data": "4:5048",
                "leaf": "clip",
                "type": "Leaf"
            },
            {
                "data": "1:5048",
                "leaf": "clip",
                "type": "Leaf"
            }
        ],
        "type": "AVSplit"
    },
    {
        "children": [
            {
                "data": "4:6898",
                "leaf": "clip",
                "type": "Leaf"
            },
            {
                "data": "1:6898",
                "leaf": "clip",
                "type": "Leaf"
            }
        ],
        "type": "AVSplit"
    },
    {
        "children": [
            {
                "data": "0:2654",
                "leaf": "clip",
                "type": "Leaf"
            },
            {
                "data": "5:2654",
                "leaf": "clip",
                "type": "Leaf"
            }
        ],
        "type": "AVSplit"
    },
    {
        "children": [
            {
                "data": "0:5213",
                "leaf": "clip",
                "type": "Leaf"
            },
            {
                "data": "5:5213",
                "leaf": "clip",
                "type": "Leaf"
            }
        ],
        "type": "AVSplit"
    },
    {
        "children": [
            {
                "data": "0:3148",
                "leaf": "clip",
                "type": "Leaf"
            },
            {
                "data": "5:3148",
                "leaf": "clip",
                "type": "Leaf"
            }
        ],
        "type": "AVSplit"
    },
    {
        "children": [
            {
                "data": "4:5268",
                "leaf": "clip",
                "type": "Leaf"
            },
            {
                "data": "1:5268",
                "leaf": "clip",
                "type": "Leaf"
            }
        ],
        "type": "AVSplit"
    },
    {
        "children": [
            {
                "data": "5:1712",
                "leaf": "clip",
                "type": "Leaf"
            },
            {
                "data": "0:1712",
                "leaf": "clip",
                "type": "Leaf"
            }
        ],
        "type": "AVSplit"
    },
    {
        "children": [
            {
                "data": "4:3459",
                "leaf": "clip",
                "type": "Leaf"
            },
            {
                "data": "1:3459",
                "leaf": "clip",
                "type": "Leaf"
            }
        ],
        "type": "AVSplit"
    },
    {
        "children": [
            {
                "data": "0:5693",
                "leaf": "clip",
                "type": "Leaf"
            },
            {
                "data": "5:5693",
                "leaf": "clip",
                "type": "Leaf"
            }
        ],
        "type": "AVSplit"
    },
    {
        "children": [
            {
                "data": "5:3918",
                "leaf": "clip",
                "type": "Leaf"
            },
            {
                "data": "0:3918",
                "leaf": "clip",
                "type": "Leaf"
            }
        ],
        "type": "AVSplit"
    },
    {
        "children": [
            {
                "data": "5:6352",
                "leaf": "clip",
                "type": "Leaf"
            },
            {
                "data": "0:6352",
                "leaf": "clip",
                "type": "Leaf"
            }
        ],
        "type": "AVSplit"
    },
    {
        "children": [
            {
                "data": "5:4592",
                "leaf": "clip",
                "type": "Leaf"
            },
            {
                "data": "0:4592",
                "leaf": "clip",
                "type": "Leaf"
            }
        ],
        "type": "AVSplit"
    },
    {
        "children": [
            {
                "data": "4:1360",
                "leaf": "clip",
                "type": "Leaf"
            },
            {
                "data": "1:1360",
                "leaf": "clip",
                "type": "Leaf"
            }
        ],
        "type": "AVSplit"
    },
    {
        "children": [
            {
                "data": "4:6957",
                "leaf": "clip",
                "type": "Leaf"
            },
            {
                "data": "1:6957",
                "leaf": "clip",
                "type": "Leaf"
            }
        ],
        "type": "AVSplit"
    },
    {
        "children": [
            {
                "data": "5:4701",
                "leaf": "clip",
                "type": "Leaf"
            },
            {
                "data": "0:4701",
                "leaf": "clip",
                "type": "Leaf"
            }
        ],
        "type": "AVSplit"
    },
    {
        "children": [
            {
                "data": "4:3814",
                "leaf": "clip",
                "type": "Leaf"
            },
            {
                "data": "1:3814",
                "leaf": "clip",
                "type": "Leaf"
            }
        ],
        "type": "AVSplit"
    }
]
</property>
  <property name="kdenlive:docproperties.kdenliveversion">21.04.3</property>
  <property name="kdenlive:docproperties.position">8877</property>
  <property name="kdenlive:docproperties.previewchunks">0</property>
  <property name="kdenlive:docproperties.previewextension">avi</property>
  <property name="kdenlive:docproperties.previewparameters">f=avi vcodec=mjpeg progressive=1 qscale=1</property>
  <property name="kdenlive:docproperties.profile">atsc_720p_30</property>
  <property name="kdenlive:docproperties.proxyextension"/>
  <property name="kdenlive:docproperties.proxyimageminsize">2000</property>
  <property name="kdenlive:docproperties.proxyimagesize">800</property>
  <property name="kdenlive:docproperties.proxyminsize">1000</property>
  <property name="kdenlive:docproperties.proxyparams"/>
  <property name="kdenlive:docproperties.scrollPos">7691</property>
  <property name="kdenlive:docproperties.seekOffset">30000</property>
  <property name="kdenlive:docproperties.version">1</property>
  <property name="kdenlive:docproperties.verticalzoom">1</property>
  <property name="kdenlive:docproperties.videoTarget">3</property>
  <property name="kdenlive:docproperties.zonein">0</property>
  <property name="kdenlive:docproperties.zoneout">75</property>
  <property name="kdenlive:docproperties.zoom">6</property>
  <property name="kdenlive:expandedFolders">37;20;23;56;60</property>
  <property name="kdenlive:documentnotes">&lt;!DOCTYPE HTML PUBLIC "-//W3C//DTD HTML 4.0//EN" "http://www.w3.org/TR/REC-html40/strict.dtd">
&lt;html>&lt;head>&lt;meta name="qrichtext" content="1" />&lt;style type="text/css">
p, li { white-space: pre-wrap; }
&lt;/style>&lt;/head>&lt;body style=" font-family:'DejaVu Sans'; font-size:10pt; font-weight:400; font-style:normal;">
&lt;p style=" margin-top:0px; margin-bottom:0px; margin-left:0px; margin-right:0px; -qt-block-indent:0; text-indent:0px;">Kdenlive 是shift绘制选择 Ctrl 滑动真难草&lt;/p>&lt;/body>&lt;/html></property>
  <property name="xml_retain">1</property>
  <entry producer="producer0" in="00:00:00.000" out="00:00:06.333"/>
  <entry producer="producer1" in="00:00:00.000" out="00:00:04.867"/>
  <entry producer="producer2" in="00:00:00.000" out="00:00:01.700"/>
  <entry producer="producer3" in="00:00:00.000" out="00:00:02.267"/>
  <entry producer="producer4" in="00:00:00.000" out="00:00:07.467"/>
  <entry producer="producer5" in="00:00:00.000" out="00:00:04.500"/>
  <entry producer="producer6" in="00:00:00.000" out="00:00:09.233"/>
  <entry producer="producer7" in="00:00:00.000" out="00:00:04.367"/>
  <entry producer="producer8" in="00:00:00.000" out="00:00:09.033"/>
  <entry producer="producer9" in="00:00:00.000" out="00:00:01.733"/>
  <entry producer="producer10" in="00:00:00.000" out="00:00:02.100"/>
  <entry producer="producer11" in="00:00:00.000" out="00:00:09.733"/>
  <entry producer="producer12" in="00:00:00.000" out="00:00:06.300"/>
  <entry producer="producer13" in="00:00:00.000" out="00:04:21.333"/>
  <entry producer="tractor0" in="00:00:00.000" out="00:00:02.800"/>
  <entry producer="producer14" in="00:00:00.000" out="00:00:05.767"/>
  <entry producer="producer15" in="00:00:00.000" out="00:00:13.100"/>
  <entry producer="producer16" in="00:00:00.000" out="00:00:13.100"/>
  <entry producer="producer17" in="00:00:00.000" out="00:00:04.967"/>
  <entry producer="producer18" in="00:00:00.000" out="00:00:04.967"/>
  <entry producer="producer19" in="00:00:00.000" out="00:00:04.967"/>
  <entry producer="producer20" in="00:00:00.000" out="00:00:08.233"/>
  <entry producer="producer21" in="00:00:00.000" out="00:00:08.267"/>
  <entry producer="producer22" in="00:00:00.000" out="00:00:08.033"/>
  <entry producer="producer23" in="00:00:00.000" out="00:00:06.800"/>
  <entry producer="producer24" in="00:00:00.000" out="00:00:04.967"/>
  <entry producer="producer25" in="00:00:00.000" out="00:00:12.667"/>
  <entry producer="producer26" in="00:00:00.000" out="00:00:15.000"/>
  <entry producer="producer27" in="00:00:00.000" out="00:00:05.067"/>
  <entry producer="producer28" in="00:00:00.000" out="00:00:11.267"/>
  <entry producer="producer29" in="00:00:00.000" out="00:00:10.500"/>
  <entry producer="producer30" in="00:00:00.000" out="00:00:04.967"/>
  <entry producer="producer31" in="00:00:00.000" out="00:00:07.433"/>
  <entry producer="producer33" in="00:00:00.000" out="00:00:06.233"/>
  <entry producer="producer35" in="00:00:00.000" out="00:00:04.967"/>
  <entry producer="producer36" in="00:00:00.000" out="00:00:05.800"/>
  <entry producer="producer37" in="00:00:00.000" out="00:00:04.967"/>
  <entry producer="producer38" in="00:00:00.000" out="00:00:05.867"/>
  <entry producer="producer39" in="00:00:00.000" out="00:00:11.267"/>
  <entry producer="producer34" in="00:00:00.000" out="00:00:11.267"/>
  <entry producer="producer40" in="00:00:00.000" out="00:00:07.267"/>
  <entry producer="producer41" in="00:00:00.000" out="00:00:06.467"/>
  <entry producer="producer42" in="00:00:00.000" out="00:00:06.467"/>
  <entry producer="producer43" in="00:00:00.000" out="00:00:06.467"/>
  <entry producer="producer44" in="00:00:00.000" out="00:00:04.967"/>
  <entry producer="producer45" in="00:00:00.000" out="00:00:04.967"/>
  <entry producer="producer46" in="00:00:00.000" out="00:00:04.967"/>
  <entry producer="producer32" in="00:00:00.000" out="00:00:11.267"/>
  <entry producer="producer48" in="00:00:00.000" out="00:00:04.967"/>
  <entry producer="producer49" in="00:00:00.000" out="00:00:04.967"/>
  <entry producer="producer50" in="00:00:00.000" out="00:00:08.400"/>
  <entry producer="producer47" in="00:00:00.000" out="00:00:09.767"/>
  <entry producer="producer51" in="00:00:00.000" out="00:00:04.967"/>
  <entry producer="producer52" in="00:00:00.000" out="00:00:04.967"/>
  <entry producer="producer53" in="00:00:00.000" out="00:00:04.967"/>
  <entry producer="producer54" in="00:00:00.000" out="00:00:04.967"/>
  <entry producer="producer55" in="00:00:00.000" out="00:00:04.967"/>
  <entry producer="producer56" in="00:00:00.000" out="00:00:04.967"/>
  <entry producer="producer57" in="00:00:00.000" out="00:00:04.967"/>
  <entry producer="producer58" in="00:00:00.000" out="00:00:04.967"/>
  <entry producer="producer59" in="00:00:00.000" out="00:00:04.967"/>
  <entry producer="producer60" in="00:00:00.000" out="00:00:04.967"/>
  <entry producer="producer61" in="00:00:00.000" out="00:00:04.967"/>
 </playlist>
 <producer id="black_track" in="00:00:00.000" out="00:21:35.900">
  <property name="length">2147483647</property>
  <property name="eof">continue</property>
  <property name="resource">black</property>
  <property name="aspect_ratio">1</property>
  <property name="mlt_service">color</property>
  <property name="mlt_image_format">rgb24a</property>
  <property name="set.test_audio">0</property>
 </producer>
 <producer id="producer62" in="00:00:00.000" out="00:00:03.067">
  <property name="length">93</property>
  <property name="eof">pause</property>
  <property name="resource">0.569892:一年看不见.mp4</property>
  <property name="aspect_ratio">1</property>
  <property name="meta.media.nb_streams">2</property>
  <property name="meta.media.0.stream.type">video</property>
  <property name="meta.media.0.stream.frame_rate">29.8616</property>
  <property name="meta.media.0.stream.sample_aspect_ratio">1</property>
  <property name="meta.media.0.codec.width">1280</property>
  <property name="meta.media.0.codec.height">720</property>
  <property name="meta.media.0.codec.rotate">0</property>
  <property name="meta.media.0.codec.frame_rate">30</property>
  <property name="meta.media.0.codec.pix_fmt">yuv420p</property>
  <property name="meta.media.0.codec.sample_aspect_ratio">0</property>
  <property name="meta.media.0.codec.colorspace">709</property>
  <property name="meta.media.0.codec.color_trc">1</property>
  <property name="meta.media.0.codec.name">h264</property>
  <property name="meta.media.0.codec.long_name">H.264 / AVC / MPEG-4 AVC / MPEG-4 part 10</property>
  <property name="meta.media.0.codec.bit_rate">5800807</property>
  <property name="meta.attr.0.stream.creation_time.markup">2021-08-05T03:42:46.000000Z</property>
  <property name="meta.attr.0.stream.language.markup">eng</property>
  <property name="meta.attr.0.stream.handler_name.markup">VideoHandle</property>
  <property name="meta.attr.0.stream.vendor_id.markup">[0][0][0][0]</property>
  <property name="meta.media.1.stream.type">audio</property>
  <property name="meta.media.1.codec.sample_fmt">fltp</property>
  <property name="meta.media.1.codec.sample_rate">48000</property>
  <property name="meta.media.1.codec.channels">2</property>
  <property name="meta.media.1.codec.name">aac</property>
  <property name="meta.media.1.codec.long_name">AAC (Advanced Audio Coding)</property>
  <property name="meta.media.1.codec.bit_rate">193111</property>
  <property name="meta.attr.1.stream.creation_time.markup">2021-08-05T03:42:46.000000Z</property>
  <property name="meta.attr.1.stream.language.markup">eng</property>
  <property name="meta.attr.1.stream.handler_name.markup">SoundHandle</property>
  <property name="meta.attr.1.stream.vendor_id.markup">[0][0][0][0]</property>
  <property name="meta.attr.major_brand.markup">mp42</property>
  <property name="meta.attr.minor_version.markup">0</property>
  <property name="meta.attr.compatible_brands.markup">isommp42</property>
  <property name="meta.attr.creation_time.markup">2021-08-05T03:42:46.000000Z</property>
  <property name="meta.attr.com.android.version.markup">8.0.0</property>
  <property name="seekable">1</property>
  <property name="meta.media.sample_aspect_num">1</property>
  <property name="meta.media.sample_aspect_den">1</property>
  <property name="audio_index">1</property>
  <property name="video_index">0</property>
  <property name="mute_on_pause">1</property>
  <property name="warp_speed">0.569892</property>
  <property name="warp_resource">一年看不见.mp4</property>
  <property name="mlt_service">timewarp</property>
  <property name="set.test_audio">0</property>
  <property name="set.test_image">1</property>
  <property name="kdenlive:id">11</property>
  <property name="warp_pitch">0</property>
  <property name="meta.media.frame_rate_num">1560000</property>
  <property name="meta.media.frame_rate_den">52241</property>
  <property name="meta.media.colorspace">709</property>
  <property name="meta.media.color_trc">1</property>
  <property name="meta.media.width">1280</property>
  <property name="meta.media.height">720</property>
  <property name="meta.media.color_range">mpeg</property>
 </producer>
 <producer id="producer63" in="00:00:00.000" out="00:00:03.567">
  <property name="length">108</property>
  <property name="eof">pause</property>
  <property name="resource">0.640000:更快实现.mp4</property>
  <property name="aspect_ratio">1</property>
  <property name="meta.media.nb_streams">2</property>
  <property name="meta.media.0.stream.type">video</property>
  <property name="meta.media.0.stream.frame_rate">30.0081</property>
  <property name="meta.media.0.stream.sample_aspect_ratio">1</property>
  <property name="meta.media.0.codec.width">1280</property>
  <property name="meta.media.0.codec.height">720</property>
  <property name="meta.media.0.codec.rotate">0</property>
  <property name="meta.media.0.codec.frame_rate">30</property>
  <property name="meta.media.0.codec.pix_fmt">yuv420p</property>
  <property name="meta.media.0.codec.sample_aspect_ratio">0</property>
  <property name="meta.media.0.codec.colorspace">709</property>
  <property name="meta.media.0.codec.color_trc">1</property>
  <property name="meta.media.0.codec.name">h264</property>
  <property name="meta.media.0.codec.long_name">H.264 / AVC / MPEG-4 AVC / MPEG-4 part 10</property>
  <property name="meta.media.0.codec.bit_rate">5435218</property>
  <property name="meta.attr.0.stream.creation_time.markup">2021-08-05T03:42:13.000000Z</property>
  <property name="meta.attr.0.stream.language.markup">eng</property>
  <property name="meta.attr.0.stream.handler_name.markup">VideoHandle</property>
  <property name="meta.attr.0.stream.vendor_id.markup">[0][0][0][0]</property>
  <property name="meta.media.1.stream.type">audio</property>
  <property name="meta.media.1.codec.sample_fmt">fltp</property>
  <property name="meta.media.1.codec.sample_rate">48000</property>
  <property name="meta.media.1.codec.channels">2</property>
  <property name="meta.media.1.codec.name">aac</property>
  <property name="meta.media.1.codec.long_name">AAC (Advanced Audio Coding)</property>
  <property name="meta.media.1.codec.bit_rate">192944</property>
  <property name="meta.attr.1.stream.creation_time.markup">2021-08-05T03:42:13.000000Z</property>
  <property name="meta.attr.1.stream.language.markup">eng</property>
  <property name="meta.attr.1.stream.handler_name.markup">SoundHandle</property>
  <property name="meta.attr.1.stream.vendor_id.markup">[0][0][0][0]</property>
  <property name="meta.attr.major_brand.markup">mp42</property>
  <property name="meta.attr.minor_version.markup">0</property>
  <property name="meta.attr.compatible_brands.markup">isommp42</property>
  <property name="meta.attr.creation_time.markup">2021-08-05T03:42:13.000000Z</property>
  <property name="meta.attr.com.android.version.markup">8.0.0</property>
  <property name="seekable">1</property>
  <property name="meta.media.sample_aspect_num">1</property>
  <property name="meta.media.sample_aspect_den">1</property>
  <property name="audio_index">1</property>
  <property name="video_index">0</property>
  <property name="mute_on_pause">1</property>
  <property name="warp_speed">0.64</property>
  <property name="warp_resource">更快实现.mp4</property>
  <property name="mlt_service">timewarp</property>
  <property name="set.test_audio">0</property>
  <property name="set.test_image">1</property>
  <property name="kdenlive:id">5</property>
  <property name="warp_pitch">0</property>
  <property name="meta.media.frame_rate_num">1224000</property>
  <property name="meta.media.frame_rate_den">40789</property>
  <property name="meta.media.colorspace">709</property>
  <property name="meta.media.color_trc">1</property>
  <property name="meta.media.width">1280</property>
  <property name="meta.media.height">720</property>
  <property name="meta.media.color_range">mpeg</property>
 </producer>
 <producer id="producer64" in="00:00:00.000" out="00:00:11.900">
  <property name="length">359</property>
  <property name="eof">pause</property>
  <property name="resource">0.626900:没意见_写不短.mp4</property>
  <property name="aspect_ratio">1</property>
  <property name="meta.media.nb_streams">2</property>
  <property name="meta.media.0.stream.type">video</property>
  <property name="meta.media.0.stream.frame_rate">30.1603</property>
  <property name="meta.media.0.stream.sample_aspect_ratio">1</property>
  <property name="meta.media.0.codec.width">1280</property>
  <property name="meta.media.0.codec.height">720</property>
  <property name="meta.media.0.codec.rotate">0</property>
  <property name="meta.media.0.codec.frame_rate">30</property>
  <property name="meta.media.0.codec.pix_fmt">yuv420p</property>
  <property name="meta.media.0.codec.sample_aspect_ratio">0</property>
  <property name="meta.media.0.codec.colorspace">709</property>
  <property name="meta.media.0.codec.color_trc">1</property>
  <property name="meta.media.0.codec.name">h264</property>
  <property name="meta.media.0.codec.long_name">H.264 / AVC / MPEG-4 AVC / MPEG-4 part 10</property>
  <property name="meta.media.0.codec.bit_rate">5609080</property>
  <property name="meta.attr.0.stream.creation_time.markup">2021-08-05T03:47:51.000000Z</property>
  <property name="meta.attr.0.stream.language.markup">eng</property>
  <property name="meta.attr.0.stream.handler_name.markup">VideoHandle</property>
  <property name="meta.attr.0.stream.vendor_id.markup">[0][0][0][0]</property>
  <property name="meta.media.1.stream.type">audio</property>
  <property name="meta.media.1.codec.sample_fmt">fltp</property>
  <property name="meta.media.1.codec.sample_rate">48000</property>
  <property name="meta.media.1.codec.channels">2</property>
  <property name="meta.media.1.codec.name">aac</property>
  <property name="meta.media.1.codec.long_name">AAC (Advanced Audio Coding)</property>
  <property name="meta.media.1.codec.bit_rate">192280</property>
  <property name="meta.attr.1.stream.creation_time.markup">2021-08-05T03:47:51.000000Z</property>
  <property name="meta.attr.1.stream.language.markup">eng</property>
  <property name="meta.attr.1.stream.handler_name.markup">SoundHandle</property>
  <property name="meta.attr.1.stream.vendor_id.markup">[0][0][0][0]</property>
  <property name="meta.attr.major_brand.markup">mp42</property>
  <property name="meta.attr.minor_version.markup">0</property>
  <property name="meta.attr.compatible_brands.markup">isommp42</property>
  <property name="meta.attr.creation_time.markup">2021-08-05T03:47:51.000000Z</property>
  <property name="meta.attr.com.android.version.markup">8.0.0</property>
  <property name="seekable">1</property>
  <property name="meta.media.sample_aspect_num">1</property>
  <property name="meta.media.sample_aspect_den">1</property>
  <property name="audio_index">1</property>
  <property name="video_index">0</property>
  <property name="mute_on_pause">1</property>
  <property name="warp_speed">0.6269</property>
  <property name="warp_resource">没意见_写不短.mp4</property>
  <property name="mlt_service">timewarp</property>
  <property name="set.test_audio">0</property>
  <property name="set.test_image">1</property>
  <property name="kdenlive:id">6</property>
  <property name="warp_pitch">0</property>
  <property name="meta.media.frame_rate_num">5040000</property>
  <property name="meta.media.frame_rate_den">167107</property>
  <property name="meta.media.colorspace">709</property>
  <property name="meta.media.color_trc">1</property>
  <property name="meta.media.width">1280</property>
  <property name="meta.media.height">720</property>
  <property name="meta.media.color_range">mpeg</property>
 </producer>
 <producer id="producer65" in="00:00:00.000" out="00:00:09.733">
  <property name="length">293</property>
  <property name="eof">pause</property>
  <property name="resource">又不用作感言1.webm</property>
  <property name="audio_index">1</property>
  <property name="video_index">0</property>
  <property name="mute_on_pause">0</property>
  <property name="mlt_service">avformat-novalidate</property>
  <property name="seekable">1</property>
  <property name="aspect_ratio">1</property>
  <property name="kdenlive:clipname"/>
  <property name="kdenlive:folderid">-1</property>
  <property name="kdenlive:id">13</property>
  <property name="kdenlive:file_size">703439</property>
  <property name="kdenlive:file_hash">756eac0634ab695fa461ab19e3b9f0cc</property>
  <property name="global_feed">1</property>
  <property name="kdenlive:audio_max">1</property>
  <property name="xml">was here</property>
  <property name="meta.media.nb_streams">2</property>
  <property name="meta.media.0.stream.type">video</property>
  <property name="meta.media.0.stream.frame_rate">30</property>
  <property name="meta.media.0.stream.sample_aspect_ratio">1</property>
  <property name="meta.media.0.codec.width">640</property>
  <property name="meta.media.0.codec.height">480</property>
  <property name="meta.media.0.codec.rotate">0</property>
  <property name="meta.media.0.codec.frame_rate">1000</property>
  <property name="meta.media.0.codec.pix_fmt">yuv420p</property>
  <property name="meta.media.0.codec.sample_aspect_ratio">0</property>
  <property name="meta.media.0.codec.colorspace">601</property>
  <property name="meta.media.0.codec.color_trc">6</property>
  <property name="meta.media.0.codec.name">vp8</property>
  <property name="meta.media.0.codec.long_name">On2 VP8</property>
  <property name="meta.media.0.codec.bit_rate">0</property>
  <property name="meta.attr.0.stream.language.markup">eng</property>
  <property name="meta.attr.0.stream.title.markup">Video</property>
  <property name="meta.media.1.stream.type">audio</property>
  <property name="meta.media.1.codec.sample_fmt">fltp</property>
  <property name="meta.media.1.codec.sample_rate">44100</property>
  <property name="meta.media.1.codec.channels">1</property>
  <property name="meta.media.1.codec.name">vorbis</property>
  <property name="meta.media.1.codec.long_name">Vorbis</property>
  <property name="meta.media.1.codec.bit_rate">0</property>
  <property name="meta.attr.1.stream.language.markup">eng</property>
  <property name="meta.attr.1.stream.title.markup">Audio</property>
  <property name="meta.attr.encoder.markup">GStreamer matroskamux version 1.18.4</property>
  <property name="meta.attr.creation_time.markup">2021-08-05T12:56:44.117483Z</property>
  <property name="meta.media.sample_aspect_num">1</property>
  <property name="meta.media.sample_aspect_den">1</property>
  <property name="meta.media.frame_rate_num">30</property>
  <property name="meta.media.frame_rate_den">1</property>
  <property name="meta.media.colorspace">601</property>
  <property name="meta.media.color_trc">6</property>
  <property name="meta.media.width">640</property>
  <property name="meta.media.height">480</property>
  <property name="meta.media.color_range">mpeg</property>
  <property name="meta.media.top_field_first">0</property>
  <property name="meta.media.progressive">1</property>
  <property name="set.test_audio">0</property>
  <property name="set.test_image">1</property>
 </producer>
 <producer id="producer66" in="00:00:00.000" out="00:00:03.700">
  <property name="length">112</property>
  <property name="eof">pause</property>
  <property name="resource">0.571429:疑惑在.mp4</property>
  <property name="aspect_ratio">1</property>
  <property name="meta.media.nb_streams">2</property>
  <property name="meta.media.0.stream.type">video</property>
  <property name="meta.media.0.stream.frame_rate">30.206</property>
  <property name="meta.media.0.stream.sample_aspect_ratio">1</property>
  <property name="meta.media.0.codec.width">1280</property>
  <property name="meta.media.0.codec.height">720</property>
  <property name="meta.media.0.codec.rotate">0</property>
  <property name="meta.media.0.codec.frame_rate">30</property>
  <property name="meta.media.0.codec.pix_fmt">yuv420p</property>
  <property name="meta.media.0.codec.sample_aspect_ratio">0</property>
  <property name="meta.media.0.codec.colorspace">709</property>
  <property name="meta.media.0.codec.color_trc">1</property>
  <property name="meta.media.0.codec.name">h264</property>
  <property name="meta.media.0.codec.long_name">H.264 / AVC / MPEG-4 AVC / MPEG-4 part 10</property>
  <property name="meta.media.0.codec.bit_rate">6367967</property>
  <property name="meta.attr.0.stream.creation_time.markup">2021-08-05T03:49:47.000000Z</property>
  <property name="meta.attr.0.stream.language.markup">eng</property>
  <property name="meta.attr.0.stream.handler_name.markup">VideoHandle</property>
  <property name="meta.attr.0.stream.vendor_id.markup">[0][0][0][0]</property>
  <property name="meta.media.1.stream.type">audio</property>
  <property name="meta.media.1.codec.sample_fmt">fltp</property>
  <property name="meta.media.1.codec.sample_rate">48000</property>
  <property name="meta.media.1.codec.channels">2</property>
  <property name="meta.media.1.codec.name">aac</property>
  <property name="meta.media.1.codec.long_name">AAC (Advanced Audio Coding)</property>
  <property name="meta.media.1.codec.bit_rate">192918</property>
  <property name="meta.attr.1.stream.creation_time.markup">2021-08-05T03:49:47.000000Z</property>
  <property name="meta.attr.1.stream.language.markup">eng</property>
  <property name="meta.attr.1.stream.handler_name.markup">SoundHandle</property>
  <property name="meta.attr.1.stream.vendor_id.markup">[0][0][0][0]</property>
  <property name="meta.attr.major_brand.markup">mp42</property>
  <property name="meta.attr.minor_version.markup">0</property>
  <property name="meta.attr.compatible_brands.markup">isommp42</property>
  <property name="meta.attr.creation_time.markup">2021-08-05T03:49:47.000000Z</property>
  <property name="meta.attr.com.android.version.markup">8.0.0</property>
  <property name="seekable">1</property>
  <property name="meta.media.sample_aspect_num">1</property>
  <property name="meta.media.sample_aspect_den">1</property>
  <property name="audio_index">1</property>
  <property name="video_index">0</property>
  <property name="mute_on_pause">1</property>
  <property name="warp_speed">0.571429</property>
  <property name="warp_resource">疑惑在.mp4</property>
  <property name="mlt_service">timewarp</property>
  <property name="set.test_audio">0</property>
  <property name="set.test_image">1</property>
  <property name="kdenlive:id">12</property>
  <property name="warp_pitch">0</property>
  <property name="meta.media.frame_rate_num">5670000</property>
  <property name="meta.media.frame_rate_den">187711</property>
  <property name="meta.media.colorspace">709</property>
  <property name="meta.media.color_trc">1</property>
  <property name="meta.media.width">1280</property>
  <property name="meta.media.height">720</property>
  <property name="meta.media.color_range">mpeg</property>
 </producer>
 <producer id="producer67" in="00:00:00.000" out="00:00:06.333">
  <property name="length">191</property>
  <property name="eof">pause</property>
  <property name="resource">才能猜测_不弱智.mp4</property>
  <property name="audio_index">1</property>
  <property name="video_index">0</property>
  <property name="mute_on_pause">0</property>
  <property name="mlt_service">avformat-novalidate</property>
  <property name="seekable">1</property>
  <property name="aspect_ratio">1</property>
  <property name="kdenlive:clipname"/>
  <property name="kdenlive:folderid">-1</property>
  <property name="kdenlive:id">2</property>
  <property name="kdenlive:file_size">10452662</property>
  <property name="kdenlive:file_hash">268f97557bf3ae81b6d5acbcefd760cc</property>
  <property name="kdenlive:audio_max">32</property>
  <property name="global_feed">1</property>
  <property name="xml">was here</property>
  <property name="meta.media.nb_streams">2</property>
  <property name="meta.media.0.stream.type">video</property>
  <property name="meta.media.0.stream.frame_rate">30.0994</property>
  <property name="meta.media.0.stream.sample_aspect_ratio">1</property>
  <property name="meta.media.0.codec.width">1280</property>
  <property name="meta.media.0.codec.height">720</property>
  <property name="meta.media.0.codec.rotate">0</property>
  <property name="meta.media.0.codec.frame_rate">30</property>
  <property name="meta.media.0.codec.pix_fmt">yuv420p</property>
  <property name="meta.media.0.codec.sample_aspect_ratio">0</property>
  <property name="meta.media.0.codec.colorspace">709</property>
  <property name="meta.media.0.codec.color_trc">1</property>
  <property name="meta.media.0.codec.name">h264</property>
  <property name="meta.media.0.codec.long_name">H.264 / AVC / MPEG-4 AVC / MPEG-4 part 10</property>
  <property name="meta.media.0.codec.bit_rate">12071951</property>
  <property name="meta.attr.0.stream.creation_time.markup">2021-08-05T03:35:46.000000Z</property>
  <property name="meta.attr.0.stream.language.markup">eng</property>
  <property name="meta.attr.0.stream.handler_name.markup">VideoHandle</property>
  <property name="meta.attr.0.stream.vendor_id.markup">[0][0][0][0]</property>
  <property name="meta.media.1.stream.type">audio</property>
  <property name="meta.media.1.codec.sample_fmt">fltp</property>
  <property name="meta.media.1.codec.sample_rate">48000</property>
  <property name="meta.media.1.codec.channels">2</property>
  <property name="meta.media.1.codec.name">aac</property>
  <property name="meta.media.1.codec.long_name">AAC (Advanced Audio Coding)</property>
  <property name="meta.media.1.codec.bit_rate">192280</property>
  <property name="meta.attr.1.stream.creation_time.markup">2021-08-05T03:35:46.000000Z</property>
  <property name="meta.attr.1.stream.language.markup">eng</property>
  <property name="meta.attr.1.stream.handler_name.markup">SoundHandle</property>
  <property name="meta.attr.1.stream.vendor_id.markup">[0][0][0][0]</property>
  <property name="meta.attr.major_brand.markup">mp42</property>
  <property name="meta.attr.minor_version.markup">0</property>
  <property name="meta.attr.compatible_brands.markup">isommp42</property>
  <property name="meta.attr.creation_time.markup">2021-08-05T03:35:46.000000Z</property>
  <property name="meta.attr.com.android.version.markup">8.0.0</property>
  <property name="meta.media.sample_aspect_num">1</property>
  <property name="meta.media.sample_aspect_den">1</property>
  <property name="meta.media.frame_rate_num">8550000</property>
  <property name="meta.media.frame_rate_den">284059</property>
  <property name="meta.media.colorspace">709</property>
  <property name="meta.media.color_trc">1</property>
  <property name="meta.media.width">1280</property>
  <property name="meta.media.height">720</property>
  <property name="meta.media.color_range">mpeg</property>
  <property name="meta.media.variable_frame_rate">1</property>
  <property name="meta.media.top_field_first">0</property>
  <property name="meta.media.progressive">1</property>
  <property name="set.test_audio">0</property>
  <property name="set.test_image">1</property>
 </producer>
 <producer id="producer68" in="00:00:00.000" out="00:00:04.867">
  <property name="length">147</property>
  <property name="eof">pause</property>
  <property name="resource">痴迷不舍.mp4</property>
  <property name="audio_index">1</property>
  <property name="video_index">0</property>
  <property name="mute_on_pause">0</property>
  <property name="mlt_service">avformat-novalidate</property>
  <property name="seekable">1</property>
  <property name="aspect_ratio">1</property>
  <property name="kdenlive:clipname"/>
  <property name="kdenlive:folderid">-1</property>
  <property name="kdenlive:id">3</property>
  <property name="kdenlive:file_size">6396603</property>
  <property name="kdenlive:file_hash">f109c7e51330cd8b602b47dfd7d09796</property>
  <property name="kdenlive:audio_max">8</property>
  <property name="global_feed">1</property>
  <property name="xml">was here</property>
  <property name="meta.media.nb_streams">2</property>
  <property name="meta.media.0.stream.type">video</property>
  <property name="meta.media.0.stream.frame_rate">30.0916</property>
  <property name="meta.media.0.stream.sample_aspect_ratio">1</property>
  <property name="meta.media.0.codec.width">1280</property>
  <property name="meta.media.0.codec.height">720</property>
  <property name="meta.media.0.codec.rotate">0</property>
  <property name="meta.media.0.codec.frame_rate">30</property>
  <property name="meta.media.0.codec.pix_fmt">yuv420p</property>
  <property name="meta.media.0.codec.sample_aspect_ratio">0</property>
  <property name="meta.media.0.codec.colorspace">709</property>
  <property name="meta.media.0.codec.color_trc">1</property>
  <property name="meta.media.0.codec.name">h264</property>
  <property name="meta.media.0.codec.long_name">H.264 / AVC / MPEG-4 AVC / MPEG-4 part 10</property>
  <property name="meta.media.0.codec.bit_rate">9116120</property>
  <property name="meta.attr.0.stream.creation_time.markup">2021-08-05T04:42:26.000000Z</property>
  <property name="meta.attr.0.stream.language.markup">eng</property>
  <property name="meta.attr.0.stream.handler_name.markup">VideoHandle</property>
  <property name="meta.attr.0.stream.vendor_id.markup">[0][0][0][0]</property>
  <property name="meta.media.1.stream.type">audio</property>
  <property name="meta.media.1.codec.sample_fmt">fltp</property>
  <property name="meta.media.1.codec.sample_rate">48000</property>
  <property name="meta.media.1.codec.channels">2</property>
  <property name="meta.media.1.codec.name">aac</property>
  <property name="meta.media.1.codec.long_name">AAC (Advanced Audio Coding)</property>
  <property name="meta.media.1.codec.bit_rate">192338</property>
  <property name="meta.attr.1.stream.creation_time.markup">2021-08-05T04:42:26.000000Z</property>
  <property name="meta.attr.1.stream.language.markup">eng</property>
  <property name="meta.attr.1.stream.handler_name.markup">SoundHandle</property>
  <property name="meta.attr.1.stream.vendor_id.markup">[0][0][0][0]</property>
  <property name="meta.attr.major_brand.markup">mp42</property>
  <property name="meta.attr.minor_version.markup">0</property>
  <property name="meta.attr.compatible_brands.markup">isommp42</property>
  <property name="meta.attr.creation_time.markup">2021-08-05T04:42:26.000000Z</property>
  <property name="meta.attr.com.android.version.markup">8.0.0</property>
  <property name="meta.media.sample_aspect_num">1</property>
  <property name="meta.media.sample_aspect_den">1</property>
  <property name="meta.media.frame_rate_num">3262500</property>
  <property name="meta.media.frame_rate_den">108419</property>
  <property name="meta.media.colorspace">709</property>
  <property name="meta.media.color_trc">1</property>
  <property name="meta.media.width">1280</property>
  <property name="meta.media.height">720</property>
  <property name="meta.media.color_range">mpeg</property>
  <property name="meta.media.variable_frame_rate">1</property>
  <property name="meta.media.top_field_first">0</property>
  <property name="meta.media.progressive">1</property>
  <property name="set.test_audio">0</property>
  <property name="set.test_image">1</property>
 </producer>
 <producer id="producer69" in="00:00:00.000" out="00:00:07.467">
  <property name="length">225</property>
  <property name="eof">pause</property>
  <property name="resource">没意见_写不短.mp4</property>
  <property name="audio_index">1</property>
  <property name="video_index">0</property>
  <property name="mute_on_pause">0</property>
  <property name="mlt_service">avformat-novalidate</property>
  <property name="seekable">1</property>
  <property name="aspect_ratio">1</property>
  <property name="kdenlive:clipname"/>
  <property name="kdenlive:folderid">-1</property>
  <property name="kdenlive:id">6</property>
  <property name="kdenlive:file_size">6188531</property>
  <property name="kdenlive:file_hash">6af6ac7de4f46669b30f8a8d33a3b38d</property>
  <property name="kdenlive:audio_max">28</property>
  <property name="global_feed">1</property>
  <property name="xml">was here</property>
  <property name="meta.media.nb_streams">2</property>
  <property name="meta.media.0.stream.type">video</property>
  <property name="meta.media.0.stream.frame_rate">30.1603</property>
  <property name="meta.media.0.stream.sample_aspect_ratio">1</property>
  <property name="meta.media.0.codec.width">1280</property>
  <property name="meta.media.0.codec.height">720</property>
  <property name="meta.media.0.codec.rotate">0</property>
  <property name="meta.media.0.codec.frame_rate">30</property>
  <property name="meta.media.0.codec.pix_fmt">yuv420p</property>
  <property name="meta.media.0.codec.sample_aspect_ratio">0</property>
  <property name="meta.media.0.codec.colorspace">709</property>
  <property name="meta.media.0.codec.color_trc">1</property>
  <property name="meta.media.0.codec.name">h264</property>
  <property name="meta.media.0.codec.long_name">H.264 / AVC / MPEG-4 AVC / MPEG-4 part 10</property>
  <property name="meta.media.0.codec.bit_rate">5609080</property>
  <property name="meta.attr.0.stream.creation_time.markup">2021-08-05T03:47:51.000000Z</property>
  <property name="meta.attr.0.stream.language.markup">eng</property>
  <property name="meta.attr.0.stream.handler_name.markup">VideoHandle</property>
  <property name="meta.attr.0.stream.vendor_id.markup">[0][0][0][0]</property>
  <property name="meta.media.1.stream.type">audio</property>
  <property name="meta.media.1.codec.sample_fmt">fltp</property>
  <property name="meta.media.1.codec.sample_rate">48000</property>
  <property name="meta.media.1.codec.channels">2</property>
  <property name="meta.media.1.codec.name">aac</property>
  <property name="meta.media.1.codec.long_name">AAC (Advanced Audio Coding)</property>
  <property name="meta.media.1.codec.bit_rate">192280</property>
  <property name="meta.attr.1.stream.creation_time.markup">2021-08-05T03:47:51.000000Z</property>
  <property name="meta.attr.1.stream.language.markup">eng</property>
  <property name="meta.attr.1.stream.handler_name.markup">SoundHandle</property>
  <property name="meta.attr.1.stream.vendor_id.markup">[0][0][0][0]</property>
  <property name="meta.attr.major_brand.markup">mp42</property>
  <property name="meta.attr.minor_version.markup">0</property>
  <property name="meta.attr.compatible_brands.markup">isommp42</property>
  <property name="meta.attr.creation_time.markup">2021-08-05T03:47:51.000000Z</property>
  <property name="meta.attr.com.android.version.markup">8.0.0</property>
  <property name="meta.media.sample_aspect_num">1</property>
  <property name="meta.media.sample_aspect_den">1</property>
  <property name="meta.media.frame_rate_num">5040000</property>
  <property name="meta.media.frame_rate_den">167107</property>
  <property name="meta.media.colorspace">709</property>
  <property name="meta.media.color_trc">1</property>
  <property name="meta.media.width">1280</property>
  <property name="meta.media.height">720</property>
  <property name="meta.media.color_range">mpeg</property>
  <property name="meta.media.top_field_first">0</property>
  <property name="meta.media.progressive">1</property>
  <property name="set.test_audio">0</property>
  <property name="set.test_image">1</property>
 </producer>
 <producer id="producer70" in="00:00:00.000" out="00:00:03.600">
  <property name="length">110</property>
  <property name="eof">pause</property>
  <property name="resource">0.472727:否还值得.mp4</property>
  <property name="aspect_ratio">1</property>
  <property name="meta.media.nb_streams">2</property>
  <property name="meta.media.0.stream.type">video</property>
  <property name="meta.media.0.stream.frame_rate">30.0127</property>
  <property name="meta.media.0.stream.sample_aspect_ratio">1</property>
  <property name="meta.media.0.codec.width">1280</property>
  <property name="meta.media.0.codec.height">720</property>
  <property name="meta.media.0.codec.rotate">0</property>
  <property name="meta.media.0.codec.frame_rate">30</property>
  <property name="meta.media.0.codec.pix_fmt">yuv420p</property>
  <property name="meta.media.0.codec.sample_aspect_ratio">0</property>
  <property name="meta.media.0.codec.colorspace">709</property>
  <property name="meta.media.0.codec.color_trc">1</property>
  <property name="meta.media.0.codec.name">h264</property>
  <property name="meta.media.0.codec.long_name">H.264 / AVC / MPEG-4 AVC / MPEG-4 part 10</property>
  <property name="meta.media.0.codec.bit_rate">11763469</property>
  <property name="meta.attr.0.stream.creation_time.markup">2021-08-05T03:35:13.000000Z</property>
  <property name="meta.attr.0.stream.language.markup">eng</property>
  <property name="meta.attr.0.stream.handler_name.markup">VideoHandle</property>
  <property name="meta.attr.0.stream.vendor_id.markup">[0][0][0][0]</property>
  <property name="meta.media.1.stream.type">audio</property>
  <property name="meta.media.1.codec.sample_fmt">fltp</property>
  <property name="meta.media.1.codec.sample_rate">48000</property>
  <property name="meta.media.1.codec.channels">2</property>
  <property name="meta.media.1.codec.name">aac</property>
  <property name="meta.media.1.codec.long_name">AAC (Advanced Audio Coding)</property>
  <property name="meta.media.1.codec.bit_rate">193092</property>
  <property name="meta.attr.1.stream.creation_time.markup">2021-08-05T03:35:13.000000Z</property>
  <property name="meta.attr.1.stream.language.markup">eng</property>
  <property name="meta.attr.1.stream.handler_name.markup">SoundHandle</property>
  <property name="meta.attr.1.stream.vendor_id.markup">[0][0][0][0]</property>
  <property name="meta.attr.major_brand.markup">mp42</property>
  <property name="meta.attr.minor_version.markup">0</property>
  <property name="meta.attr.compatible_brands.markup">isommp42</property>
  <property name="meta.attr.creation_time.markup">2021-08-05T03:35:13.000000Z</property>
  <property name="meta.attr.com.android.version.markup">8.0.0</property>
  <property name="seekable">1</property>
  <property name="meta.media.sample_aspect_num">1</property>
  <property name="meta.media.sample_aspect_den">1</property>
  <property name="audio_index">1</property>
  <property name="video_index">0</property>
  <property name="mute_on_pause">1</property>
  <property name="warp_speed">0.472727</property>
  <property name="warp_resource">否还值得.mp4</property>
  <property name="mlt_service">timewarp</property>
  <property name="set.test_audio">0</property>
  <property name="set.test_image">1</property>
  <property name="kdenlive:id">4</property>
  <property name="warp_pitch">0</property>
  <property name="meta.media.frame_rate_num">260000</property>
  <property name="meta.media.frame_rate_den">8663</property>
  <property name="meta.media.colorspace">709</property>
  <property name="meta.media.color_trc">1</property>
  <property name="meta.media.width">1280</property>
  <property name="meta.media.height">720</property>
  <property name="meta.media.color_range">mpeg</property>
 </producer>
 <producer id="producer71" in="00:00:00.000" out="00:00:09.233">
  <property name="length">278</property>
  <property name="eof">pause</property>
  <property name="resource">全力在调试.mp4</property>
  <property name="audio_index">1</property>
  <property name="video_index">0</property>
  <property name="mute_on_pause">0</property>
  <property name="mlt_service">avformat-novalidate</property>
  <property name="seekable">1</property>
  <property name="aspect_ratio">1</property>
  <property name="kdenlive:clipname"/>
  <property name="kdenlive:folderid">-1</property>
  <property name="kdenlive:id">8</property>
  <property name="kdenlive:file_size">14857823</property>
  <property name="kdenlive:file_hash">6f2a462fe808acddc17da89f5865ed60</property>
  <property name="kdenlive:audio_max">29</property>
  <property name="global_feed">1</property>
  <property name="xml">was here</property>
  <property name="meta.media.nb_streams">2</property>
  <property name="meta.media.0.stream.type">video</property>
  <property name="meta.media.0.stream.frame_rate">30.1767</property>
  <property name="meta.media.0.stream.sample_aspect_ratio">1</property>
  <property name="meta.media.0.codec.width">1280</property>
  <property name="meta.media.0.codec.height">720</property>
  <property name="meta.media.0.codec.rotate">0</property>
  <property name="meta.media.0.codec.frame_rate">30</property>
  <property name="meta.media.0.codec.pix_fmt">yuv420p</property>
  <property name="meta.media.0.codec.sample_aspect_ratio">0</property>
  <property name="meta.media.0.codec.colorspace">709</property>
  <property name="meta.media.0.codec.color_trc">1</property>
  <property name="meta.media.0.codec.name">h264</property>
  <property name="meta.media.0.codec.long_name">H.264 / AVC / MPEG-4 AVC / MPEG-4 part 10</property>
  <property name="meta.media.0.codec.bit_rate">12019895</property>
  <property name="meta.attr.0.stream.creation_time.markup">2021-08-05T03:44:13.000000Z</property>
  <property name="meta.attr.0.stream.language.markup">eng</property>
  <property name="meta.attr.0.stream.handler_name.markup">VideoHandle</property>
  <property name="meta.attr.0.stream.vendor_id.markup">[0][0][0][0]</property>
  <property name="meta.media.1.stream.type">audio</property>
  <property name="meta.media.1.codec.sample_fmt">fltp</property>
  <property name="meta.media.1.codec.sample_rate">48000</property>
  <property name="meta.media.1.codec.channels">2</property>
  <property name="meta.media.1.codec.name">aac</property>
  <property name="meta.media.1.codec.long_name">AAC (Advanced Audio Coding)</property>
  <property name="meta.media.1.codec.bit_rate">192212</property>
  <property name="meta.attr.1.stream.creation_time.markup">2021-08-05T03:44:13.000000Z</property>
  <property name="meta.attr.1.stream.language.markup">eng</property>
  <property name="meta.attr.1.stream.handler_name.markup">SoundHandle</property>
  <property name="meta.attr.1.stream.vendor_id.markup">[0][0][0][0]</property>
  <property name="meta.attr.major_brand.markup">mp42</property>
  <property name="meta.attr.minor_version.markup">0</property>
  <property name="meta.attr.compatible_brands.markup">isommp42</property>
  <property name="meta.attr.creation_time.markup">2021-08-05T03:44:13.000000Z</property>
  <property name="meta.attr.com.android.version.markup">8.0.0</property>
  <property name="meta.media.sample_aspect_num">1</property>
  <property name="meta.media.sample_aspect_den">1</property>
  <property name="meta.media.frame_rate_num">695000</property>
  <property name="meta.media.frame_rate_den">23031</property>
  <property name="meta.media.colorspace">709</property>
  <property name="meta.media.color_trc">1</property>
  <property name="meta.media.width">1280</property>
  <property name="meta.media.height">720</property>
  <property name="meta.media.color_range">mpeg</property>
  <property name="meta.media.top_field_first">0</property>
  <property name="meta.media.progressive">1</property>
  <property name="set.test_audio">0</property>
  <property name="set.test_image">1</property>
 </producer>
 <playlist id="playlist0">
  <property name="kdenlive:audio_track">1</property>
  <blank length="00:00:57.067"/>
  <entry producer="producer62" in="00:00:00.000" out="00:00:03.067">
   <property name="kdenlive:id">11</property>
  </entry>
  <blank length="00:00:28.300"/>
  <entry producer="producer63" in="00:00:00.000" out="00:00:03.067">
   <property name="kdenlive:id">5</property>
  </entry>
  <blank length="00:00:13.367"/>
  <entry producer="producer64" in="00:00:00.967" out="00:00:11.900">
   <property name="kdenlive:id">6</property>
  </entry>
  <blank length="00:00:01.833"/>
  <entry producer="producer65" in="00:00:02.633" out="00:00:09.733">
   <property name="kdenlive:id">13</property>
  </entry>
  <blank length="00:00:05.733"/>
  <entry producer="producer66" in="00:00:00.000" out="00:00:03.700">
   <property name="kdenlive:id">12</property>
  </entry>
  <blank length="00:00:18.733"/>
  <entry producer="producer67" in="00:00:00.000" out="00:00:03.600">
   <property name="kdenlive:id">2</property>
  </entry>
  <entry producer="producer67" in="00:00:03.633" out="00:00:05.000">
   <property name="kdenlive:id">2</property>
  </entry>
  <blank length="00:00:15.667"/>
  <entry producer="producer68" in="00:00:00.000" out="00:00:03.633">
   <property name="kdenlive:id">3</property>
  </entry>
  <blank length="00:00:12.333"/>
  <entry producer="producer69" in="00:00:03.900" out="00:00:07.467">
   <property name="kdenlive:id">6</property>
  </entry>
  <blank length="00:00:10.967"/>
  <entry producer="producer70" in="00:00:00.000" out="00:00:03.633">
   <property name="kdenlive:id">4</property>
  </entry>
  <blank length="00:00:03.733"/>
  <entry producer="producer71" in="00:00:01.633" out="00:00:08.467">
   <property name="kdenlive:id">8</property>
  </entry>
  <entry producer="producer71" in="00:00:08.500" out="00:00:09.233">
   <property name="kdenlive:id">8</property>
  </entry>
 </playlist>
 <playlist id="playlist1"/>
 <tractor id="tractor1" in="00:00:00.000" out="00:03:39.333">
  <property name="kdenlive:audio_track">1</property>
  <property name="kdenlive:trackheight">69</property>
  <property name="kdenlive:timeline_active">1</property>
  <property name="kdenlive:collapsed">28</property>
  <property name="kdenlive:thumbs_format"/>
  <property name="kdenlive:audio_rec"/>
  <track hide="both" producer="playlist0"/>
  <track hide="video" producer="playlist1"/>
  <filter id="filter1">
   <property name="window">75</property>
   <property name="max_gain">20dB</property>
   <property name="mlt_service">volume</property>
   <property name="internal_added">237</property>
   <property name="disable">1</property>
  </filter>
  <filter id="filter2">
   <property name="channel">-1</property>
   <property name="mlt_service">panner</property>
   <property name="internal_added">237</property>
   <property name="start">0.5</property>
   <property name="disable">1</property>
  </filter>
  <filter id="filter0">
   <property name="iec_scale">0</property>
   <property name="mlt_service">audiolevel</property>
   <property name="disable">1</property>
  </filter>
 </tractor>
 <producer id="producer72" in="00:00:00.000" out="00:00:11.633">
  <property name="length">350</property>
  <property name="eof">pause</property>
  <property name="resource">0.377143:冗余的.mp4</property>
  <property name="aspect_ratio">1</property>
  <property name="meta.media.nb_streams">2</property>
  <property name="meta.media.0.stream.type">video</property>
  <property name="meta.media.0.stream.frame_rate">30.1186</property>
  <property name="meta.media.0.stream.sample_aspect_ratio">1</property>
  <property name="meta.media.0.codec.width">1280</property>
  <property name="meta.media.0.codec.height">720</property>
  <property name="meta.media.0.codec.rotate">0</property>
  <property name="meta.media.0.codec.frame_rate">30</property>
  <property name="meta.media.0.codec.pix_fmt">yuv420p</property>
  <property name="meta.media.0.codec.sample_aspect_ratio">0</property>
  <property name="meta.media.0.codec.colorspace">709</property>
  <property name="meta.media.0.codec.color_trc">1</property>
  <property name="meta.media.0.codec.name">h264</property>
  <property name="meta.media.0.codec.long_name">H.264 / AVC / MPEG-4 AVC / MPEG-4 part 10</property>
  <property name="meta.media.0.codec.bit_rate">5794434</property>
  <property name="meta.attr.0.stream.creation_time.markup">2021-08-05T03:45:10.000000Z</property>
  <property name="meta.attr.0.stream.language.markup">eng</property>
  <property name="meta.attr.0.stream.handler_name.markup">VideoHandle</property>
  <property name="meta.attr.0.stream.vendor_id.markup">[0][0][0][0]</property>
  <property name="meta.media.1.stream.type">audio</property>
  <property name="meta.media.1.codec.sample_fmt">fltp</property>
  <property name="meta.media.1.codec.sample_rate">48000</property>
  <property name="meta.media.1.codec.channels">2</property>
  <property name="meta.media.1.codec.name">aac</property>
  <property name="meta.media.1.codec.long_name">AAC (Advanced Audio Coding)</property>
  <property name="meta.media.1.codec.bit_rate">192424</property>
  <property name="meta.attr.1.stream.creation_time.markup">2021-08-05T03:45:10.000000Z</property>
  <property name="meta.attr.1.stream.language.markup">eng</property>
  <property name="meta.attr.1.stream.handler_name.markup">SoundHandle</property>
  <property name="meta.attr.1.stream.vendor_id.markup">[0][0][0][0]</property>
  <property name="meta.attr.major_brand.markup">mp42</property>
  <property name="meta.attr.minor_version.markup">0</property>
  <property name="meta.attr.compatible_brands.markup">isommp42</property>
  <property name="meta.attr.creation_time.markup">2021-08-05T03:45:10.000000Z</property>
  <property name="meta.attr.com.android.version.markup">8.0.0</property>
  <property name="seekable">1</property>
  <property name="meta.media.sample_aspect_num">1</property>
  <property name="meta.media.sample_aspect_den">1</property>
  <property name="audio_index">1</property>
  <property name="video_index">0</property>
  <property name="mute_on_pause">1</property>
  <property name="warp_speed">0.377143</property>
  <property name="warp_resource">冗余的.mp4</property>
  <property name="mlt_service">timewarp</property>
  <property name="set.test_audio">0</property>
  <property name="set.test_image">1</property>
  <property name="kdenlive:id">9</property>
  <property name="warp_pitch">0</property>
  <property name="meta.media.frame_rate_num">11790000</property>
  <property name="meta.media.frame_rate_den">391453</property>
  <property name="meta.media.colorspace">709</property>
  <property name="meta.media.color_trc">1</property>
  <property name="meta.media.width">1280</property>
  <property name="meta.media.height">720</property>
  <property name="meta.media.color_range">mpeg</property>
 </producer>
 <producer id="producer73" in="00:00:00.000" out="00:00:06.300">
  <property name="length">190</property>
  <property name="eof">pause</property>
  <property name="resource">又不用作感言2.webm</property>
  <property name="audio_index">1</property>
  <property name="video_index">0</property>
  <property name="mute_on_pause">0</property>
  <property name="mlt_service">avformat-novalidate</property>
  <property name="seekable">1</property>
  <property name="aspect_ratio">1</property>
  <property name="kdenlive:clipname"/>
  <property name="kdenlive:folderid">-1</property>
  <property name="kdenlive:id">14</property>
  <property name="kdenlive:file_size">295018</property>
  <property name="kdenlive:file_hash">02446ce0e9ced937e261e9bc38bdd7f1</property>
  <property name="global_feed">1</property>
  <property name="kdenlive:audio_max">1</property>
  <property name="xml">was here</property>
  <property name="meta.media.nb_streams">2</property>
  <property name="meta.media.0.stream.type">video</property>
  <property name="meta.media.0.stream.frame_rate">30</property>
  <property name="meta.media.0.stream.sample_aspect_ratio">1</property>
  <property name="meta.media.0.codec.width">640</property>
  <property name="meta.media.0.codec.height">480</property>
  <property name="meta.media.0.codec.rotate">0</property>
  <property name="meta.media.0.codec.frame_rate">1000</property>
  <property name="meta.media.0.codec.pix_fmt">yuv420p</property>
  <property name="meta.media.0.codec.sample_aspect_ratio">0</property>
  <property name="meta.media.0.codec.colorspace">601</property>
  <property name="meta.media.0.codec.color_trc">6</property>
  <property name="meta.media.0.codec.name">vp8</property>
  <property name="meta.media.0.codec.long_name">On2 VP8</property>
  <property name="meta.media.0.codec.bit_rate">0</property>
  <property name="meta.attr.0.stream.language.markup">eng</property>
  <property name="meta.attr.0.stream.title.markup">Video</property>
  <property name="meta.media.1.stream.type">audio</property>
  <property name="meta.media.1.codec.sample_fmt">fltp</property>
  <property name="meta.media.1.codec.sample_rate">44100</property>
  <property name="meta.media.1.codec.channels">1</property>
  <property name="meta.media.1.codec.name">vorbis</property>
  <property name="meta.media.1.codec.long_name">Vorbis</property>
  <property name="meta.media.1.codec.bit_rate">0</property>
  <property name="meta.attr.1.stream.language.markup">eng</property>
  <property name="meta.attr.1.stream.title.markup">Audio</property>
  <property name="meta.attr.encoder.markup">GStreamer matroskamux version 1.18.4</property>
  <property name="meta.attr.creation_time.markup">2021-08-05T12:55:31.171334Z</property>
  <property name="meta.media.sample_aspect_num">1</property>
  <property name="meta.media.sample_aspect_den">1</property>
  <property name="meta.media.frame_rate_num">30</property>
  <property name="meta.media.frame_rate_den">1</property>
  <property name="meta.media.colorspace">601</property>
  <property name="meta.media.color_trc">6</property>
  <property name="meta.media.width">640</property>
  <property name="meta.media.height">480</property>
  <property name="meta.media.color_range">mpeg</property>
  <property name="meta.media.top_field_first">0</property>
  <property name="meta.media.progressive">1</property>
  <property name="set.test_audio">0</property>
  <property name="set.test_image">1</property>
 </producer>
 <producer id="producer74" in="00:00:00.000" out="00:00:05.233">
  <property name="length">158</property>
  <property name="eof">pause</property>
  <property name="resource">1.721519:上课.mp4</property>
  <property name="aspect_ratio">1</property>
  <property name="meta.media.nb_streams">2</property>
  <property name="meta.media.0.stream.type">video</property>
  <property name="meta.media.0.stream.frame_rate">30.2135</property>
  <property name="meta.media.0.stream.sample_aspect_ratio">1</property>
  <property name="meta.media.0.codec.width">1280</property>
  <property name="meta.media.0.codec.height">720</property>
  <property name="meta.media.0.codec.rotate">0</property>
  <property name="meta.media.0.codec.frame_rate">30</property>
  <property name="meta.media.0.codec.pix_fmt">yuv420p</property>
  <property name="meta.media.0.codec.sample_aspect_ratio">0</property>
  <property name="meta.media.0.codec.colorspace">709</property>
  <property name="meta.media.0.codec.color_trc">1</property>
  <property name="meta.media.0.codec.name">h264</property>
  <property name="meta.media.0.codec.long_name">H.264 / AVC / MPEG-4 AVC / MPEG-4 part 10</property>
  <property name="meta.media.0.codec.bit_rate">6438858</property>
  <property name="meta.attr.0.stream.creation_time.markup">2021-08-05T03:41:15.000000Z</property>
  <property name="meta.attr.0.stream.language.markup">eng</property>
  <property name="meta.attr.0.stream.handler_name.markup">VideoHandle</property>
  <property name="meta.attr.0.stream.vendor_id.markup">[0][0][0][0]</property>
  <property name="meta.media.1.stream.type">audio</property>
  <property name="meta.media.1.codec.sample_fmt">fltp</property>
  <property name="meta.media.1.codec.sample_rate">48000</property>
  <property name="meta.media.1.codec.channels">2</property>
  <property name="meta.media.1.codec.name">aac</property>
  <property name="meta.media.1.codec.long_name">AAC (Advanced Audio Coding)</property>
  <property name="meta.media.1.codec.bit_rate">192226</property>
  <property name="meta.attr.1.stream.creation_time.markup">2021-08-05T03:41:15.000000Z</property>
  <property name="meta.attr.1.stream.language.markup">eng</property>
  <property name="meta.attr.1.stream.handler_name.markup">SoundHandle</property>
  <property name="meta.attr.1.stream.vendor_id.markup">[0][0][0][0]</property>
  <property name="meta.attr.major_brand.markup">mp42</property>
  <property name="meta.attr.minor_version.markup">0</property>
  <property name="meta.attr.compatible_brands.markup">isommp42</property>
  <property name="meta.attr.creation_time.markup">2021-08-05T03:41:15.000000Z</property>
  <property name="meta.attr.com.android.version.markup">8.0.0</property>
  <property name="seekable">1</property>
  <property name="meta.media.sample_aspect_num">1</property>
  <property name="meta.media.sample_aspect_den">1</property>
  <property name="audio_index">1</property>
  <property name="video_index">0</property>
  <property name="mute_on_pause">1</property>
  <property name="warp_speed">1.72152</property>
  <property name="warp_resource">上课.mp4</property>
  <property name="mlt_service">timewarp</property>
  <property name="set.test_audio">0</property>
  <property name="set.test_image">1</property>
  <property name="kdenlive:id">10</property>
  <property name="warp_pitch">0</property>
  <property name="meta.media.frame_rate_num">24480000</property>
  <property name="meta.media.frame_rate_den">810233</property>
  <property name="meta.media.colorspace">709</property>
  <property name="meta.media.color_trc">1</property>
  <property name="meta.media.width">1280</property>
  <property name="meta.media.height">720</property>
  <property name="meta.media.color_range">mpeg</property>
 </producer>
 <producer id="producer75" in="00:00:00.000" out="00:00:05.467">
  <property name="length">165</property>
  <property name="eof">pause</property>
  <property name="resource">0.824242:其实台下.mp4</property>
  <property name="aspect_ratio">1</property>
  <property name="meta.media.nb_streams">2</property>
  <property name="meta.media.0.stream.type">video</property>
  <property name="meta.media.0.stream.frame_rate">30.173</property>
  <property name="meta.media.0.stream.sample_aspect_ratio">1</property>
  <property name="meta.media.0.codec.width">1280</property>
  <property name="meta.media.0.codec.height">720</property>
  <property name="meta.media.0.codec.rotate">0</property>
  <property name="meta.media.0.codec.frame_rate">30</property>
  <property name="meta.media.0.codec.pix_fmt">yuv420p</property>
  <property name="meta.media.0.codec.sample_aspect_ratio">0</property>
  <property name="meta.media.0.codec.colorspace">709</property>
  <property name="meta.media.0.codec.color_trc">1</property>
  <property name="meta.media.0.codec.name">h264</property>
  <property name="meta.media.0.codec.long_name">H.264 / AVC / MPEG-4 AVC / MPEG-4 part 10</property>
  <property name="meta.media.0.codec.bit_rate">10730070</property>
  <property name="meta.attr.0.stream.creation_time.markup">2021-08-05T04:42:03.000000Z</property>
  <property name="meta.attr.0.stream.language.markup">eng</property>
  <property name="meta.attr.0.stream.handler_name.markup">VideoHandle</property>
  <property name="meta.attr.0.stream.vendor_id.markup">[0][0][0][0]</property>
  <property name="meta.media.1.stream.type">audio</property>
  <property name="meta.media.1.codec.sample_fmt">fltp</property>
  <property name="meta.media.1.codec.sample_rate">48000</property>
  <property name="meta.media.1.codec.channels">2</property>
  <property name="meta.media.1.codec.name">aac</property>
  <property name="meta.media.1.codec.long_name">AAC (Advanced Audio Coding)</property>
  <property name="meta.media.1.codec.bit_rate">192348</property>
  <property name="meta.attr.1.stream.creation_time.markup">2021-08-05T04:42:03.000000Z</property>
  <property name="meta.attr.1.stream.language.markup">eng</property>
  <property name="meta.attr.1.stream.handler_name.markup">SoundHandle</property>
  <property name="meta.attr.1.stream.vendor_id.markup">[0][0][0][0]</property>
  <property name="meta.attr.major_brand.markup">mp42</property>
  <property name="meta.attr.minor_version.markup">0</property>
  <property name="meta.attr.compatible_brands.markup">isommp42</property>
  <property name="meta.attr.creation_time.markup">2021-08-05T04:42:03.000000Z</property>
  <property name="meta.attr.com.android.version.markup">8.0.0</property>
  <property name="seekable">1</property>
  <property name="meta.media.sample_aspect_num">1</property>
  <property name="meta.media.sample_aspect_den">1</property>
  <property name="audio_index">1</property>
  <property name="video_index">0</property>
  <property name="mute_on_pause">1</property>
  <property name="warp_speed">0.824242</property>
  <property name="warp_resource">其实台下.mp4</property>
  <property name="mlt_service">timewarp</property>
  <property name="set.test_audio">0</property>
  <property name="set.test_image">1</property>
  <property name="kdenlive:id">7</property>
  <property name="warp_pitch">0</property>
  <property name="meta.media.frame_rate_num">225000</property>
  <property name="meta.media.frame_rate_den">7457</property>
  <property name="meta.media.colorspace">709</property>
  <property name="meta.media.color_trc">1</property>
  <property name="meta.media.width">1280</property>
  <property name="meta.media.height">720</property>
  <property name="meta.media.color_range">mpeg</property>
 </producer>
 <producer id="producer76" in="00:00:00.000" out="00:00:04.867">
  <property name="length">147</property>
  <property name="eof">pause</property>
  <property name="resource">痴迷不舍.mp4</property>
  <property name="audio_index">1</property>
  <property name="video_index">0</property>
  <property name="mute_on_pause">0</property>
  <property name="mlt_service">avformat-novalidate</property>
  <property name="seekable">1</property>
  <property name="aspect_ratio">1</property>
  <property name="kdenlive:clipname"/>
  <property name="kdenlive:folderid">-1</property>
  <property name="kdenlive:id">3</property>
  <property name="kdenlive:file_size">6396603</property>
  <property name="kdenlive:file_hash">f109c7e51330cd8b602b47dfd7d09796</property>
  <property name="kdenlive:audio_max">8</property>
  <property name="global_feed">1</property>
  <property name="xml">was here</property>
  <property name="meta.media.nb_streams">2</property>
  <property name="meta.media.0.stream.type">video</property>
  <property name="meta.media.0.stream.frame_rate">30.0916</property>
  <property name="meta.media.0.stream.sample_aspect_ratio">1</property>
  <property name="meta.media.0.codec.width">1280</property>
  <property name="meta.media.0.codec.height">720</property>
  <property name="meta.media.0.codec.rotate">0</property>
  <property name="meta.media.0.codec.frame_rate">30</property>
  <property name="meta.media.0.codec.pix_fmt">yuv420p</property>
  <property name="meta.media.0.codec.sample_aspect_ratio">0</property>
  <property name="meta.media.0.codec.colorspace">709</property>
  <property name="meta.media.0.codec.color_trc">1</property>
  <property name="meta.media.0.codec.name">h264</property>
  <property name="meta.media.0.codec.long_name">H.264 / AVC / MPEG-4 AVC / MPEG-4 part 10</property>
  <property name="meta.media.0.codec.bit_rate">9116120</property>
  <property name="meta.attr.0.stream.creation_time.markup">2021-08-05T04:42:26.000000Z</property>
  <property name="meta.attr.0.stream.language.markup">eng</property>
  <property name="meta.attr.0.stream.handler_name.markup">VideoHandle</property>
  <property name="meta.attr.0.stream.vendor_id.markup">[0][0][0][0]</property>
  <property name="meta.media.1.stream.type">audio</property>
  <property name="meta.media.1.codec.sample_fmt">fltp</property>
  <property name="meta.media.1.codec.sample_rate">48000</property>
  <property name="meta.media.1.codec.channels">2</property>
  <property name="meta.media.1.codec.name">aac</property>
  <property name="meta.media.1.codec.long_name">AAC (Advanced Audio Coding)</property>
  <property name="meta.media.1.codec.bit_rate">192338</property>
  <property name="meta.attr.1.stream.creation_time.markup">2021-08-05T04:42:26.000000Z</property>
  <property name="meta.attr.1.stream.language.markup">eng</property>
  <property name="meta.attr.1.stream.handler_name.markup">SoundHandle</property>
  <property name="meta.attr.1.stream.vendor_id.markup">[0][0][0][0]</property>
  <property name="meta.attr.major_brand.markup">mp42</property>
  <property name="meta.attr.minor_version.markup">0</property>
  <property name="meta.attr.compatible_brands.markup">isommp42</property>
  <property name="meta.attr.creation_time.markup">2021-08-05T04:42:26.000000Z</property>
  <property name="meta.attr.com.android.version.markup">8.0.0</property>
  <property name="meta.media.sample_aspect_num">1</property>
  <property name="meta.media.sample_aspect_den">1</property>
  <property name="meta.media.frame_rate_num">3262500</property>
  <property name="meta.media.frame_rate_den">108419</property>
  <property name="meta.media.colorspace">709</property>
  <property name="meta.media.color_trc">1</property>
  <property name="meta.media.width">1280</property>
  <property name="meta.media.height">720</property>
  <property name="meta.media.color_range">mpeg</property>
  <property name="meta.media.variable_frame_rate">1</property>
  <property name="meta.media.top_field_first">0</property>
  <property name="meta.media.progressive">1</property>
  <property name="set.test_audio">0</property>
  <property name="set.test_image">1</property>
 </producer>
 <producer id="producer77" in="00:00:00.000" out="00:00:06.333">
  <property name="length">191</property>
  <property name="eof">pause</property>
  <property name="resource">才能猜测_不弱智.mp4</property>
  <property name="audio_index">1</property>
  <property name="video_index">0</property>
  <property name="mute_on_pause">0</property>
  <property name="mlt_service">avformat-novalidate</property>
  <property name="seekable">1</property>
  <property name="aspect_ratio">1</property>
  <property name="kdenlive:clipname"/>
  <property name="kdenlive:folderid">-1</property>
  <property name="kdenlive:id">2</property>
  <property name="kdenlive:file_size">10452662</property>
  <property name="kdenlive:file_hash">268f97557bf3ae81b6d5acbcefd760cc</property>
  <property name="kdenlive:audio_max">32</property>
  <property name="global_feed">1</property>
  <property name="xml">was here</property>
  <property name="meta.media.nb_streams">2</property>
  <property name="meta.media.0.stream.type">video</property>
  <property name="meta.media.0.stream.frame_rate">30.0994</property>
  <property name="meta.media.0.stream.sample_aspect_ratio">1</property>
  <property name="meta.media.0.codec.width">1280</property>
  <property name="meta.media.0.codec.height">720</property>
  <property name="meta.media.0.codec.rotate">0</property>
  <property name="meta.media.0.codec.frame_rate">30</property>
  <property name="meta.media.0.codec.pix_fmt">yuv420p</property>
  <property name="meta.media.0.codec.sample_aspect_ratio">0</property>
  <property name="meta.media.0.codec.colorspace">709</property>
  <property name="meta.media.0.codec.color_trc">1</property>
  <property name="meta.media.0.codec.name">h264</property>
  <property name="meta.media.0.codec.long_name">H.264 / AVC / MPEG-4 AVC / MPEG-4 part 10</property>
  <property name="meta.media.0.codec.bit_rate">12071951</property>
  <property name="meta.attr.0.stream.creation_time.markup">2021-08-05T03:35:46.000000Z</property>
  <property name="meta.attr.0.stream.language.markup">eng</property>
  <property name="meta.attr.0.stream.handler_name.markup">VideoHandle</property>
  <property name="meta.attr.0.stream.vendor_id.markup">[0][0][0][0]</property>
  <property name="meta.media.1.stream.type">audio</property>
  <property name="meta.media.1.codec.sample_fmt">fltp</property>
  <property name="meta.media.1.codec.sample_rate">48000</property>
  <property name="meta.media.1.codec.channels">2</property>
  <property name="meta.media.1.codec.name">aac</property>
  <property name="meta.media.1.codec.long_name">AAC (Advanced Audio Coding)</property>
  <property name="meta.media.1.codec.bit_rate">192280</property>
  <property name="meta.attr.1.stream.creation_time.markup">2021-08-05T03:35:46.000000Z</property>
  <property name="meta.attr.1.stream.language.markup">eng</property>
  <property name="meta.attr.1.stream.handler_name.markup">SoundHandle</property>
  <property name="meta.attr.1.stream.vendor_id.markup">[0][0][0][0]</property>
  <property name="meta.attr.major_brand.markup">mp42</property>
  <property name="meta.attr.minor_version.markup">0</property>
  <property name="meta.attr.compatible_brands.markup">isommp42</property>
  <property name="meta.attr.creation_time.markup">2021-08-05T03:35:46.000000Z</property>
  <property name="meta.attr.com.android.version.markup">8.0.0</property>
  <property name="meta.media.sample_aspect_num">1</property>
  <property name="meta.media.sample_aspect_den">1</property>
  <property name="meta.media.frame_rate_num">8550000</property>
  <property name="meta.media.frame_rate_den">284059</property>
  <property name="meta.media.colorspace">709</property>
  <property name="meta.media.color_trc">1</property>
  <property name="meta.media.width">1280</property>
  <property name="meta.media.height">720</property>
  <property name="meta.media.color_range">mpeg</property>
  <property name="meta.media.variable_frame_rate">1</property>
  <property name="meta.media.top_field_first">0</property>
  <property name="meta.media.progressive">1</property>
  <property name="set.test_audio">0</property>
  <property name="set.test_image">1</property>
 </producer>
 <producer id="producer78" in="00:00:00.000" out="00:00:12.300">
  <property name="length">370</property>
  <property name="eof">pause</property>
  <property name="resource">0.515789:才能猜测_不弱智.mp4</property>
  <property name="aspect_ratio">1</property>
  <property name="meta.media.nb_streams">2</property>
  <property name="meta.media.0.stream.type">video</property>
  <property name="meta.media.0.stream.frame_rate">30.0994</property>
  <property name="meta.media.0.stream.sample_aspect_ratio">1</property>
  <property name="meta.media.0.codec.width">1280</property>
  <property name="meta.media.0.codec.height">720</property>
  <property name="meta.media.0.codec.rotate">0</property>
  <property name="meta.media.0.codec.frame_rate">30</property>
  <property name="meta.media.0.codec.pix_fmt">yuv420p</property>
  <property name="meta.media.0.codec.sample_aspect_ratio">0</property>
  <property name="meta.media.0.codec.colorspace">709</property>
  <property name="meta.media.0.codec.color_trc">1</property>
  <property name="meta.media.0.codec.name">h264</property>
  <property name="meta.media.0.codec.long_name">H.264 / AVC / MPEG-4 AVC / MPEG-4 part 10</property>
  <property name="meta.media.0.codec.bit_rate">12071951</property>
  <property name="meta.attr.0.stream.creation_time.markup">2021-08-05T03:35:46.000000Z</property>
  <property name="meta.attr.0.stream.language.markup">eng</property>
  <property name="meta.attr.0.stream.handler_name.markup">VideoHandle</property>
  <property name="meta.attr.0.stream.vendor_id.markup">[0][0][0][0]</property>
  <property name="meta.media.1.stream.type">audio</property>
  <property name="meta.media.1.codec.sample_fmt">fltp</property>
  <property name="meta.media.1.codec.sample_rate">48000</property>
  <property name="meta.media.1.codec.channels">2</property>
  <property name="meta.media.1.codec.name">aac</property>
  <property name="meta.media.1.codec.long_name">AAC (Advanced Audio Coding)</property>
  <property name="meta.media.1.codec.bit_rate">192280</property>
  <property name="meta.attr.1.stream.creation_time.markup">2021-08-05T03:35:46.000000Z</property>
  <property name="meta.attr.1.stream.language.markup">eng</property>
  <property name="meta.attr.1.stream.handler_name.markup">SoundHandle</property>
  <property name="meta.attr.1.stream.vendor_id.markup">[0][0][0][0]</property>
  <property name="meta.attr.major_brand.markup">mp42</property>
  <property name="meta.attr.minor_version.markup">0</property>
  <property name="meta.attr.compatible_brands.markup">isommp42</property>
  <property name="meta.attr.creation_time.markup">2021-08-05T03:35:46.000000Z</property>
  <property name="meta.attr.com.android.version.markup">8.0.0</property>
  <property name="seekable">1</property>
  <property name="meta.media.sample_aspect_num">1</property>
  <property name="meta.media.sample_aspect_den">1</property>
  <property name="audio_index">1</property>
  <property name="video_index">0</property>
  <property name="mute_on_pause">1</property>
  <property name="warp_speed">0.515789</property>
  <property name="warp_resource">才能猜测_不弱智.mp4</property>
  <property name="mlt_service">timewarp</property>
  <property name="set.test_audio">0</property>
  <property name="set.test_image">1</property>
  <property name="kdenlive:id">2</property>
  <property name="warp_pitch">0</property>
  <property name="meta.media.frame_rate_num">8550000</property>
  <property name="meta.media.frame_rate_den">284059</property>
  <property name="meta.media.colorspace">709</property>
  <property name="meta.media.color_trc">1</property>
  <property name="meta.media.width">1280</property>
  <property name="meta.media.height">720</property>
  <property name="meta.media.color_range">mpeg</property>
 </producer>
 <playlist id="playlist2">
  <property name="kdenlive:audio_track">1</property>
  <blank length="00:00:45.333"/>
  <entry producer="producer72" in="00:00:00.000" out="00:00:11.633">
   <property name="kdenlive:id">9</property>
  </entry>
  <blank length="00:00:58.300"/>
  <entry producer="producer73" in="00:00:00.000" out="00:00:02.433">
   <property name="kdenlive:id">14</property>
  </entry>
  <blank length="00:00:09.367"/>
  <entry producer="producer74" in="00:00:00.000" out="00:00:05.233">
   <property name="kdenlive:id">10</property>
  </entry>
  <blank length="00:00:35.867"/>
  <entry producer="producer75" in="00:00:00.000" out="00:00:05.467">
   <property name="kdenlive:id">7</property>
  </entry>
  <blank length="00:00:01.833"/>
  <entry producer="producer76" in="00:00:01.833" out="00:00:04.867">
   <property name="kdenlive:id">3</property>
  </entry>
  <blank length="00:00:51.267"/>
  <entry producer="producer77" in="00:00:02.767" out="00:00:04.700">
   <property name="kdenlive:id">2</property>
  </entry>
  <entry producer="producer78" in="00:00:09.167" out="00:00:12.300">
   <property name="kdenlive:id">2</property>
  </entry>
 </playlist>
 <playlist id="playlist3"/>
 <tractor id="tractor2" in="00:00:00.000" out="00:03:55.033">
  <property name="kdenlive:audio_track">1</property>
  <property name="kdenlive:trackheight">69</property>
  <property name="kdenlive:timeline_active">1</property>
  <property name="kdenlive:collapsed">28</property>
  <property name="kdenlive:thumbs_format"/>
  <property name="kdenlive:audio_rec"/>
  <track hide="both" producer="playlist2"/>
  <track hide="video" producer="playlist3"/>
  <filter id="filter4">
   <property name="window">75</property>
   <property name="max_gain">20dB</property>
   <property name="mlt_service">volume</property>
   <property name="internal_added">237</property>
   <property name="disable">1</property>
  </filter>
  <filter id="filter5">
   <property name="channel">-1</property>
   <property name="mlt_service">panner</property>
   <property name="internal_added">237</property>
   <property name="start">0.5</property>
   <property name="disable">1</property>
  </filter>
  <filter id="filter3">
   <property name="iec_scale">0</property>
   <property name="mlt_service">audiolevel</property>
   <property name="disable">1</property>
  </filter>
 </tractor>
 <producer id="producer79" in="00:00:00.000" out="00:04:21.333">
  <property name="length">7841</property>
  <property name="eof">pause</property>
  <property name="resource">/home/duangsuse/Documents/演员/fin.mp3</property>
  <property name="audio_index">0</property>
  <property name="video_index">-1</property>
  <property name="mute_on_pause">0</property>
  <property name="mlt_service">avformat-novalidate</property>
  <property name="meta.media.nb_streams">1</property>
  <property name="meta.media.0.stream.type">audio</property>
  <property name="meta.media.0.codec.sample_fmt">fltp</property>
  <property name="meta.media.0.codec.sample_rate">48000</property>
  <property name="meta.media.0.codec.channels">2</property>
  <property name="meta.media.0.codec.name">mp3float</property>
  <property name="meta.media.0.codec.long_name">MP3 (MPEG audio layer 3)</property>
  <property name="meta.media.0.codec.bit_rate">194671</property>
  <property name="meta.attr.0.stream.encoder.markup">LAME3.100</property>
  <property name="meta.attr.Software.markup">Lavf58.76.100</property>
  <property name="seekable">1</property>
  <property name="kdenlive:clipname"/>
  <property name="kdenlive:folderid">-1</property>
  <property name="kdenlive:id">15</property>
  <property name="kdenlive:file_size">6359959</property>
  <property name="kdenlive:file_hash">e19fbfd06429e1b4e96b7e3aea868d8f</property>
  <property name="kdenlive:audio_max">1</property>
  <property name="global_feed">1</property>
  <property name="xml">was here</property>
  <property name="set.test_audio">0</property>
  <property name="set.test_image">1</property>
 </producer>
 <playlist id="playlist4">
  <property name="kdenlive:audio_track">1</property>
  <entry producer="producer79" in="00:00:00.000" out="00:04:21.333">
   <property name="kdenlive:id">15</property>
  </entry>
 </playlist>
 <playlist id="playlist5"/>
 <tractor id="tractor3" in="00:00:00.000" out="00:04:21.333">
  <property name="kdenlive:audio_track">1</property>
  <property name="kdenlive:trackheight">69</property>
  <property name="kdenlive:timeline_active">1</property>
  <property name="kdenlive:collapsed">28</property>
  <property name="kdenlive:thumbs_format"/>
  <property name="kdenlive:audio_rec"/>
  <track hide="video" producer="playlist4"/>
  <track hide="video" producer="playlist5"/>
  <filter id="filter7">
   <property name="window">75</property>
   <property name="max_gain">20dB</property>
   <property name="mlt_service">volume</property>
   <property name="internal_added">237</property>
   <property name="disable">1</property>
  </filter>
  <filter id="filter8">
   <property name="channel">-1</property>
   <property name="mlt_service">panner</property>
   <property name="internal_added">237</property>
   <property name="start">0.5</property>
   <property name="disable">1</property>
  </filter>
  <filter id="filter6">
   <property name="iec_scale">0</property>
   <property name="mlt_service">audiolevel</property>
   <property name="disable">1</property>
  </filter>
 </tractor>
 <playlist id="playlist6">
  <blank length="00:00:13.033"/>
  <entry producer="producer16" in="00:00:00.000" out="00:00:07.033">
   <property name="kdenlive:id">19</property>
  </entry>
  <blank length="00:00:52.800"/>
  <entry producer="producer29" in="00:00:00.000" out="00:00:10.500">
   <property name="kdenlive:id">34</property>
  </entry>
  <blank length="00:00:11.267"/>
  <entry producer="producer26" in="00:00:00.000" out="00:00:06.767">
   <property name="kdenlive:id">31</property>
   <filter id="filter10">
    <property name="version">0.9</property>
    <property name="mlt_service">frei0r.sigmoidaltransfer</property>
    <property name="kdenlive_id">frei0r.sigmoidaltransfer</property>
    <property name="brightness">00:00:00.000=0.95;00:00:06.767=0.94</property>
    <property name="sharpness">00:00:00.000=0.18;00:00:06.767=0.83</property>
    <property name="kdenlive:collapsed">0</property>
   </filter>
  </entry>
 </playlist>
 <playlist id="playlist7"/>
 <tractor id="tractor4" in="00:00:00.000" out="00:01:41.467">
  <property name="kdenlive:trackheight">69</property>
  <property name="kdenlive:timeline_active">1</property>
  <property name="kdenlive:collapsed">0</property>
  <property name="kdenlive:thumbs_format"/>
  <property name="kdenlive:audio_rec"/>
  <track hide="audio" producer="playlist6"/>
  <track producer="playlist7"/>
 </tractor>
 <producer id="producer80" in="00:00:00.000" out="00:00:02.800">
  <property name="length">110</property>
  <property name="eof">pause</property>
  <property name="resource">0.770833:/home/duangsuse/Documents/演员/b.mlt</property>
  <property name="aspect_ratio">1</property>
  <property name="warp_speed">0.770833</property>
  <property name="warp_resource">/home/duangsuse/Documents/演员/b.mlt</property>
  <property name="mlt_service">timewarp</property>
  <property name="audio_index">0</property>
  <property name="set.test_audio">1</property>
  <property name="set.test_image">0</property>
  <property name="kdenlive:id">16</property>
  <property name="warp_pitch">0</property>
 </producer>
 <producer id="producer81" in="00:00:00.000" out="00:00:11.633">
  <property name="length">350</property>
  <property name="eof">pause</property>
  <property name="resource">0.377143:冗余的.mp4</property>
  <property name="aspect_ratio">1</property>
  <property name="meta.media.nb_streams">2</property>
  <property name="meta.media.0.stream.type">video</property>
  <property name="meta.media.0.stream.frame_rate">30.1186</property>
  <property name="meta.media.0.stream.sample_aspect_ratio">1</property>
  <property name="meta.media.0.codec.width">1280</property>
  <property name="meta.media.0.codec.height">720</property>
  <property name="meta.media.0.codec.rotate">0</property>
  <property name="meta.media.0.codec.frame_rate">30</property>
  <property name="meta.media.0.codec.pix_fmt">yuv420p</property>
  <property name="meta.media.0.codec.sample_aspect_ratio">0</property>
  <property name="meta.media.0.codec.colorspace">709</property>
  <property name="meta.media.0.codec.color_trc">1</property>
  <property name="meta.media.0.codec.name">h264</property>
  <property name="meta.media.0.codec.long_name">H.264 / AVC / MPEG-4 AVC / MPEG-4 part 10</property>
  <property name="meta.media.0.codec.bit_rate">5794434</property>
  <property name="meta.attr.0.stream.creation_time.markup">2021-08-05T03:45:10.000000Z</property>
  <property name="meta.attr.0.stream.language.markup">eng</property>
  <property name="meta.attr.0.stream.handler_name.markup">VideoHandle</property>
  <property name="meta.attr.0.stream.vendor_id.markup">[0][0][0][0]</property>
  <property name="meta.media.1.stream.type">audio</property>
  <property name="meta.media.1.codec.sample_fmt">fltp</property>
  <property name="meta.media.1.codec.sample_rate">48000</property>
  <property name="meta.media.1.codec.channels">2</property>
  <property name="meta.media.1.codec.name">aac</property>
  <property name="meta.media.1.codec.long_name">AAC (Advanced Audio Coding)</property>
  <property name="meta.media.1.codec.bit_rate">192424</property>
  <property name="meta.attr.1.stream.creation_time.markup">2021-08-05T03:45:10.000000Z</property>
  <property name="meta.attr.1.stream.language.markup">eng</property>
  <property name="meta.attr.1.stream.handler_name.markup">SoundHandle</property>
  <property name="meta.attr.1.stream.vendor_id.markup">[0][0][0][0]</property>
  <property name="meta.attr.major_brand.markup">mp42</property>
  <property name="meta.attr.minor_version.markup">0</property>
  <property name="meta.attr.compatible_brands.markup">isommp42</property>
  <property name="meta.attr.creation_time.markup">2021-08-05T03:45:10.000000Z</property>
  <property name="meta.attr.com.android.version.markup">8.0.0</property>
  <property name="seekable">1</property>
  <property name="meta.media.sample_aspect_num">1</property>
  <property name="meta.media.sample_aspect_den">1</property>
  <property name="audio_index">1</property>
  <property name="video_index">0</property>
  <property name="mute_on_pause">1</property>
  <property name="warp_speed">0.377143</property>
  <property name="warp_resource">冗余的.mp4</property>
  <property name="mlt_service">timewarp</property>
  <property name="set.test_audio">1</property>
  <property name="set.test_image">0</property>
  <property name="kdenlive:id">9</property>
  <property name="warp_pitch">0</property>
  <property name="meta.media.frame_rate_num">11790000</property>
  <property name="meta.media.frame_rate_den">391453</property>
  <property name="meta.media.colorspace">709</property>
  <property name="meta.media.color_trc">1</property>
  <property name="meta.media.width">1280</property>
  <property name="meta.media.height">720</property>
  <property name="meta.media.color_range">mpeg</property>
  <property name="meta.media.variable_frame_rate">1</property>
  <property name="meta.media.top_field_first">0</property>
  <property name="meta.media.progressive">1</property>
 </producer>
 <producer id="producer82" in="00:00:00.000" out="00:00:06.300">
  <property name="length">190</property>
  <property name="eof">pause</property>
  <property name="resource">又不用作感言2.webm</property>
  <property name="audio_index">1</property>
  <property name="video_index">0</property>
  <property name="mute_on_pause">0</property>
  <property name="mlt_service">avformat-novalidate</property>
  <property name="seekable">1</property>
  <property name="aspect_ratio">1</property>
  <property name="kdenlive:clipname"/>
  <property name="kdenlive:folderid">-1</property>
  <property name="kdenlive:id">14</property>
  <property name="kdenlive:file_size">295018</property>
  <property name="kdenlive:file_hash">02446ce0e9ced937e261e9bc38bdd7f1</property>
  <property name="global_feed">1</property>
  <property name="kdenlive:audio_max">1</property>
  <property name="xml">was here</property>
  <property name="meta.media.nb_streams">2</property>
  <property name="meta.media.0.stream.type">video</property>
  <property name="meta.media.0.stream.frame_rate">30</property>
  <property name="meta.media.0.stream.sample_aspect_ratio">1</property>
  <property name="meta.media.0.codec.width">640</property>
  <property name="meta.media.0.codec.height">480</property>
  <property name="meta.media.0.codec.rotate">0</property>
  <property name="meta.media.0.codec.frame_rate">1000</property>
  <property name="meta.media.0.codec.pix_fmt">yuv420p</property>
  <property name="meta.media.0.codec.sample_aspect_ratio">0</property>
  <property name="meta.media.0.codec.colorspace">601</property>
  <property name="meta.media.0.codec.color_trc">6</property>
  <property name="meta.media.0.codec.name">vp8</property>
  <property name="meta.media.0.codec.long_name">On2 VP8</property>
  <property name="meta.media.0.codec.bit_rate">0</property>
  <property name="meta.attr.0.stream.language.markup">eng</property>
  <property name="meta.attr.0.stream.title.markup">Video</property>
  <property name="meta.media.1.stream.type">audio</property>
  <property name="meta.media.1.codec.sample_fmt">fltp</property>
  <property name="meta.media.1.codec.sample_rate">44100</property>
  <property name="meta.media.1.codec.channels">1</property>
  <property name="meta.media.1.codec.name">vorbis</property>
  <property name="meta.media.1.codec.long_name">Vorbis</property>
  <property name="meta.media.1.codec.bit_rate">0</property>
  <property name="meta.attr.1.stream.language.markup">eng</property>
  <property name="meta.attr.1.stream.title.markup">Audio</property>
  <property name="meta.attr.encoder.markup">GStreamer matroskamux version 1.18.4</property>
  <property name="meta.attr.creation_time.markup">2021-08-05T12:55:31.171334Z</property>
  <property name="meta.media.sample_aspect_num">1</property>
  <property name="meta.media.sample_aspect_den">1</property>
  <property name="meta.media.frame_rate_num">30</property>
  <property name="meta.media.frame_rate_den">1</property>
  <property name="meta.media.colorspace">601</property>
  <property name="meta.media.color_trc">6</property>
  <property name="meta.media.width">640</property>
  <property name="meta.media.height">480</property>
  <property name="meta.media.color_range">mpeg</property>
  <property name="meta.media.top_field_first">0</property>
  <property name="meta.media.progressive">1</property>
  <property name="set.test_audio">1</property>
  <property name="set.test_image">0</property>
 </producer>
 <producer id="producer83" in="00:00:00.000" out="00:00:05.233">
  <property name="length">158</property>
  <property name="eof">pause</property>
  <property name="resource">1.721519:上课.mp4</property>
  <property name="aspect_ratio">1</property>
  <property name="meta.media.nb_streams">2</property>
  <property name="meta.media.0.stream.type">video</property>
  <property name="meta.media.0.stream.frame_rate">30.2135</property>
  <property name="meta.media.0.stream.sample_aspect_ratio">1</property>
  <property name="meta.media.0.codec.width">1280</property>
  <property name="meta.media.0.codec.height">720</property>
  <property name="meta.media.0.codec.rotate">0</property>
  <property name="meta.media.0.codec.frame_rate">30</property>
  <property name="meta.media.0.codec.pix_fmt">yuv420p</property>
  <property name="meta.media.0.codec.sample_aspect_ratio">0</property>
  <property name="meta.media.0.codec.colorspace">709</property>
  <property name="meta.media.0.codec.color_trc">1</property>
  <property name="meta.media.0.codec.name">h264</property>
  <property name="meta.media.0.codec.long_name">H.264 / AVC / MPEG-4 AVC / MPEG-4 part 10</property>
  <property name="meta.media.0.codec.bit_rate">6438858</property>
  <property name="meta.attr.0.stream.creation_time.markup">2021-08-05T03:41:15.000000Z</property>
  <property name="meta.attr.0.stream.language.markup">eng</property>
  <property name="meta.attr.0.stream.handler_name.markup">VideoHandle</property>
  <property name="meta.attr.0.stream.vendor_id.markup">[0][0][0][0]</property>
  <property name="meta.media.1.stream.type">audio</property>
  <property name="meta.media.1.codec.sample_fmt">fltp</property>
  <property name="meta.media.1.codec.sample_rate">48000</property>
  <property name="meta.media.1.codec.channels">2</property>
  <property name="meta.media.1.codec.name">aac</property>
  <property name="meta.media.1.codec.long_name">AAC (Advanced Audio Coding)</property>
  <property name="meta.media.1.codec.bit_rate">192226</property>
  <property name="meta.attr.1.stream.creation_time.markup">2021-08-05T03:41:15.000000Z</property>
  <property name="meta.attr.1.stream.language.markup">eng</property>
  <property name="meta.attr.1.stream.handler_name.markup">SoundHandle</property>
  <property name="meta.attr.1.stream.vendor_id.markup">[0][0][0][0]</property>
  <property name="meta.attr.major_brand.markup">mp42</property>
  <property name="meta.attr.minor_version.markup">0</property>
  <property name="meta.attr.compatible_brands.markup">isommp42</property>
  <property name="meta.attr.creation_time.markup">2021-08-05T03:41:15.000000Z</property>
  <property name="meta.attr.com.android.version.markup">8.0.0</property>
  <property name="seekable">1</property>
  <property name="meta.media.sample_aspect_num">1</property>
  <property name="meta.media.sample_aspect_den">1</property>
  <property name="audio_index">1</property>
  <property name="video_index">0</property>
  <property name="mute_on_pause">1</property>
  <property name="warp_speed">1.72152</property>
  <property name="warp_resource">上课.mp4</property>
  <property name="mlt_service">timewarp</property>
  <property name="set.test_audio">1</property>
  <property name="set.test_image">0</property>
  <property name="kdenlive:id">10</property>
  <property name="warp_pitch">0</property>
  <property name="meta.media.frame_rate_num">24480000</property>
  <property name="meta.media.frame_rate_den">810233</property>
  <property name="meta.media.colorspace">709</property>
  <property name="meta.media.color_trc">1</property>
  <property name="meta.media.width">1280</property>
  <property name="meta.media.height">720</property>
  <property name="meta.media.color_range">mpeg</property>
  <property name="meta.media.variable_frame_rate">1</property>
  <property name="meta.media.top_field_first">0</property>
  <property name="meta.media.progressive">1</property>
 </producer>
 <producer id="producer84" in="00:00:00.000" out="00:00:05.467">
  <property name="length">165</property>
  <property name="eof">pause</property>
  <property name="resource">0.824242:其实台下.mp4</property>
  <property name="aspect_ratio">1</property>
  <property name="meta.media.nb_streams">2</property>
  <property name="meta.media.0.stream.type">video</property>
  <property name="meta.media.0.stream.frame_rate">30.173</property>
  <property name="meta.media.0.stream.sample_aspect_ratio">1</property>
  <property name="meta.media.0.codec.width">1280</property>
  <property name="meta.media.0.codec.height">720</property>
  <property name="meta.media.0.codec.rotate">0</property>
  <property name="meta.media.0.codec.frame_rate">30</property>
  <property name="meta.media.0.codec.pix_fmt">yuv420p</property>
  <property name="meta.media.0.codec.sample_aspect_ratio">0</property>
  <property name="meta.media.0.codec.colorspace">709</property>
  <property name="meta.media.0.codec.color_trc">1</property>
  <property name="meta.media.0.codec.name">h264</property>
  <property name="meta.media.0.codec.long_name">H.264 / AVC / MPEG-4 AVC / MPEG-4 part 10</property>
  <property name="meta.media.0.codec.bit_rate">10730070</property>
  <property name="meta.attr.0.stream.creation_time.markup">2021-08-05T04:42:03.000000Z</property>
  <property name="meta.attr.0.stream.language.markup">eng</property>
  <property name="meta.attr.0.stream.handler_name.markup">VideoHandle</property>
  <property name="meta.attr.0.stream.vendor_id.markup">[0][0][0][0]</property>
  <property name="meta.media.1.stream.type">audio</property>
  <property name="meta.media.1.codec.sample_fmt">fltp</property>
  <property name="meta.media.1.codec.sample_rate">48000</property>
  <property name="meta.media.1.codec.channels">2</property>
  <property name="meta.media.1.codec.name">aac</property>
  <property name="meta.media.1.codec.long_name">AAC (Advanced Audio Coding)</property>
  <property name="meta.media.1.codec.bit_rate">192348</property>
  <property name="meta.attr.1.stream.creation_time.markup">2021-08-05T04:42:03.000000Z</property>
  <property name="meta.attr.1.stream.language.markup">eng</property>
  <property name="meta.attr.1.stream.handler_name.markup">SoundHandle</property>
  <property name="meta.attr.1.stream.vendor_id.markup">[0][0][0][0]</property>
  <property name="meta.attr.major_brand.markup">mp42</property>
  <property name="meta.attr.minor_version.markup">0</property>
  <property name="meta.attr.compatible_brands.markup">isommp42</property>
  <property name="meta.attr.creation_time.markup">2021-08-05T04:42:03.000000Z</property>
  <property name="meta.attr.com.android.version.markup">8.0.0</property>
  <property name="seekable">1</property>
  <property name="meta.media.sample_aspect_num">1</property>
  <property name="meta.media.sample_aspect_den">1</property>
  <property name="audio_index">1</property>
  <property name="video_index">0</property>
  <property name="mute_on_pause">1</property>
  <property name="warp_speed">0.824242</property>
  <property name="warp_resource">其实台下.mp4</property>
  <property name="mlt_service">timewarp</property>
  <property name="set.test_audio">1</property>
  <property name="set.test_image">0</property>
  <property name="kdenlive:id">7</property>
  <property name="warp_pitch">0</property>
  <property name="meta.media.frame_rate_num">225000</property>
  <property name="meta.media.frame_rate_den">7457</property>
  <property name="meta.media.colorspace">709</property>
  <property name="meta.media.color_trc">1</property>
  <property name="meta.media.width">1280</property>
  <property name="meta.media.height">720</property>
  <property name="meta.media.color_range">mpeg</property>
  <property name="meta.media.top_field_first">0</property>
  <property name="meta.media.progressive">1</property>
 </producer>
 <producer id="producer85" in="00:00:00.000" out="00:00:04.867">
  <property name="length">147</property>
  <property name="eof">pause</property>
  <property name="resource">痴迷不舍.mp4</property>
  <property name="audio_index">1</property>
  <property name="video_index">0</property>
  <property name="mute_on_pause">0</property>
  <property name="mlt_service">avformat-novalidate</property>
  <property name="seekable">1</property>
  <property name="aspect_ratio">1</property>
  <property name="kdenlive:clipname"/>
  <property name="kdenlive:folderid">-1</property>
  <property name="kdenlive:id">3</property>
  <property name="kdenlive:file_size">6396603</property>
  <property name="kdenlive:file_hash">f109c7e51330cd8b602b47dfd7d09796</property>
  <property name="kdenlive:audio_max">8</property>
  <property name="global_feed">1</property>
  <property name="xml">was here</property>
  <property name="meta.media.nb_streams">2</property>
  <property name="meta.media.0.stream.type">video</property>
  <property name="meta.media.0.stream.frame_rate">30.0916</property>
  <property name="meta.media.0.stream.sample_aspect_ratio">1</property>
  <property name="meta.media.0.codec.width">1280</property>
  <property name="meta.media.0.codec.height">720</property>
  <property name="meta.media.0.codec.rotate">0</property>
  <property name="meta.media.0.codec.frame_rate">30</property>
  <property name="meta.media.0.codec.pix_fmt">yuv420p</property>
  <property name="meta.media.0.codec.sample_aspect_ratio">0</property>
  <property name="meta.media.0.codec.colorspace">709</property>
  <property name="meta.media.0.codec.color_trc">1</property>
  <property name="meta.media.0.codec.name">h264</property>
  <property name="meta.media.0.codec.long_name">H.264 / AVC / MPEG-4 AVC / MPEG-4 part 10</property>
  <property name="meta.media.0.codec.bit_rate">9116120</property>
  <property name="meta.attr.0.stream.creation_time.markup">2021-08-05T04:42:26.000000Z</property>
  <property name="meta.attr.0.stream.language.markup">eng</property>
  <property name="meta.attr.0.stream.handler_name.markup">VideoHandle</property>
  <property name="meta.attr.0.stream.vendor_id.markup">[0][0][0][0]</property>
  <property name="meta.media.1.stream.type">audio</property>
  <property name="meta.media.1.codec.sample_fmt">fltp</property>
  <property name="meta.media.1.codec.sample_rate">48000</property>
  <property name="meta.media.1.codec.channels">2</property>
  <property name="meta.media.1.codec.name">aac</property>
  <property name="meta.media.1.codec.long_name">AAC (Advanced Audio Coding)</property>
  <property name="meta.media.1.codec.bit_rate">192338</property>
  <property name="meta.attr.1.stream.creation_time.markup">2021-08-05T04:42:26.000000Z</property>
  <property name="meta.attr.1.stream.language.markup">eng</property>
  <property name="meta.attr.1.stream.handler_name.markup">SoundHandle</property>
  <property name="meta.attr.1.stream.vendor_id.markup">[0][0][0][0]</property>
  <property name="meta.attr.major_brand.markup">mp42</property>
  <property name="meta.attr.minor_version.markup">0</property>
  <property name="meta.attr.compatible_brands.markup">isommp42</property>
  <property name="meta.attr.creation_time.markup">2021-08-05T04:42:26.000000Z</property>
  <property name="meta.attr.com.android.version.markup">8.0.0</property>
  <property name="meta.media.sample_aspect_num">1</property>
  <property name="meta.media.sample_aspect_den">1</property>
  <property name="meta.media.frame_rate_num">3262500</property>
  <property name="meta.media.frame_rate_den">108419</property>
  <property name="meta.media.colorspace">709</property>
  <property name="meta.media.color_trc">1</property>
  <property name="meta.media.width">1280</property>
  <property name="meta.media.height">720</property>
  <property name="meta.media.color_range">mpeg</property>
  <property name="meta.media.variable_frame_rate">1</property>
  <property name="meta.media.top_field_first">0</property>
  <property name="meta.media.progressive">1</property>
  <property name="set.test_audio">1</property>
  <property name="set.test_image">0</property>
 </producer>
 <producer id="producer86" in="00:00:00.000" out="00:00:06.333">
  <property name="length">191</property>
  <property name="eof">pause</property>
  <property name="resource">才能猜测_不弱智.mp4</property>
  <property name="audio_index">1</property>
  <property name="video_index">0</property>
  <property name="mute_on_pause">0</property>
  <property name="mlt_service">avformat-novalidate</property>
  <property name="seekable">1</property>
  <property name="aspect_ratio">1</property>
  <property name="kdenlive:clipname"/>
  <property name="kdenlive:folderid">-1</property>
  <property name="kdenlive:id">2</property>
  <property name="kdenlive:file_size">10452662</property>
  <property name="kdenlive:file_hash">268f97557bf3ae81b6d5acbcefd760cc</property>
  <property name="kdenlive:audio_max">32</property>
  <property name="global_feed">1</property>
  <property name="xml">was here</property>
  <property name="meta.media.nb_streams">2</property>
  <property name="meta.media.0.stream.type">video</property>
  <property name="meta.media.0.stream.frame_rate">30.0994</property>
  <property name="meta.media.0.stream.sample_aspect_ratio">1</property>
  <property name="meta.media.0.codec.width">1280</property>
  <property name="meta.media.0.codec.height">720</property>
  <property name="meta.media.0.codec.rotate">0</property>
  <property name="meta.media.0.codec.frame_rate">30</property>
  <property name="meta.media.0.codec.pix_fmt">yuv420p</property>
  <property name="meta.media.0.codec.sample_aspect_ratio">0</property>
  <property name="meta.media.0.codec.colorspace">709</property>
  <property name="meta.media.0.codec.color_trc">1</property>
  <property name="meta.media.0.codec.name">h264</property>
  <property name="meta.media.0.codec.long_name">H.264 / AVC / MPEG-4 AVC / MPEG-4 part 10</property>
  <property name="meta.media.0.codec.bit_rate">12071951</property>
  <property name="meta.attr.0.stream.creation_time.markup">2021-08-05T03:35:46.000000Z</property>
  <property name="meta.attr.0.stream.language.markup">eng</property>
  <property name="meta.attr.0.stream.handler_name.markup">VideoHandle</property>
  <property name="meta.attr.0.stream.vendor_id.markup">[0][0][0][0]</property>
  <property name="meta.media.1.stream.type">audio</property>
  <property name="meta.media.1.codec.sample_fmt">fltp</property>
  <property name="meta.media.1.codec.sample_rate">48000</property>
  <property name="meta.media.1.codec.channels">2</property>
  <property name="meta.media.1.codec.name">aac</property>
  <property name="meta.media.1.codec.long_name">AAC (Advanced Audio Coding)</property>
  <property name="meta.media.1.codec.bit_rate">192280</property>
  <property name="meta.attr.1.stream.creation_time.markup">2021-08-05T03:35:46.000000Z</property>
  <property name="meta.attr.1.stream.language.markup">eng</property>
  <property name="meta.attr.1.stream.handler_name.markup">SoundHandle</property>
  <property name="meta.attr.1.stream.vendor_id.markup">[0][0][0][0]</property>
  <property name="meta.attr.major_brand.markup">mp42</property>
  <property name="meta.attr.minor_version.markup">0</property>
  <property name="meta.attr.compatible_brands.markup">isommp42</property>
  <property name="meta.attr.creation_time.markup">2021-08-05T03:35:46.000000Z</property>
  <property name="meta.attr.com.android.version.markup">8.0.0</property>
  <property name="meta.media.sample_aspect_num">1</property>
  <property name="meta.media.sample_aspect_den">1</property>
  <property name="meta.media.frame_rate_num">8550000</property>
  <property name="meta.media.frame_rate_den">284059</property>
  <property name="meta.media.colorspace">709</property>
  <property name="meta.media.color_trc">1</property>
  <property name="meta.media.width">1280</property>
  <property name="meta.media.height">720</property>
  <property name="meta.media.color_range">mpeg</property>
  <property name="meta.media.variable_frame_rate">1</property>
  <property name="meta.media.top_field_first">0</property>
  <property name="meta.media.progressive">1</property>
  <property name="set.test_audio">1</property>
  <property name="set.test_image">0</property>
 </producer>
 <producer id="producer87" in="00:00:00.000" out="00:00:12.300">
  <property name="length">370</property>
  <property name="eof">pause</property>
  <property name="resource">0.515789:才能猜测_不弱智.mp4</property>
  <property name="aspect_ratio">1</property>
  <property name="meta.media.nb_streams">2</property>
  <property name="meta.media.0.stream.type">video</property>
  <property name="meta.media.0.stream.frame_rate">30.0994</property>
  <property name="meta.media.0.stream.sample_aspect_ratio">1</property>
  <property name="meta.media.0.codec.width">1280</property>
  <property name="meta.media.0.codec.height">720</property>
  <property name="meta.media.0.codec.rotate">0</property>
  <property name="meta.media.0.codec.frame_rate">30</property>
  <property name="meta.media.0.codec.pix_fmt">yuv420p</property>
  <property name="meta.media.0.codec.sample_aspect_ratio">0</property>
  <property name="meta.media.0.codec.colorspace">709</property>
  <property name="meta.media.0.codec.color_trc">1</property>
  <property name="meta.media.0.codec.name">h264</property>
  <property name="meta.media.0.codec.long_name">H.264 / AVC / MPEG-4 AVC / MPEG-4 part 10</property>
  <property name="meta.media.0.codec.bit_rate">12071951</property>
  <property name="meta.attr.0.stream.creation_time.markup">2021-08-05T03:35:46.000000Z</property>
  <property name="meta.attr.0.stream.language.markup">eng</property>
  <property name="meta.attr.0.stream.handler_name.markup">VideoHandle</property>
  <property name="meta.attr.0.stream.vendor_id.markup">[0][0][0][0]</property>
  <property name="meta.media.1.stream.type">audio</property>
  <property name="meta.media.1.codec.sample_fmt">fltp</property>
  <property name="meta.media.1.codec.sample_rate">48000</property>
  <property name="meta.media.1.codec.channels">2</property>
  <property name="meta.media.1.codec.name">aac</property>
  <property name="meta.media.1.codec.long_name">AAC (Advanced Audio Coding)</property>
  <property name="meta.media.1.codec.bit_rate">192280</property>
  <property name="meta.attr.1.stream.creation_time.markup">2021-08-05T03:35:46.000000Z</property>
  <property name="meta.attr.1.stream.language.markup">eng</property>
  <property name="meta.attr.1.stream.handler_name.markup">SoundHandle</property>
  <property name="meta.attr.1.stream.vendor_id.markup">[0][0][0][0]</property>
  <property name="meta.attr.major_brand.markup">mp42</property>
  <property name="meta.attr.minor_version.markup">0</property>
  <property name="meta.attr.compatible_brands.markup">isommp42</property>
  <property name="meta.attr.creation_time.markup">2021-08-05T03:35:46.000000Z</property>
  <property name="meta.attr.com.android.version.markup">8.0.0</property>
  <property name="seekable">1</property>
  <property name="meta.media.sample_aspect_num">1</property>
  <property name="meta.media.sample_aspect_den">1</property>
  <property name="audio_index">1</property>
  <property name="video_index">0</property>
  <property name="mute_on_pause">1</property>
  <property name="warp_speed">0.515789</property>
  <property name="warp_resource">才能猜测_不弱智.mp4</property>
  <property name="mlt_service">timewarp</property>
  <property name="set.test_audio">1</property>
  <property name="set.test_image">0</property>
  <property name="kdenlive:id">2</property>
  <property name="warp_pitch">0</property>
  <property name="meta.media.frame_rate_num">8550000</property>
  <property name="meta.media.frame_rate_den">284059</property>
  <property name="meta.media.colorspace">709</property>
  <property name="meta.media.color_trc">1</property>
  <property name="meta.media.width">1280</property>
  <property name="meta.media.height">720</property>
  <property name="meta.media.color_range">mpeg</property>
  <property name="meta.media.variable_frame_rate">1</property>
  <property name="meta.media.top_field_first">0</property>
  <property name="meta.media.progressive">1</property>
 </producer>
 <playlist id="playlist8">
  <entry producer="producer80" in="00:00:00.000" out="00:00:03.333">
   <property name="kdenlive:id">16</property>
   <filter id="filter11">
    <property name="version">0.3</property>
    <property name="mlt_service">frei0r.scanline0r</property>
    <property name="kdenlive_id">frei0r.scanline0r</property>
    <property name="kdenlive:collapsed">0</property>
    <property name="disable">0</property>
   </filter>
   <filter id="filter12">
    <property name="version">1</property>
    <property name="mlt_service">frei0r.cairogradient</property>
    <property name="kdenlive_id">frei0r.cairogradient</property>
    <property name="0">gradient_linear</property>
    <property name="1">#000000</property>
    <property name="2">0.5</property>
    <property name="3">#ffffff</property>
    <property name="4">0.5</property>
    <property name="5">0.5</property>
    <property name="6">0.277</property>
    <property name="7">0.5</property>
    <property name="8">1</property>
    <property name="9">0</property>
    <property name="10">normal</property>
    <property name="kdenlive:collapsed">0</property>
   </filter>
   <filter id="filter13" out="00:00:00.233">
    <property name="start">0</property>
    <property name="mlt_service">brightness</property>
    <property name="kdenlive_id">fade_from_black</property>
    <property name="end">1</property>
    <property name="alpha">-1</property>
    <property name="kdenlive:collapsed">0</property>
   </filter>
   <filter id="filter14" in="00:00:03.033" out="00:00:03.333">
    <property name="start">1</property>
    <property name="mlt_service">brightness</property>
    <property name="kdenlive_id">fade_to_black</property>
    <property name="end">0</property>
    <property name="alpha">-1</property>
    <property name="kdenlive:collapsed">0</property>
   </filter>
  </entry>
  <entry producer="producer14" in="00:00:00.000" out="00:00:03.900">
   <property name="kdenlive:id">17</property>
  </entry>
  <blank length="00:00:00.033"/>
  <entry producer="producer15" in="00:00:00.000" out="00:00:09.400">
   <property name="kdenlive:id">18</property>
  </entry>
  <blank length="00:00:08.800"/>
  <entry producer="producer22" in="00:00:00.000" out="00:00:08.033">
   <property name="kdenlive:id">27</property>
   <filter id="filter15">
    <property name="rotate_center">1</property>
    <property name="mlt_service">qtblend</property>
    <property name="kdenlive_id">qtblend</property>
    <property name="rect">00:00:00.000=-926 -657 3200 1800 1.000000;00:00:00.700=-954 -48 3200 1800 1.000000;00:00:08.033=-958 -1023 3200 1800 1.000000</property>
    <property name="rotation">00:00:00.000=0;00:00:00.700=0;00:00:08.033=0</property>
    <property name="compositing">0</property>
    <property name="distort">0</property>
    <property name="kdenlive:collapsed">0</property>
   </filter>
  </entry>
  <blank length="00:00:11.700"/>
  <entry producer="producer81" in="00:00:00.000" out="00:00:11.633">
   <property name="kdenlive:id">9</property>
   <filter id="filter19">
    <property name="version">0.9</property>
    <property name="mlt_service">frei0r.softglow</property>
    <property name="kdenlive_id">frei0r.softglow</property>
    <property name="brightness">00:00:00.000=0.15;00:00:00.100=0.15;00:00:00.533=0.25;00:00:04.933=0.27;00:00:09.400=0.07</property>
    <property name="sharpness">00:00:00.000=0.75;00:00:00.100=0.75;00:00:00.533=0.56;00:00:04.933=0.75;00:00:09.400=0.75</property>
    <property name="blurblend">00:00:00.000=0;00:00:00.100=0;00:00:00.533=0;00:00:04.933=0;00:00:09.400=0</property>
    <property name="kdenlive:collapsed">0</property>
   </filter>
   <filter id="filter20" out="00:00:00.533">
    <property name="start">0</property>
    <property name="mlt_service">brightness</property>
    <property name="kdenlive_id">fade_from_black</property>
    <property name="end">1</property>
    <property name="alpha">-1</property>
    <property name="kdenlive:collapsed">0</property>
   </filter>
  </entry>
  <blank length="00:00:03.200"/>
  <entry producer="producer25" in="00:00:00.000" out="00:00:08.333">
   <property name="kdenlive:id">30</property>
   <filter id="filter16" out="00:00:01.267">
    <property name="start">0</property>
    <property name="mlt_service">brightness</property>
    <property name="kdenlive_id">fade_from_black</property>
    <property name="end">1</property>
    <property name="alpha">-1</property>
    <property name="kdenlive:collapsed">0</property>
   </filter>
  </entry>
  <entry producer="producer25" in="00:00:00.000" out="00:00:05.800">
   <property name="kdenlive:id">30</property>
   <filter id="filter17">
    <property name="version">0.1</property>
    <property name="mlt_service">frei0r.distort0r</property>
    <property name="kdenlive_id">frei0r.distort0r</property>
    <property name="Amplitude">00:00:00.000=0.02;00:00:05.800=-0.136</property>
    <property name="Frequency">00:00:00.000=-0.043;00:00:05.800=-0.043</property>
    <property name="kdenlive:collapsed">0</property>
   </filter>
  </entry>
  <blank length="00:00:09.033"/>
  <entry producer="producer26" in="00:00:00.000" out="00:00:09.267">
   <property name="kdenlive:id">31</property>
   <filter id="filter18">
    <property name="delta">00:00:00.000=14</property>
    <property name="every">00:00:00.000=20</property>
    <property name="brightnessdelta_up">00:00:00.000=20</property>
    <property name="brightnessdelta_down">00:00:00.000=30</property>
    <property name="brightnessdelta_every">00:00:00.000=70</property>
    <property name="unevendevelop_up">00:00:00.000=60</property>
    <property name="unevendevelop_down">00:00:00.000=20</property>
    <property name="unevendevelop_duration">00:00:00.000=70</property>
    <property name="mlt_service">oldfilm</property>
    <property name="kdenlive_id">oldfilm</property>
    <property name="kdenlive:collapsed">0</property>
   </filter>
  </entry>
  <entry producer="producer26" in="00:00:00.000" out="00:00:02.833">
   <property name="kdenlive:id">31</property>
   <filter id="filter21">
    <property name="delta">00:00:00.000=14</property>
    <property name="every">00:00:00.000=20</property>
    <property name="brightnessdelta_up">00:00:00.000=20</property>
    <property name="brightnessdelta_down">00:00:00.000=30</property>
    <property name="brightnessdelta_every">00:00:00.000=70</property>
    <property name="unevendevelop_up">00:00:00.000=60</property>
    <property name="unevendevelop_down">00:00:00.000=20</property>
    <property name="unevendevelop_duration">00:00:00.000=70</property>
    <property name="mlt_service">oldfilm</property>
    <property name="kdenlive_id">oldfilm</property>
    <property name="kdenlive:collapsed">0</property>
   </filter>
   <filter id="filter22">
    <property name="version">0.1</property>
    <property name="mlt_service">frei0r.emboss</property>
    <property name="kdenlive_id">frei0r.emboss</property>
    <property name="azimuth">00:00:00.000=0.297222</property>
    <property name="elevation">00:00:00.000=0.166667</property>
    <property name="width45">00:00:00.000=0.675</property>
    <property name="kdenlive:collapsed">0</property>
   </filter>
  </entry>
  <blank length="00:00:03.767"/>
  <entry producer="producer39" in="00:00:00.000" out="00:00:05.533">
   <property name="kdenlive:id">44</property>
   <filter id="filter23" in="00:00:05.167" out="00:00:05.533">
    <property name="start">1</property>
    <property name="mlt_service">brightness</property>
    <property name="kdenlive_id">fade_to_black</property>
    <property name="end">0</property>
    <property name="alpha">-1</property>
    <property name="kdenlive:collapsed">0</property>
   </filter>
  </entry>
  <blank length="00:00:10.367"/>
  <entry producer="producer82" in="00:00:00.000" out="00:00:02.433">
   <property name="kdenlive:id">14</property>
   <property name="kdenlive:activeeffect">1</property>
   <filter id="filter24" in="00:00:02.000" out="00:00:02.433">
    <property name="start">1</property>
    <property name="mlt_service">brightness</property>
    <property name="kdenlive_id">fade_to_black</property>
    <property name="end">0</property>
    <property name="alpha">-1</property>
    <property name="kdenlive:collapsed">0</property>
   </filter>
   <filter id="filter25">
    <property name="version">0.9</property>
    <property name="mlt_service">frei0r.softglow</property>
    <property name="kdenlive_id">frei0r.softglow</property>
    <property name="brightness">00:00:00.000=0.45</property>
    <property name="sharpness">00:00:00.000=0.32</property>
    <property name="blurblend">00:00:00.000=0.13</property>
    <property name="kdenlive:collapsed">0</property>
   </filter>
  </entry>
  <blank length="00:00:09.367"/>
  <entry producer="producer83" in="00:00:00.000" out="00:00:05.233">
   <property name="kdenlive:id">10</property>
   <filter id="filter26">
    <property name="version">0.9</property>
    <property name="mlt_service">frei0r.softglow</property>
    <property name="kdenlive_id">frei0r.softglow</property>
    <property name="brightness">00:00:00.000~=0.19;00:00:03.067=0.17</property>
    <property name="sharpness">00:00:00.000~=0.84;00:00:03.067=0.84</property>
    <property name="blurblend">00:00:00.000~=0;00:00:03.067=0</property>
    <property name="kdenlive:collapsed">0</property>
   </filter>
  </entry>
  <blank length="00:00:13.367"/>
  <entry producer="producer40" in="00:00:00.000" out="00:00:07.267">
   <property name="kdenlive:id">46</property>
   <filter id="filter27">
    <property name="rotate_center">1</property>
    <property name="mlt_service">qtblend</property>
    <property name="kdenlive_id">qtblend</property>
    <property name="rect">00:00:00.000=-1053 13 3386 1904 1.000000;00:00:00.500~=-1053 13 3386 1904 1.000000;00:00:07.267=-1053 -939 3386 1904 1.000000;00:00:07.300~=2.22507e-308 2.22507e-308 2.22507e-308 2.22507e-308 0.000000</property>
    <property name="rotation">00:00:00.000=0;00:00:00.500~=0;00:00:07.267=0;00:00:07.300~=0</property>
    <property name="compositing">0</property>
    <property name="distort">0</property>
    <property name="kdenlive:collapsed">0</property>
   </filter>
  </entry>
  <blank length="00:00:05.033"/>
  <entry producer="producer41" in="00:00:00.000" out="00:00:06.467">
   <property name="kdenlive:id">47</property>
   <filter id="filter28" out="00:00:02.333">
    <property name="start">0</property>
    <property name="mlt_service">brightness</property>
    <property name="kdenlive_id">fade_from_black</property>
    <property name="end">1</property>
    <property name="alpha">-1</property>
   </filter>
  </entry>
  <blank length="00:00:03.667"/>
  <entry producer="producer84" in="00:00:00.000" out="00:00:05.467">
   <property name="kdenlive:id">7</property>
   <filter id="filter56" out="00:00:01.100">
    <property name="start">0</property>
    <property name="mlt_service">brightness</property>
    <property name="kdenlive_id">fade_from_black</property>
    <property name="end">1</property>
    <property name="alpha">1</property>
    <property name="kdenlive:collapsed">0</property>
   </filter>
   <filter id="filter57" in="00:00:05.033" out="00:00:05.467">
    <property name="start">1</property>
    <property name="mlt_service">brightness</property>
    <property name="kdenlive_id">fade_to_black</property>
    <property name="end">0</property>
    <property name="alpha">-1</property>
    <property name="kdenlive:collapsed">0</property>
   </filter>
   <filter id="filter58">
    <property name="delta">00:00:00.000=14</property>
    <property name="every">00:00:00.000=7</property>
    <property name="brightnessdelta_up">00:00:00.000=20</property>
    <property name="brightnessdelta_down">00:00:00.000=30</property>
    <property name="brightnessdelta_every">00:00:00.000=3</property>
    <property name="unevendevelop_up">00:00:00.000=60</property>
    <property name="unevendevelop_down">00:00:00.000=20</property>
    <property name="unevendevelop_duration">00:00:00.000=70</property>
    <property name="mlt_service">oldfilm</property>
    <property name="kdenlive_id">oldfilm</property>
    <property name="kdenlive:collapsed">0</property>
   </filter>
  </entry>
  <blank length="00:00:01.833"/>
  <entry producer="producer85" in="00:00:01.833" out="00:00:04.867">
   <property name="kdenlive:id">3</property>
   <filter id="filter29">
    <property name="version">0.2</property>
    <property name="mlt_service">frei0r.ndvi</property>
    <property name="kdenlive_id">frei0r.ndvi</property>
    <property name="0">grayscale</property>
    <property name="1">0.357</property>
    <property name="2">0.468</property>
    <property name="3">0.421</property>
    <property name="4">0.214</property>
    <property name="5">0.25</property>
    <property name="6">b</property>
    <property name="7">r</property>
    <property name="8">ndvi</property>
    <property name="9">off</property>
    <property name="kdenlive:collapsed">0</property>
   </filter>
  </entry>
  <blank length="00:00:40.467"/>
  <entry producer="producer46" in="00:00:00.000" out="00:00:04.700">
   <property name="kdenlive:id">52</property>
   <property name="kdenlive:activeeffect">1</property>
   <filter id="filter30">
    <property name="rotate_center">1</property>
    <property name="mlt_service">qtblend</property>
    <property name="kdenlive_id">qtblend</property>
    <property name="rect">00:00:00.000=-1088 -612 3456 1944 1.000000;00:00:03.033=-594 -333 2464 1386 1.000000;00:00:03.133=-621 -349 2521 1418 1.000000</property>
    <property name="rotation">00:00:00.000=0;00:00:03.033=318.75;00:00:03.133=343.5</property>
    <property name="compositing">0</property>
    <property name="distort">0</property>
    <property name="kdenlive:collapsed">0</property>
   </filter>
   <filter id="filter31">
    <property name="version">1.2</property>
    <property name="mlt_service">frei0r.vertigo</property>
    <property name="kdenlive_id">frei0r.vertigo</property>
    <property name="PhaseIncrement">00:00:00.000=0.02</property>
    <property name="Zoomrate">00:00:00.000=0.202</property>
    <property name="kdenlive:collapsed">0</property>
   </filter>
  </entry>
  <blank length="00:00:06.067"/>
  <entry producer="producer86" in="00:00:02.767" out="00:00:04.700">
   <property name="kdenlive:id">2</property>
  </entry>
  <entry producer="producer87" in="00:00:09.167" out="00:00:12.300">
   <property name="kdenlive:id">2</property>
   <filter id="filter32">
    <property name="version">2.2</property>
    <property name="mlt_service">frei0r.cartoon</property>
    <property name="kdenlive_id">frei0r.cartoon</property>
    <property name="triplevel">00:00:09.167=1</property>
    <property name="diffspace">00:00:09.167=0</property>
    <property name="kdenlive:collapsed">0</property>
   </filter>
   <filter id="filter33" in="00:00:11.133" out="00:00:12.300">
    <property name="start">1</property>
    <property name="mlt_service">brightness</property>
    <property name="kdenlive_id">fade_to_black</property>
    <property name="end">0</property>
    <property name="alpha">-1</property>
    <property name="kdenlive:collapsed">0</property>
   </filter>
  </entry>
 </playlist>
 <playlist id="playlist9"/>
 <tractor id="tractor5" in="00:00:00.000" out="00:03:55.033">
  <property name="kdenlive:trackheight">69</property>
  <property name="kdenlive:timeline_active">1</property>
  <property name="kdenlive:collapsed">0</property>
  <property name="kdenlive:thumbs_format"/>
  <property name="kdenlive:audio_rec"/>
  <track hide="audio" producer="playlist8"/>
  <track producer="playlist9"/>
 </tractor>
 <producer id="producer88" in="00:00:00.000" out="00:00:03.067">
  <property name="length">93</property>
  <property name="eof">pause</property>
  <property name="resource">0.569892:一年看不见.mp4</property>
  <property name="aspect_ratio">1</property>
  <property name="meta.media.nb_streams">2</property>
  <property name="meta.media.0.stream.type">video</property>
  <property name="meta.media.0.stream.frame_rate">29.8616</property>
  <property name="meta.media.0.stream.sample_aspect_ratio">1</property>
  <property name="meta.media.0.codec.width">1280</property>
  <property name="meta.media.0.codec.height">720</property>
  <property name="meta.media.0.codec.rotate">0</property>
  <property name="meta.media.0.codec.frame_rate">30</property>
  <property name="meta.media.0.codec.pix_fmt">yuv420p</property>
  <property name="meta.media.0.codec.sample_aspect_ratio">0</property>
  <property name="meta.media.0.codec.colorspace">709</property>
  <property name="meta.media.0.codec.color_trc">1</property>
  <property name="meta.media.0.codec.name">h264</property>
  <property name="meta.media.0.codec.long_name">H.264 / AVC / MPEG-4 AVC / MPEG-4 part 10</property>
  <property name="meta.media.0.codec.bit_rate">5800807</property>
  <property name="meta.attr.0.stream.creation_time.markup">2021-08-05T03:42:46.000000Z</property>
  <property name="meta.attr.0.stream.language.markup">eng</property>
  <property name="meta.attr.0.stream.handler_name.markup">VideoHandle</property>
  <property name="meta.attr.0.stream.vendor_id.markup">[0][0][0][0]</property>
  <property name="meta.media.1.stream.type">audio</property>
  <property name="meta.media.1.codec.sample_fmt">fltp</property>
  <property name="meta.media.1.codec.sample_rate">48000</property>
  <property name="meta.media.1.codec.channels">2</property>
  <property name="meta.media.1.codec.name">aac</property>
  <property name="meta.media.1.codec.long_name">AAC (Advanced Audio Coding)</property>
  <property name="meta.media.1.codec.bit_rate">193111</property>
  <property name="meta.attr.1.stream.creation_time.markup">2021-08-05T03:42:46.000000Z</property>
  <property name="meta.attr.1.stream.language.markup">eng</property>
  <property name="meta.attr.1.stream.handler_name.markup">SoundHandle</property>
  <property name="meta.attr.1.stream.vendor_id.markup">[0][0][0][0]</property>
  <property name="meta.attr.major_brand.markup">mp42</property>
  <property name="meta.attr.minor_version.markup">0</property>
  <property name="meta.attr.compatible_brands.markup">isommp42</property>
  <property name="meta.attr.creation_time.markup">2021-08-05T03:42:46.000000Z</property>
  <property name="meta.attr.com.android.version.markup">8.0.0</property>
  <property name="seekable">1</property>
  <property name="meta.media.sample_aspect_num">1</property>
  <property name="meta.media.sample_aspect_den">1</property>
  <property name="audio_index">1</property>
  <property name="video_index">0</property>
  <property name="mute_on_pause">1</property>
  <property name="warp_speed">0.569892</property>
  <property name="warp_resource">一年看不见.mp4</property>
  <property name="mlt_service">timewarp</property>
  <property name="set.test_audio">1</property>
  <property name="set.test_image">0</property>
  <property name="kdenlive:id">11</property>
  <property name="warp_pitch">0</property>
  <property name="meta.media.frame_rate_num">1560000</property>
  <property name="meta.media.frame_rate_den">52241</property>
  <property name="meta.media.colorspace">709</property>
  <property name="meta.media.color_trc">1</property>
  <property name="meta.media.width">1280</property>
  <property name="meta.media.height">720</property>
  <property name="meta.media.color_range">mpeg</property>
  <property name="meta.media.variable_frame_rate">1</property>
  <property name="meta.media.top_field_first">0</property>
  <property name="meta.media.progressive">1</property>
 </producer>
 <producer id="producer89" in="00:00:00.000" out="00:00:03.567">
  <property name="length">108</property>
  <property name="eof">pause</property>
  <property name="resource">0.640000:更快实现.mp4</property>
  <property name="aspect_ratio">1</property>
  <property name="meta.media.nb_streams">2</property>
  <property name="meta.media.0.stream.type">video</property>
  <property name="meta.media.0.stream.frame_rate">30.0081</property>
  <property name="meta.media.0.stream.sample_aspect_ratio">1</property>
  <property name="meta.media.0.codec.width">1280</property>
  <property name="meta.media.0.codec.height">720</property>
  <property name="meta.media.0.codec.rotate">0</property>
  <property name="meta.media.0.codec.frame_rate">30</property>
  <property name="meta.media.0.codec.pix_fmt">yuv420p</property>
  <property name="meta.media.0.codec.sample_aspect_ratio">0</property>
  <property name="meta.media.0.codec.colorspace">709</property>
  <property name="meta.media.0.codec.color_trc">1</property>
  <property name="meta.media.0.codec.name">h264</property>
  <property name="meta.media.0.codec.long_name">H.264 / AVC / MPEG-4 AVC / MPEG-4 part 10</property>
  <property name="meta.media.0.codec.bit_rate">5435218</property>
  <property name="meta.attr.0.stream.creation_time.markup">2021-08-05T03:42:13.000000Z</property>
  <property name="meta.attr.0.stream.language.markup">eng</property>
  <property name="meta.attr.0.stream.handler_name.markup">VideoHandle</property>
  <property name="meta.attr.0.stream.vendor_id.markup">[0][0][0][0]</property>
  <property name="meta.media.1.stream.type">audio</property>
  <property name="meta.media.1.codec.sample_fmt">fltp</property>
  <property name="meta.media.1.codec.sample_rate">48000</property>
  <property name="meta.media.1.codec.channels">2</property>
  <property name="meta.media.1.codec.name">aac</property>
  <property name="meta.media.1.codec.long_name">AAC (Advanced Audio Coding)</property>
  <property name="meta.media.1.codec.bit_rate">192944</property>
  <property name="meta.attr.1.stream.creation_time.markup">2021-08-05T03:42:13.000000Z</property>
  <property name="meta.attr.1.stream.language.markup">eng</property>
  <property name="meta.attr.1.stream.handler_name.markup">SoundHandle</property>
  <property name="meta.attr.1.stream.vendor_id.markup">[0][0][0][0]</property>
  <property name="meta.attr.major_brand.markup">mp42</property>
  <property name="meta.attr.minor_version.markup">0</property>
  <property name="meta.attr.compatible_brands.markup">isommp42</property>
  <property name="meta.attr.creation_time.markup">2021-08-05T03:42:13.000000Z</property>
  <property name="meta.attr.com.android.version.markup">8.0.0</property>
  <property name="seekable">1</property>
  <property name="meta.media.sample_aspect_num">1</property>
  <property name="meta.media.sample_aspect_den">1</property>
  <property name="audio_index">1</property>
  <property name="video_index">0</property>
  <property name="mute_on_pause">1</property>
  <property name="warp_speed">0.64</property>
  <property name="warp_resource">更快实现.mp4</property>
  <property name="mlt_service">timewarp</property>
  <property name="set.test_audio">1</property>
  <property name="set.test_image">0</property>
  <property name="kdenlive:id">5</property>
  <property name="warp_pitch">0</property>
  <property name="meta.media.frame_rate_num">1224000</property>
  <property name="meta.media.frame_rate_den">40789</property>
  <property name="meta.media.colorspace">709</property>
  <property name="meta.media.color_trc">1</property>
  <property name="meta.media.width">1280</property>
  <property name="meta.media.height">720</property>
  <property name="meta.media.color_range">mpeg</property>
  <property name="meta.media.variable_frame_rate">1</property>
  <property name="meta.media.top_field_first">0</property>
  <property name="meta.media.progressive">1</property>
 </producer>
 <producer id="producer90" in="00:00:00.000" out="00:00:11.900">
  <property name="length">359</property>
  <property name="eof">pause</property>
  <property name="resource">0.626900:没意见_写不短.mp4</property>
  <property name="aspect_ratio">1</property>
  <property name="meta.media.nb_streams">2</property>
  <property name="meta.media.0.stream.type">video</property>
  <property name="meta.media.0.stream.frame_rate">30.1603</property>
  <property name="meta.media.0.stream.sample_aspect_ratio">1</property>
  <property name="meta.media.0.codec.width">1280</property>
  <property name="meta.media.0.codec.height">720</property>
  <property name="meta.media.0.codec.rotate">0</property>
  <property name="meta.media.0.codec.frame_rate">30</property>
  <property name="meta.media.0.codec.pix_fmt">yuv420p</property>
  <property name="meta.media.0.codec.sample_aspect_ratio">0</property>
  <property name="meta.media.0.codec.colorspace">709</property>
  <property name="meta.media.0.codec.color_trc">1</property>
  <property name="meta.media.0.codec.name">h264</property>
  <property name="meta.media.0.codec.long_name">H.264 / AVC / MPEG-4 AVC / MPEG-4 part 10</property>
  <property name="meta.media.0.codec.bit_rate">5609080</property>
  <property name="meta.attr.0.stream.creation_time.markup">2021-08-05T03:47:51.000000Z</property>
  <property name="meta.attr.0.stream.language.markup">eng</property>
  <property name="meta.attr.0.stream.handler_name.markup">VideoHandle</property>
  <property name="meta.attr.0.stream.vendor_id.markup">[0][0][0][0]</property>
  <property name="meta.media.1.stream.type">audio</property>
  <property name="meta.media.1.codec.sample_fmt">fltp</property>
  <property name="meta.media.1.codec.sample_rate">48000</property>
  <property name="meta.media.1.codec.channels">2</property>
  <property name="meta.media.1.codec.name">aac</property>
  <property name="meta.media.1.codec.long_name">AAC (Advanced Audio Coding)</property>
  <property name="meta.media.1.codec.bit_rate">192280</property>
  <property name="meta.attr.1.stream.creation_time.markup">2021-08-05T03:47:51.000000Z</property>
  <property name="meta.attr.1.stream.language.markup">eng</property>
  <property name="meta.attr.1.stream.handler_name.markup">SoundHandle</property>
  <property name="meta.attr.1.stream.vendor_id.markup">[0][0][0][0]</property>
  <property name="meta.attr.major_brand.markup">mp42</property>
  <property name="meta.attr.minor_version.markup">0</property>
  <property name="meta.attr.compatible_brands.markup">isommp42</property>
  <property name="meta.attr.creation_time.markup">2021-08-05T03:47:51.000000Z</property>
  <property name="meta.attr.com.android.version.markup">8.0.0</property>
  <property name="seekable">1</property>
  <property name="meta.media.sample_aspect_num">1</property>
  <property name="meta.media.sample_aspect_den">1</property>
  <property name="audio_index">1</property>
  <property name="video_index">0</property>
  <property name="mute_on_pause">1</property>
  <property name="warp_speed">0.6269</property>
  <property name="warp_resource">没意见_写不短.mp4</property>
  <property name="mlt_service">timewarp</property>
  <property name="set.test_audio">1</property>
  <property name="set.test_image">0</property>
  <property name="kdenlive:id">6</property>
  <property name="warp_pitch">0</property>
  <property name="meta.media.frame_rate_num">5040000</property>
  <property name="meta.media.frame_rate_den">167107</property>
  <property name="meta.media.colorspace">709</property>
  <property name="meta.media.color_trc">1</property>
  <property name="meta.media.width">1280</property>
  <property name="meta.media.height">720</property>
  <property name="meta.media.color_range">mpeg</property>
  <property name="meta.media.top_field_first">0</property>
  <property name="meta.media.progressive">1</property>
 </producer>
 <producer id="producer91" in="00:00:00.000" out="00:00:09.733">
  <property name="length">293</property>
  <property name="eof">pause</property>
  <property name="resource">又不用作感言1.webm</property>
  <property name="audio_index">1</property>
  <property name="video_index">0</property>
  <property name="mute_on_pause">0</property>
  <property name="mlt_service">avformat-novalidate</property>
  <property name="seekable">1</property>
  <property name="aspect_ratio">1</property>
  <property name="kdenlive:clipname"/>
  <property name="kdenlive:folderid">-1</property>
  <property name="kdenlive:id">13</property>
  <property name="kdenlive:file_size">703439</property>
  <property name="kdenlive:file_hash">756eac0634ab695fa461ab19e3b9f0cc</property>
  <property name="global_feed">1</property>
  <property name="kdenlive:audio_max">1</property>
  <property name="xml">was here</property>
  <property name="meta.media.nb_streams">2</property>
  <property name="meta.media.0.stream.type">video</property>
  <property name="meta.media.0.stream.frame_rate">30</property>
  <property name="meta.media.0.stream.sample_aspect_ratio">1</property>
  <property name="meta.media.0.codec.width">640</property>
  <property name="meta.media.0.codec.height">480</property>
  <property name="meta.media.0.codec.rotate">0</property>
  <property name="meta.media.0.codec.frame_rate">1000</property>
  <property name="meta.media.0.codec.pix_fmt">yuv420p</property>
  <property name="meta.media.0.codec.sample_aspect_ratio">0</property>
  <property name="meta.media.0.codec.colorspace">601</property>
  <property name="meta.media.0.codec.color_trc">6</property>
  <property name="meta.media.0.codec.name">vp8</property>
  <property name="meta.media.0.codec.long_name">On2 VP8</property>
  <property name="meta.media.0.codec.bit_rate">0</property>
  <property name="meta.attr.0.stream.language.markup">eng</property>
  <property name="meta.attr.0.stream.title.markup">Video</property>
  <property name="meta.media.1.stream.type">audio</property>
  <property name="meta.media.1.codec.sample_fmt">fltp</property>
  <property name="meta.media.1.codec.sample_rate">44100</property>
  <property name="meta.media.1.codec.channels">1</property>
  <property name="meta.media.1.codec.name">vorbis</property>
  <property name="meta.media.1.codec.long_name">Vorbis</property>
  <property name="meta.media.1.codec.bit_rate">0</property>
  <property name="meta.attr.1.stream.language.markup">eng</property>
  <property name="meta.attr.1.stream.title.markup">Audio</property>
  <property name="meta.attr.encoder.markup">GStreamer matroskamux version 1.18.4</property>
  <property name="meta.attr.creation_time.markup">2021-08-05T12:56:44.117483Z</property>
  <property name="meta.media.sample_aspect_num">1</property>
  <property name="meta.media.sample_aspect_den">1</property>
  <property name="meta.media.frame_rate_num">30</property>
  <property name="meta.media.frame_rate_den">1</property>
  <property name="meta.media.colorspace">601</property>
  <property name="meta.media.color_trc">6</property>
  <property name="meta.media.width">640</property>
  <property name="meta.media.height">480</property>
  <property name="meta.media.color_range">mpeg</property>
  <property name="meta.media.top_field_first">0</property>
  <property name="meta.media.progressive">1</property>
  <property name="set.test_audio">1</property>
  <property name="set.test_image">0</property>
 </producer>
 <producer id="producer92" in="00:00:00.000" out="00:00:03.700">
  <property name="length">112</property>
  <property name="eof">pause</property>
  <property name="resource">0.571429:疑惑在.mp4</property>
  <property name="aspect_ratio">1</property>
  <property name="meta.media.nb_streams">2</property>
  <property name="meta.media.0.stream.type">video</property>
  <property name="meta.media.0.stream.frame_rate">30.206</property>
  <property name="meta.media.0.stream.sample_aspect_ratio">1</property>
  <property name="meta.media.0.codec.width">1280</property>
  <property name="meta.media.0.codec.height">720</property>
  <property name="meta.media.0.codec.rotate">0</property>
  <property name="meta.media.0.codec.frame_rate">30</property>
  <property name="meta.media.0.codec.pix_fmt">yuv420p</property>
  <property name="meta.media.0.codec.sample_aspect_ratio">0</property>
  <property name="meta.media.0.codec.colorspace">709</property>
  <property name="meta.media.0.codec.color_trc">1</property>
  <property name="meta.media.0.codec.name">h264</property>
  <property name="meta.media.0.codec.long_name">H.264 / AVC / MPEG-4 AVC / MPEG-4 part 10</property>
  <property name="meta.media.0.codec.bit_rate">6367967</property>
  <property name="meta.attr.0.stream.creation_time.markup">2021-08-05T03:49:47.000000Z</property>
  <property name="meta.attr.0.stream.language.markup">eng</property>
  <property name="meta.attr.0.stream.handler_name.markup">VideoHandle</property>
  <property name="meta.attr.0.stream.vendor_id.markup">[0][0][0][0]</property>
  <property name="meta.media.1.stream.type">audio</property>
  <property name="meta.media.1.codec.sample_fmt">fltp</property>
  <property name="meta.media.1.codec.sample_rate">48000</property>
  <property name="meta.media.1.codec.channels">2</property>
  <property name="meta.media.1.codec.name">aac</property>
  <property name="meta.media.1.codec.long_name">AAC (Advanced Audio Coding)</property>
  <property name="meta.media.1.codec.bit_rate">192918</property>
  <property name="meta.attr.1.stream.creation_time.markup">2021-08-05T03:49:47.000000Z</property>
  <property name="meta.attr.1.stream.language.markup">eng</property>
  <property name="meta.attr.1.stream.handler_name.markup">SoundHandle</property>
  <property name="meta.attr.1.stream.vendor_id.markup">[0][0][0][0]</property>
  <property name="meta.attr.major_brand.markup">mp42</property>
  <property name="meta.attr.minor_version.markup">0</property>
  <property name="meta.attr.compatible_brands.markup">isommp42</property>
  <property name="meta.attr.creation_time.markup">2021-08-05T03:49:47.000000Z</property>
  <property name="meta.attr.com.android.version.markup">8.0.0</property>
  <property name="seekable">1</property>
  <property name="meta.media.sample_aspect_num">1</property>
  <property name="meta.media.sample_aspect_den">1</property>
  <property name="audio_index">1</property>
  <property name="video_index">0</property>
  <property name="mute_on_pause">1</property>
  <property name="warp_speed">0.571429</property>
  <property name="warp_resource">疑惑在.mp4</property>
  <property name="mlt_service">timewarp</property>
  <property name="set.test_audio">1</property>
  <property name="set.test_image">0</property>
  <property name="kdenlive:id">12</property>
  <property name="warp_pitch">0</property>
  <property name="meta.media.frame_rate_num">5670000</property>
  <property name="meta.media.frame_rate_den">187711</property>
  <property name="meta.media.colorspace">709</property>
  <property name="meta.media.color_trc">1</property>
  <property name="meta.media.width">1280</property>
  <property name="meta.media.height">720</property>
  <property name="meta.media.color_range">mpeg</property>
  <property name="meta.media.variable_frame_rate">1</property>
  <property name="meta.media.top_field_first">0</property>
  <property name="meta.media.progressive">1</property>
 </producer>
 <producer id="producer93" in="00:00:00.000" out="00:00:06.333">
  <property name="length">191</property>
  <property name="eof">pause</property>
  <property name="resource">才能猜测_不弱智.mp4</property>
  <property name="audio_index">1</property>
  <property name="video_index">0</property>
  <property name="mute_on_pause">0</property>
  <property name="mlt_service">avformat-novalidate</property>
  <property name="seekable">1</property>
  <property name="aspect_ratio">1</property>
  <property name="kdenlive:clipname"/>
  <property name="kdenlive:folderid">-1</property>
  <property name="kdenlive:id">2</property>
  <property name="kdenlive:file_size">10452662</property>
  <property name="kdenlive:file_hash">268f97557bf3ae81b6d5acbcefd760cc</property>
  <property name="kdenlive:audio_max">32</property>
  <property name="global_feed">1</property>
  <property name="xml">was here</property>
  <property name="meta.media.nb_streams">2</property>
  <property name="meta.media.0.stream.type">video</property>
  <property name="meta.media.0.stream.frame_rate">30.0994</property>
  <property name="meta.media.0.stream.sample_aspect_ratio">1</property>
  <property name="meta.media.0.codec.width">1280</property>
  <property name="meta.media.0.codec.height">720</property>
  <property name="meta.media.0.codec.rotate">0</property>
  <property name="meta.media.0.codec.frame_rate">30</property>
  <property name="meta.media.0.codec.pix_fmt">yuv420p</property>
  <property name="meta.media.0.codec.sample_aspect_ratio">0</property>
  <property name="meta.media.0.codec.colorspace">709</property>
  <property name="meta.media.0.codec.color_trc">1</property>
  <property name="meta.media.0.codec.name">h264</property>
  <property name="meta.media.0.codec.long_name">H.264 / AVC / MPEG-4 AVC / MPEG-4 part 10</property>
  <property name="meta.media.0.codec.bit_rate">12071951</property>
  <property name="meta.attr.0.stream.creation_time.markup">2021-08-05T03:35:46.000000Z</property>
  <property name="meta.attr.0.stream.language.markup">eng</property>
  <property name="meta.attr.0.stream.handler_name.markup">VideoHandle</property>
  <property name="meta.attr.0.stream.vendor_id.markup">[0][0][0][0]</property>
  <property name="meta.media.1.stream.type">audio</property>
  <property name="meta.media.1.codec.sample_fmt">fltp</property>
  <property name="meta.media.1.codec.sample_rate">48000</property>
  <property name="meta.media.1.codec.channels">2</property>
  <property name="meta.media.1.codec.name">aac</property>
  <property name="meta.media.1.codec.long_name">AAC (Advanced Audio Coding)</property>
  <property name="meta.media.1.codec.bit_rate">192280</property>
  <property name="meta.attr.1.stream.creation_time.markup">2021-08-05T03:35:46.000000Z</property>
  <property name="meta.attr.1.stream.language.markup">eng</property>
  <property name="meta.attr.1.stream.handler_name.markup">SoundHandle</property>
  <property name="meta.attr.1.stream.vendor_id.markup">[0][0][0][0]</property>
  <property name="meta.attr.major_brand.markup">mp42</property>
  <property name="meta.attr.minor_version.markup">0</property>
  <property name="meta.attr.compatible_brands.markup">isommp42</property>
  <property name="meta.attr.creation_time.markup">2021-08-05T03:35:46.000000Z</property>
  <property name="meta.attr.com.android.version.markup">8.0.0</property>
  <property name="meta.media.sample_aspect_num">1</property>
  <property name="meta.media.sample_aspect_den">1</property>
  <property name="meta.media.frame_rate_num">8550000</property>
  <property name="meta.media.frame_rate_den">284059</property>
  <property name="meta.media.colorspace">709</property>
  <property name="meta.media.color_trc">1</property>
  <property name="meta.media.width">1280</property>
  <property name="meta.media.height">720</property>
  <property name="meta.media.color_range">mpeg</property>
  <property name="meta.media.variable_frame_rate">1</property>
  <property name="meta.media.top_field_first">0</property>
  <property name="meta.media.progressive">1</property>
  <property name="set.test_audio">1</property>
  <property name="set.test_image">0</property>
 </producer>
 <producer id="producer94" in="00:00:00.000" out="00:00:04.867">
  <property name="length">147</property>
  <property name="eof">pause</property>
  <property name="resource">痴迷不舍.mp4</property>
  <property name="audio_index">1</property>
  <property name="video_index">0</property>
  <property name="mute_on_pause">0</property>
  <property name="mlt_service">avformat-novalidate</property>
  <property name="seekable">1</property>
  <property name="aspect_ratio">1</property>
  <property name="kdenlive:clipname"/>
  <property name="kdenlive:folderid">-1</property>
  <property name="kdenlive:id">3</property>
  <property name="kdenlive:file_size">6396603</property>
  <property name="kdenlive:file_hash">f109c7e51330cd8b602b47dfd7d09796</property>
  <property name="kdenlive:audio_max">8</property>
  <property name="global_feed">1</property>
  <property name="xml">was here</property>
  <property name="meta.media.nb_streams">2</property>
  <property name="meta.media.0.stream.type">video</property>
  <property name="meta.media.0.stream.frame_rate">30.0916</property>
  <property name="meta.media.0.stream.sample_aspect_ratio">1</property>
  <property name="meta.media.0.codec.width">1280</property>
  <property name="meta.media.0.codec.height">720</property>
  <property name="meta.media.0.codec.rotate">0</property>
  <property name="meta.media.0.codec.frame_rate">30</property>
  <property name="meta.media.0.codec.pix_fmt">yuv420p</property>
  <property name="meta.media.0.codec.sample_aspect_ratio">0</property>
  <property name="meta.media.0.codec.colorspace">709</property>
  <property name="meta.media.0.codec.color_trc">1</property>
  <property name="meta.media.0.codec.name">h264</property>
  <property name="meta.media.0.codec.long_name">H.264 / AVC / MPEG-4 AVC / MPEG-4 part 10</property>
  <property name="meta.media.0.codec.bit_rate">9116120</property>
  <property name="meta.attr.0.stream.creation_time.markup">2021-08-05T04:42:26.000000Z</property>
  <property name="meta.attr.0.stream.language.markup">eng</property>
  <property name="meta.attr.0.stream.handler_name.markup">VideoHandle</property>
  <property name="meta.attr.0.stream.vendor_id.markup">[0][0][0][0]</property>
  <property name="meta.media.1.stream.type">audio</property>
  <property name="meta.media.1.codec.sample_fmt">fltp</property>
  <property name="meta.media.1.codec.sample_rate">48000</property>
  <property name="meta.media.1.codec.channels">2</property>
  <property name="meta.media.1.codec.name">aac</property>
  <property name="meta.media.1.codec.long_name">AAC (Advanced Audio Coding)</property>
  <property name="meta.media.1.codec.bit_rate">192338</property>
  <property name="meta.attr.1.stream.creation_time.markup">2021-08-05T04:42:26.000000Z</property>
  <property name="meta.attr.1.stream.language.markup">eng</property>
  <property name="meta.attr.1.stream.handler_name.markup">SoundHandle</property>
  <property name="meta.attr.1.stream.vendor_id.markup">[0][0][0][0]</property>
  <property name="meta.attr.major_brand.markup">mp42</property>
  <property name="meta.attr.minor_version.markup">0</property>
  <property name="meta.attr.compatible_brands.markup">isommp42</property>
  <property name="meta.attr.creation_time.markup">2021-08-05T04:42:26.000000Z</property>
  <property name="meta.attr.com.android.version.markup">8.0.0</property>
  <property name="meta.media.sample_aspect_num">1</property>
  <property name="meta.media.sample_aspect_den">1</property>
  <property name="meta.media.frame_rate_num">3262500</property>
  <property name="meta.media.frame_rate_den">108419</property>
  <property name="meta.media.colorspace">709</property>
  <property name="meta.media.color_trc">1</property>
  <property name="meta.media.width">1280</property>
  <property name="meta.media.height">720</property>
  <property name="meta.media.color_range">mpeg</property>
  <property name="meta.media.variable_frame_rate">1</property>
  <property name="meta.media.top_field_first">0</property>
  <property name="meta.media.progressive">1</property>
  <property name="set.test_audio">1</property>
  <property name="set.test_image">0</property>
 </producer>
 <producer id="producer95" in="00:00:00.000" out="00:00:07.467">
  <property name="length">225</property>
  <property name="eof">pause</property>
  <property name="resource">没意见_写不短.mp4</property>
  <property name="audio_index">1</property>
  <property name="video_index">0</property>
  <property name="mute_on_pause">0</property>
  <property name="mlt_service">avformat-novalidate</property>
  <property name="seekable">1</property>
  <property name="aspect_ratio">1</property>
  <property name="kdenlive:clipname"/>
  <property name="kdenlive:folderid">-1</property>
  <property name="kdenlive:id">6</property>
  <property name="kdenlive:file_size">6188531</property>
  <property name="kdenlive:file_hash">6af6ac7de4f46669b30f8a8d33a3b38d</property>
  <property name="kdenlive:audio_max">28</property>
  <property name="global_feed">1</property>
  <property name="xml">was here</property>
  <property name="meta.media.nb_streams">2</property>
  <property name="meta.media.0.stream.type">video</property>
  <property name="meta.media.0.stream.frame_rate">30.1603</property>
  <property name="meta.media.0.stream.sample_aspect_ratio">1</property>
  <property name="meta.media.0.codec.width">1280</property>
  <property name="meta.media.0.codec.height">720</property>
  <property name="meta.media.0.codec.rotate">0</property>
  <property name="meta.media.0.codec.frame_rate">30</property>
  <property name="meta.media.0.codec.pix_fmt">yuv420p</property>
  <property name="meta.media.0.codec.sample_aspect_ratio">0</property>
  <property name="meta.media.0.codec.colorspace">709</property>
  <property name="meta.media.0.codec.color_trc">1</property>
  <property name="meta.media.0.codec.name">h264</property>
  <property name="meta.media.0.codec.long_name">H.264 / AVC / MPEG-4 AVC / MPEG-4 part 10</property>
  <property name="meta.media.0.codec.bit_rate">5609080</property>
  <property name="meta.attr.0.stream.creation_time.markup">2021-08-05T03:47:51.000000Z</property>
  <property name="meta.attr.0.stream.language.markup">eng</property>
  <property name="meta.attr.0.stream.handler_name.markup">VideoHandle</property>
  <property name="meta.attr.0.stream.vendor_id.markup">[0][0][0][0]</property>
  <property name="meta.media.1.stream.type">audio</property>
  <property name="meta.media.1.codec.sample_fmt">fltp</property>
  <property name="meta.media.1.codec.sample_rate">48000</property>
  <property name="meta.media.1.codec.channels">2</property>
  <property name="meta.media.1.codec.name">aac</property>
  <property name="meta.media.1.codec.long_name">AAC (Advanced Audio Coding)</property>
  <property name="meta.media.1.codec.bit_rate">192280</property>
  <property name="meta.attr.1.stream.creation_time.markup">2021-08-05T03:47:51.000000Z</property>
  <property name="meta.attr.1.stream.language.markup">eng</property>
  <property name="meta.attr.1.stream.handler_name.markup">SoundHandle</property>
  <property name="meta.attr.1.stream.vendor_id.markup">[0][0][0][0]</property>
  <property name="meta.attr.major_brand.markup">mp42</property>
  <property name="meta.attr.minor_version.markup">0</property>
  <property name="meta.attr.compatible_brands.markup">isommp42</property>
  <property name="meta.attr.creation_time.markup">2021-08-05T03:47:51.000000Z</property>
  <property name="meta.attr.com.android.version.markup">8.0.0</property>
  <property name="meta.media.sample_aspect_num">1</property>
  <property name="meta.media.sample_aspect_den">1</property>
  <property name="meta.media.frame_rate_num">5040000</property>
  <property name="meta.media.frame_rate_den">167107</property>
  <property name="meta.media.colorspace">709</property>
  <property name="meta.media.color_trc">1</property>
  <property name="meta.media.width">1280</property>
  <property name="meta.media.height">720</property>
  <property name="meta.media.color_range">mpeg</property>
  <property name="meta.media.top_field_first">0</property>
  <property name="meta.media.progressive">1</property>
  <property name="set.test_audio">1</property>
  <property name="set.test_image">0</property>
 </producer>
 <producer id="producer96" in="00:00:00.000" out="00:00:03.600">
  <property name="length">110</property>
  <property name="eof">pause</property>
  <property name="resource">0.472727:否还值得.mp4</property>
  <property name="aspect_ratio">1</property>
  <property name="meta.media.nb_streams">2</property>
  <property name="meta.media.0.stream.type">video</property>
  <property name="meta.media.0.stream.frame_rate">30.0127</property>
  <property name="meta.media.0.stream.sample_aspect_ratio">1</property>
  <property name="meta.media.0.codec.width">1280</property>
  <property name="meta.media.0.codec.height">720</property>
  <property name="meta.media.0.codec.rotate">0</property>
  <property name="meta.media.0.codec.frame_rate">30</property>
  <property name="meta.media.0.codec.pix_fmt">yuv420p</property>
  <property name="meta.media.0.codec.sample_aspect_ratio">0</property>
  <property name="meta.media.0.codec.colorspace">709</property>
  <property name="meta.media.0.codec.color_trc">1</property>
  <property name="meta.media.0.codec.name">h264</property>
  <property name="meta.media.0.codec.long_name">H.264 / AVC / MPEG-4 AVC / MPEG-4 part 10</property>
  <property name="meta.media.0.codec.bit_rate">11763469</property>
  <property name="meta.attr.0.stream.creation_time.markup">2021-08-05T03:35:13.000000Z</property>
  <property name="meta.attr.0.stream.language.markup">eng</property>
  <property name="meta.attr.0.stream.handler_name.markup">VideoHandle</property>
  <property name="meta.attr.0.stream.vendor_id.markup">[0][0][0][0]</property>
  <property name="meta.media.1.stream.type">audio</property>
  <property name="meta.media.1.codec.sample_fmt">fltp</property>
  <property name="meta.media.1.codec.sample_rate">48000</property>
  <property name="meta.media.1.codec.channels">2</property>
  <property name="meta.media.1.codec.name">aac</property>
  <property name="meta.media.1.codec.long_name">AAC (Advanced Audio Coding)</property>
  <property name="meta.media.1.codec.bit_rate">193092</property>
  <property name="meta.attr.1.stream.creation_time.markup">2021-08-05T03:35:13.000000Z</property>
  <property name="meta.attr.1.stream.language.markup">eng</property>
  <property name="meta.attr.1.stream.handler_name.markup">SoundHandle</property>
  <property name="meta.attr.1.stream.vendor_id.markup">[0][0][0][0]</property>
  <property name="meta.attr.major_brand.markup">mp42</property>
  <property name="meta.attr.minor_version.markup">0</property>
  <property name="meta.attr.compatible_brands.markup">isommp42</property>
  <property name="meta.attr.creation_time.markup">2021-08-05T03:35:13.000000Z</property>
  <property name="meta.attr.com.android.version.markup">8.0.0</property>
  <property name="seekable">1</property>
  <property name="meta.media.sample_aspect_num">1</property>
  <property name="meta.media.sample_aspect_den">1</property>
  <property name="audio_index">1</property>
  <property name="video_index">0</property>
  <property name="mute_on_pause">1</property>
  <property name="warp_speed">0.472727</property>
  <property name="warp_resource">否还值得.mp4</property>
  <property name="mlt_service">timewarp</property>
  <property name="set.test_audio">1</property>
  <property name="set.test_image">0</property>
  <property name="kdenlive:id">4</property>
  <property name="warp_pitch">0</property>
  <property name="meta.media.frame_rate_num">260000</property>
  <property name="meta.media.frame_rate_den">8663</property>
  <property name="meta.media.colorspace">709</property>
  <property name="meta.media.color_trc">1</property>
  <property name="meta.media.width">1280</property>
  <property name="meta.media.height">720</property>
  <property name="meta.media.color_range">mpeg</property>
  <property name="meta.media.variable_frame_rate">1</property>
  <property name="meta.media.top_field_first">0</property>
  <property name="meta.media.progressive">1</property>
 </producer>
 <producer id="producer97" in="00:00:00.000" out="00:00:09.233">
  <property name="length">278</property>
  <property name="eof">pause</property>
  <property name="resource">全力在调试.mp4</property>
  <property name="audio_index">1</property>
  <property name="video_index">0</property>
  <property name="mute_on_pause">0</property>
  <property name="mlt_service">avformat-novalidate</property>
  <property name="seekable">1</property>
  <property name="aspect_ratio">1</property>
  <property name="kdenlive:clipname"/>
  <property name="kdenlive:folderid">-1</property>
  <property name="kdenlive:id">8</property>
  <property name="kdenlive:file_size">14857823</property>
  <property name="kdenlive:file_hash">6f2a462fe808acddc17da89f5865ed60</property>
  <property name="kdenlive:audio_max">29</property>
  <property name="global_feed">1</property>
  <property name="xml">was here</property>
  <property name="meta.media.nb_streams">2</property>
  <property name="meta.media.0.stream.type">video</property>
  <property name="meta.media.0.stream.frame_rate">30.1767</property>
  <property name="meta.media.0.stream.sample_aspect_ratio">1</property>
  <property name="meta.media.0.codec.width">1280</property>
  <property name="meta.media.0.codec.height">720</property>
  <property name="meta.media.0.codec.rotate">0</property>
  <property name="meta.media.0.codec.frame_rate">30</property>
  <property name="meta.media.0.codec.pix_fmt">yuv420p</property>
  <property name="meta.media.0.codec.sample_aspect_ratio">0</property>
  <property name="meta.media.0.codec.colorspace">709</property>
  <property name="meta.media.0.codec.color_trc">1</property>
  <property name="meta.media.0.codec.name">h264</property>
  <property name="meta.media.0.codec.long_name">H.264 / AVC / MPEG-4 AVC / MPEG-4 part 10</property>
  <property name="meta.media.0.codec.bit_rate">12019895</property>
  <property name="meta.attr.0.stream.creation_time.markup">2021-08-05T03:44:13.000000Z</property>
  <property name="meta.attr.0.stream.language.markup">eng</property>
  <property name="meta.attr.0.stream.handler_name.markup">VideoHandle</property>
  <property name="meta.attr.0.stream.vendor_id.markup">[0][0][0][0]</property>
  <property name="meta.media.1.stream.type">audio</property>
  <property name="meta.media.1.codec.sample_fmt">fltp</property>
  <property name="meta.media.1.codec.sample_rate">48000</property>
  <property name="meta.media.1.codec.channels">2</property>
  <property name="meta.media.1.codec.name">aac</property>
  <property name="meta.media.1.codec.long_name">AAC (Advanced Audio Coding)</property>
  <property name="meta.media.1.codec.bit_rate">192212</property>
  <property name="meta.attr.1.stream.creation_time.markup">2021-08-05T03:44:13.000000Z</property>
  <property name="meta.attr.1.stream.language.markup">eng</property>
  <property name="meta.attr.1.stream.handler_name.markup">SoundHandle</property>
  <property name="meta.attr.1.stream.vendor_id.markup">[0][0][0][0]</property>
  <property name="meta.attr.major_brand.markup">mp42</property>
  <property name="meta.attr.minor_version.markup">0</property>
  <property name="meta.attr.compatible_brands.markup">isommp42</property>
  <property name="meta.attr.creation_time.markup">2021-08-05T03:44:13.000000Z</property>
  <property name="meta.attr.com.android.version.markup">8.0.0</property>
  <property name="meta.media.sample_aspect_num">1</property>
  <property name="meta.media.sample_aspect_den">1</property>
  <property name="meta.media.frame_rate_num">695000</property>
  <property name="meta.media.frame_rate_den">23031</property>
  <property name="meta.media.colorspace">709</property>
  <property name="meta.media.color_trc">1</property>
  <property name="meta.media.width">1280</property>
  <property name="meta.media.height">720</property>
  <property name="meta.media.color_range">mpeg</property>
  <property name="meta.media.top_field_first">0</property>
  <property name="meta.media.progressive">1</property>
  <property name="set.test_audio">1</property>
  <property name="set.test_image">0</property>
 </producer>
 <playlist id="playlist10">
  <blank length="00:00:21.800"/>
  <entry producer="producer19" in="00:00:00.000" out="00:00:04.967">
   <property name="kdenlive:id">24</property>
   <filter id="filter34" out="00:00:00.933">
    <property name="start">0</property>
    <property name="mlt_service">brightness</property>
    <property name="kdenlive_id">fade_from_black</property>
    <property name="end">1</property>
    <property name="alpha">-1</property>
    <property name="kdenlive:collapsed">0</property>
   </filter>
  </entry>
  <blank length="00:00:06.833"/>
  <entry producer="producer21" in="00:00:00.000" out="00:00:06.567">
   <property name="kdenlive:id">26</property>
   <filter id="filter35">
    <property name="rotate_center">1</property>
    <property name="mlt_service">qtblend</property>
    <property name="kdenlive_id">qtblend</property>
    <property name="rect">00:00:00.000~=-544 -10 2368 1332 1.000000;00:00:06.367=-544 -631 2368 1332 1.000000</property>
    <property name="rotation">00:00:00.000~=0;00:00:06.367=0</property>
    <property name="compositing">0</property>
    <property name="distort">0</property>
    <property name="kdenlive:collapsed">0</property>
   </filter>
   <filter id="filter36" in="00:00:06.200" out="00:00:06.567">
    <property name="start">1</property>
    <property name="mlt_service">brightness</property>
    <property name="kdenlive_id">fade_to_black</property>
    <property name="end">0</property>
    <property name="alpha">-1</property>
    <property name="kdenlive:collapsed">0</property>
   </filter>
  </entry>
  <entry producer="producer27" in="00:00:00.000" out="00:00:05.067">
   <property name="kdenlive:id">32</property>
   <property name="kdenlive:activeeffect">1</property>
   <filter id="filter37" out="00:00:00.233">
    <property name="start">0</property>
    <property name="mlt_service">brightness</property>
    <property name="kdenlive_id">fade_from_black</property>
    <property name="end">1</property>
    <property name="alpha">-1</property>
    <property name="kdenlive:collapsed">0</property>
   </filter>
   <filter id="filter38">
    <property name="rotate_center">1</property>
    <property name="mlt_service">qtblend</property>
    <property name="kdenlive_id">qtblend</property>
    <property name="rect">00:00:00.000=-384 -418 2048 1152 1.000000;00:00:05.000=-384 -3 2048 1152 1.000000</property>
    <property name="rotation">00:00:00.000=0;00:00:05.000=0</property>
    <property name="compositing">0</property>
    <property name="distort">0</property>
    <property name="kdenlive:collapsed">0</property>
   </filter>
  </entry>
  <entry producer="producer23" in="00:00:00.000" out="00:00:03.433">
   <property name="kdenlive:id">28</property>
  </entry>
  <entry producer="producer20" in="00:00:00.000" out="00:00:08.233">
   <property name="kdenlive:id">25</property>
   <filter id="filter39">
    <property name="rotate_center">1</property>
    <property name="mlt_service">qtblend</property>
    <property name="kdenlive_id">qtblend</property>
    <property name="rect">00:00:00.000=-1213 -383 3712 2088 0.300000;00:00:08.233=-1213 -1365 3712 2088 0.300000</property>
    <property name="rotation">00:00:00.000=0;00:00:08.233=0</property>
    <property name="compositing">0</property>
    <property name="distort">0</property>
    <property name="kdenlive:collapsed">0</property>
   </filter>
  </entry>
  <entry producer="producer88" in="00:00:00.000" out="00:00:03.067">
   <property name="kdenlive:id">11</property>
   <filter id="filter40" in="00:00:02.067" out="00:00:03.067">
    <property name="start">1</property>
    <property name="mlt_service">brightness</property>
    <property name="kdenlive_id">fade_to_black</property>
    <property name="end">0</property>
    <property name="alpha">-1</property>
   </filter>
  </entry>
  <blank length="00:00:02.067"/>
  <entry producer="producer28" in="00:00:00.000" out="00:00:10.633">
   <property name="kdenlive:id">33</property>
   <filter id="filter41">
    <property name="rotate_center">1</property>
    <property name="mlt_service">qtblend</property>
    <property name="kdenlive_id">qtblend</property>
    <property name="rect">00:00:00.000~=0 0 1280 720 1.000000;00:00:03.300=-114 -69 1504 846 1.000000</property>
    <property name="rotation">00:00:00.000~=0;00:00:03.300=0</property>
    <property name="compositing">0</property>
    <property name="distort">0</property>
    <property name="kdenlive:collapsed">0</property>
   </filter>
  </entry>
  <entry producer="producer30" in="00:00:00.000" out="00:00:04.967">
   <property name="kdenlive:id">35</property>
   <filter id="filter42" in="00:00:04.600" out="00:00:04.967">
    <property name="start">1</property>
    <property name="mlt_service">brightness</property>
    <property name="kdenlive_id">fade_to_black</property>
    <property name="end">0</property>
    <property name="alpha">-1</property>
    <property name="kdenlive:collapsed">0</property>
   </filter>
   <filter id="filter43" out="00:00:01.233">
    <property name="start">0</property>
    <property name="mlt_service">brightness</property>
    <property name="kdenlive_id">fade_from_black</property>
    <property name="end">1</property>
    <property name="alpha">-1</property>
    <property name="kdenlive:collapsed">0</property>
   </filter>
  </entry>
  <blank length="00:00:10.567"/>
  <entry producer="producer89" in="00:00:00.000" out="00:00:03.067">
   <property name="kdenlive:id">5</property>
   <filter id="filter44" out="00:00:00.533">
    <property name="start">0</property>
    <property name="mlt_service">brightness</property>
    <property name="kdenlive_id">fade_from_black</property>
    <property name="end">1</property>
    <property name="alpha">-1</property>
   </filter>
   <filter id="filter45" in="00:00:02.600" out="00:00:03.067">
    <property name="start">1</property>
    <property name="mlt_service">brightness</property>
    <property name="kdenlive_id">fade_to_black</property>
    <property name="end">0</property>
    <property name="alpha">-1</property>
   </filter>
  </entry>
  <blank length="00:00:13.367"/>
  <entry producer="producer90" in="00:00:00.967" out="00:00:11.900">
   <property name="kdenlive:id">6</property>
   <filter id="filter46">
    <property name="version">0.1</property>
    <property name="mlt_service">frei0r.colorize</property>
    <property name="kdenlive_id">frei0r.colorize</property>
    <property name="hue">00:00:00.967=0.325934;00:00:01.933=0.291667;00:00:05.467~=0.291667;00:00:08.767=0.619444</property>
    <property name="saturation">00:00:00.967=0.175;00:00:01.933=0.175;00:00:05.467~=0.0444444;00:00:08.767=0.238889</property>
    <property name="lightness">00:00:00.967=0.463889;00:00:01.933=0.463889;00:00:05.467~=0.469444;00:00:08.767=0.372222</property>
    <property name="kdenlive:collapsed">0</property>
   </filter>
   <filter id="filter47" in="00:00:00.967" out="00:00:01.467">
    <property name="start">0</property>
    <property name="mlt_service">brightness</property>
    <property name="kdenlive_id">fade_from_black</property>
    <property name="end">1</property>
    <property name="alpha">-1</property>
   </filter>
  </entry>
  <blank length="00:00:01.833"/>
  <entry producer="producer91" in="00:00:02.633" out="00:00:09.733">
   <property name="kdenlive:id">13</property>
   <property name="kdenlive:activeeffect">1</property>
   <filter id="filter48" in="00:00:02.633" out="00:00:03.100">
    <property name="start">0</property>
    <property name="mlt_service">brightness</property>
    <property name="kdenlive_id">fade_from_black</property>
    <property name="end">1</property>
    <property name="alpha">-1</property>
    <property name="kdenlive:collapsed">0</property>
   </filter>
   <filter id="filter49">
    <property name="version">0.1</property>
    <property name="mlt_service">frei0r.glow</property>
    <property name="kdenlive_id">frei0r.glow</property>
    <property name="Blur">00:00:02.633~=0.446;00:00:04.900=0</property>
    <property name="kdenlive:collapsed">0</property>
   </filter>
  </entry>
  <blank length="00:00:05.733"/>
  <entry producer="producer92" in="00:00:00.000" out="00:00:03.700">
   <property name="kdenlive:id">12</property>
  </entry>
  <entry producer="producer31" in="00:00:00.000" out="00:00:07.433">
   <property name="kdenlive:id">36</property>
   <filter id="filter50">
    <property name="rotate_center">1</property>
    <property name="mlt_service">qtblend</property>
    <property name="kdenlive_id">qtblend</property>
    <property name="rect">00:00:00.000=-1053 13 3386 1904 1.000000;00:00:00.500~=-1053 13 3386 1904 1.000000;00:00:07.433=-1053 -1258 3386 1904 1.000000</property>
    <property name="rotation">00:00:00.000=0;00:00:00.500~=0;00:00:07.433=0</property>
    <property name="compositing">0</property>
    <property name="distort">0</property>
    <property name="kdenlive:collapsed">0</property>
   </filter>
  </entry>
  <entry producer="producer33" in="00:00:00.000" out="00:00:04.967">
   <property name="kdenlive:id">38</property>
   <filter id="filter51">
    <property name="rotate_center">1</property>
    <property name="mlt_service">qtblend</property>
    <property name="kdenlive_id">qtblend</property>
    <property name="rect">0=-1053 13 3386 1904 1.000000;15~=-1053 13 3386 1904 1.000000;120=-1053 -675 3386 1904 1.000000;150~=2.22507e-308 2.22507e-308 2.22507e-308 2.22507e-308 0.000000</property>
    <property name="rotation">00:00:00.000=0;00:00:00.500~=0;00:00:04.000=0;00:00:05.000~=0</property>
    <property name="compositing">0</property>
    <property name="distort">0</property>
    <property name="kdenlive:collapsed">0</property>
   </filter>
  </entry>
  <entry producer="producer34" in="00:00:00.000" out="00:00:06.233">
   <property name="kdenlive:id">45</property>
  </entry>
  <entry producer="producer93" in="00:00:00.000" out="00:00:03.600">
   <property name="kdenlive:id">2</property>
  </entry>
  <entry producer="producer93" in="00:00:03.633" out="00:00:05.000">
   <property name="kdenlive:id">2</property>
   <filter id="filter52">
    <property name="line_width">00:00:03.633=2</property>
    <property name="num">00:00:03.633=5</property>
    <property name="darker">00:00:03.633=40</property>
    <property name="lighter">00:00:03.633=40</property>
    <property name="mlt_service">lines</property>
    <property name="kdenlive_id">lines</property>
    <property name="kdenlive:collapsed">0</property>
    <property name="line4">1276</property>
    <property name="typeline4">3</property>
    <property name="line3">1022</property>
    <property name="typeline3">1</property>
    <property name="line2">285</property>
    <property name="typeline2">3</property>
    <property name="line1">466</property>
    <property name="typeline1">3</property>
    <property name="line0">87</property>
    <property name="typeline0">3</property>
    <property name="last_oldfilm_line_pos">0.784211</property>
   </filter>
   <filter id="filter53">
    <property name="version">0.1</property>
    <property name="mlt_service">frei0r.glitch0r</property>
    <property name="kdenlive_id">frei0r.glitch0r</property>
    <property name="0">00:00:03.633=0.11</property>
    <property name="1">00:00:03.633=0.398</property>
    <property name="2">00:00:03.633=0.328</property>
    <property name="3">00:00:03.633=0.107</property>
    <property name="kdenlive:collapsed">0</property>
   </filter>
  </entry>
  <entry producer="producer43" in="00:00:00.000" out="00:00:04.967">
   <property name="kdenlive:id">49</property>
   <filter id="filter54" out="00:00:02.500">
    <property name="start">0</property>
    <property name="mlt_service">brightness</property>
    <property name="kdenlive_id">fade_from_black</property>
    <property name="end">1</property>
    <property name="alpha">-1</property>
   </filter>
  </entry>
  <entry producer="producer42" in="00:00:00.000" out="00:00:04.433">
   <property name="kdenlive:id">48</property>
   <filter id="filter55">
    <property name="rotate_center">1</property>
    <property name="mlt_service">qtblend</property>
    <property name="kdenlive_id">qtblend</property>
    <property name="rect">00:00:00.000=-310 -174 1900 1069 1.000000;00:00:00.867=-310 -174 1900 1069 1.000000;00:00:03.333=-422 -404 2127 1196 1.000000</property>
    <property name="rotation">00:00:00.000=0;00:00:00.867=0;00:00:03.333=0</property>
    <property name="compositing">0</property>
    <property name="distort">0</property>
    <property name="kdenlive:collapsed">0</property>
   </filter>
  </entry>
  <blank length="00:00:01.200"/>
  <entry producer="producer32" in="00:00:00.000" out="00:00:04.967">
   <property name="kdenlive:id">53</property>
   <property name="kdenlive:activeeffect">1</property>
   <filter id="filter9" in="00:00:03.167" out="00:00:04.967">
    <property name="start">1</property>
    <property name="mlt_service">brightness</property>
    <property name="kdenlive_id">fade_to_black</property>
    <property name="end">0</property>
    <property name="alpha">-1</property>
    <property name="kdenlive:collapsed">0</property>
   </filter>
   <filter id="filter59">
    <property name="rotate_center">1</property>
    <property name="mlt_service">qtblend</property>
    <property name="kdenlive_id">qtblend</property>
    <property name="rect">00:00:00.000=0 0 1280 720 1</property>
    <property name="rotation">00:00:00.000=0</property>
    <property name="compositing">0</property>
    <property name="distort">0</property>
    <property name="kdenlive:collapsed">0</property>
   </filter>
  </entry>
  <entry producer="producer94" in="00:00:00.000" out="00:00:03.633">
   <property name="kdenlive:id">3</property>
   <filter id="filter60" out="00:00:00.300">
    <property name="start">0</property>
    <property name="mlt_service">brightness</property>
    <property name="kdenlive_id">fade_from_black</property>
    <property name="end">1</property>
    <property name="alpha">-1</property>
    <property name="kdenlive:collapsed">0</property>
   </filter>
  </entry>
  <blank length="00:00:00.500"/>
  <entry producer="producer48" in="00:00:00.000" out="00:00:04.967">
   <property name="kdenlive:id">54</property>
   <filter id="filter61">
    <property name="rotate_center">1</property>
    <property name="mlt_service">qtblend</property>
    <property name="kdenlive_id">qtblend</property>
    <property name="rect">00:00:00.000=-1053 13 3386 1904 1.000000;00:00:00.500~=-1053 13 3386 1904 1.000000;00:00:05.000~=</property>
    <property name="rotation">00:00:00.000=0;00:00:00.500~=0;00:00:05.000~=</property>
    <property name="compositing">0</property>
    <property name="distort">0</property>
    <property name="kdenlive:collapsed">0</property>
   </filter>
  </entry>
  <blank length="00:00:00.933"/>
  <entry producer="producer38" in="00:00:00.000" out="00:00:05.867">
   <property name="kdenlive:id">43</property>
   <filter id="filter62">
    <property name="rotate_center">1</property>
    <property name="mlt_service">qtblend</property>
    <property name="kdenlive_id">qtblend</property>
    <property name="rect">00:00:00.000=-3751 34 8784 4941 1.000000;00:00:03.000~=-2031 -537 5343 3005 1.000000;00:00:04.967=-1324 -1057 3929 2208 1.000000</property>
    <property name="rotation">00:00:00.000=0;00:00:03.000~=0;00:00:04.967=0</property>
    <property name="compositing">0</property>
    <property name="distort">0</property>
    <property name="kdenlive:collapsed">0</property>
   </filter>
  </entry>
  <entry producer="producer95" in="00:00:03.900" out="00:00:07.467">
   <property name="kdenlive:id">6</property>
  </entry>
  <entry producer="producer36" in="00:00:00.000" out="00:00:04.367">
   <property name="kdenlive:id">40</property>
   <filter id="filter63" out="00:00:01.733">
    <property name="start">0</property>
    <property name="mlt_service">brightness</property>
    <property name="kdenlive_id">fade_from_black</property>
    <property name="end">1</property>
    <property name="alpha">-1</property>
    <property name="kdenlive:collapsed">0</property>
   </filter>
  </entry>
  <entry producer="producer36" in="00:00:00.000" out="00:00:01.400">
   <property name="kdenlive:id">40</property>
   <filter id="filter64">
    <property name="maxdiameter">00:00:00.000=14</property>
    <property name="maxcount">00:00:00.000=4</property>
    <property name="mlt_service">dust</property>
    <property name="kdenlive_id">dust</property>
    <property name="kdenlive:collapsed">0</property>
    <property name="cache-dy-0-25">22</property>
    <property name="cache-dy-2-25">15</property>
    <property name="cache-dy-4-25">38</property>
    <property name="cache-dy-1-25">33</property>
    <property name="cache-dy-3-25">59</property>
    <property name="cache-dy-1-179">237</property>
    <property name="cache-dy-4-179">275</property>
    <property name="cache-dy-3-179">423</property>
    <property name="cache-dy-0-179">161</property>
    <property name="cache-dy-2-179">109</property>
   </filter>
  </entry>
  <blank length="00:00:00.133"/>
  <entry producer="producer35" in="00:00:00.000" out="00:00:04.967">
   <property name="kdenlive:id">39</property>
   <filter id="filter65" out="00:00:00.167">
    <property name="start">0</property>
    <property name="mlt_service">brightness</property>
    <property name="kdenlive_id">fade_from_black</property>
    <property name="end">1</property>
    <property name="alpha">-1</property>
   </filter>
   <filter id="filter66" in="00:00:04.600" out="00:00:04.967">
    <property name="start">1</property>
    <property name="mlt_service">brightness</property>
    <property name="kdenlive_id">fade_to_black</property>
    <property name="end">0</property>
    <property name="alpha">-1</property>
   </filter>
  </entry>
  <entry producer="producer96" in="00:00:00.000" out="00:00:03.633">
   <property name="kdenlive:id">4</property>
   <filter id="filter67" out="00:00:00.433">
    <property name="start">0</property>
    <property name="mlt_service">brightness</property>
    <property name="kdenlive_id">fade_from_black</property>
    <property name="end">1</property>
    <property name="alpha">-1</property>
    <property name="kdenlive:collapsed">0</property>
   </filter>
  </entry>
  <blank length="00:00:03.733"/>
  <entry producer="producer97" in="00:00:01.633" out="00:00:08.467">
   <property name="kdenlive:id">8</property>
  </entry>
  <entry producer="producer97" in="00:00:08.500" out="00:00:09.233">
   <property name="kdenlive:id">8</property>
   <filter id="filter68">
    <property name="version">1</property>
    <property name="mlt_service">frei0r.pixeliz0r</property>
    <property name="kdenlive_id">frei0r.pixeliz0r</property>
    <property name="BlockSizeX">00:00:08.500=0.035</property>
    <property name="BlockSizeY">00:00:08.500=0.094</property>
    <property name="kdenlive:collapsed">0</property>
   </filter>
  </entry>
  <blank length="00:00:04.500"/>
  <entry producer="producer45" in="00:00:00.000" out="00:00:02.333">
   <property name="kdenlive:id">51</property>
   <property name="kdenlive:activeeffect">3</property>
   <filter id="filter69">
    <property name="rotate_center">1</property>
    <property name="mlt_service">qtblend</property>
    <property name="kdenlive_id">qtblend</property>
    <property name="rect">00:00:00.000=-346 -222 1973 1110 1.000000</property>
    <property name="rotation">00:00:00.000=0</property>
    <property name="compositing">0</property>
    <property name="distort">0</property>
    <property name="kdenlive:collapsed">0</property>
   </filter>
   <filter id="filter70">
    <property name="line_width">00:00:00.000=9.9493;00:00:01.467=10</property>
    <property name="num">00:00:00.000=83.5995;00:00:01.467=84</property>
    <property name="darker">00:00:00.000=9.15717;00:00:01.467=9</property>
    <property name="lighter">00:00:00.000=88.7516;00:00:01.467=89</property>
    <property name="mlt_service">lines</property>
    <property name="kdenlive_id">lines</property>
    <property name="kdenlive:collapsed">0</property>
    <property name="line15">611</property>
    <property name="typeline15">3</property>
    <property name="line14">251</property>
    <property name="typeline14">1</property>
    <property name="line13">929</property>
    <property name="typeline13">2</property>
    <property name="line12">38</property>
    <property name="typeline12">2</property>
    <property name="line11">427</property>
    <property name="typeline11">3</property>
    <property name="line10">69</property>
    <property name="typeline10">3</property>
    <property name="line9">825</property>
    <property name="typeline9">2</property>
    <property name="line8">347</property>
    <property name="typeline8">2</property>
    <property name="line7">1140</property>
    <property name="typeline7">2</property>
    <property name="line6">579</property>
    <property name="typeline6">3</property>
    <property name="line5">1231</property>
    <property name="typeline5">2</property>
    <property name="line4">797</property>
    <property name="typeline4">3</property>
    <property name="line3">946</property>
    <property name="typeline3">3</property>
    <property name="line2">757</property>
    <property name="typeline2">3</property>
    <property name="line1">594</property>
    <property name="typeline1">2</property>
    <property name="line0">1243</property>
    <property name="typeline0">2</property>
    <property name="last_oldfilm_line_pos">0.456376</property>
    <property name="line21">627</property>
    <property name="typeline21">2</property>
    <property name="line20">559</property>
    <property name="typeline20">3</property>
    <property name="line19">1044</property>
    <property name="typeline19">1</property>
    <property name="line18">186</property>
    <property name="typeline18">1</property>
    <property name="line17">1175</property>
    <property name="typeline17">3</property>
    <property name="line16">1020</property>
    <property name="typeline16">3</property>
    <property name="line27">694</property>
    <property name="typeline27">3</property>
    <property name="line26">693</property>
    <property name="typeline26">1</property>
    <property name="line25">610</property>
    <property name="typeline25">2</property>
    <property name="line24">256</property>
    <property name="typeline24">1</property>
    <property name="line23">1201</property>
    <property name="typeline23">2</property>
    <property name="line22">1284</property>
    <property name="typeline22">2</property>
    <property name="line32">644</property>
    <property name="typeline32">3</property>
    <property name="line31">939</property>
    <property name="typeline31">2</property>
    <property name="line30">777</property>
    <property name="typeline30">3</property>
    <property name="line29">899</property>
    <property name="typeline29">1</property>
    <property name="line28">1101</property>
    <property name="typeline28">2</property>
    <property name="line38">1257</property>
    <property name="typeline38">2</property>
    <property name="line37">449</property>
    <property name="typeline37">3</property>
    <property name="line36">331</property>
    <property name="typeline36">2</property>
    <property name="line35">385</property>
    <property name="typeline35">3</property>
    <property name="line34">502</property>
    <property name="typeline34">1</property>
    <property name="line33">310</property>
    <property name="typeline33">3</property>
    <property name="line44">1277</property>
    <property name="typeline44">1</property>
    <property name="line43">595</property>
    <property name="typeline43">1</property>
    <property name="line42">1194</property>
    <property name="typeline42">2</property>
    <property name="line41">1047</property>
    <property name="typeline41">3</property>
    <property name="line40">565</property>
    <property name="typeline40">2</property>
    <property name="line39">416</property>
    <property name="typeline39">1</property>
    <property name="line50">501</property>
    <property name="typeline50">3</property>
    <property name="line49">844</property>
    <property name="typeline49">3</property>
    <property name="line48">56</property>
    <property name="typeline48">1</property>
    <property name="line47">1131</property>
    <property name="typeline47">2</property>
    <property name="line46">1231</property>
    <property name="typeline46">2</property>
    <property name="line45">799</property>
    <property name="typeline45">2</property>
    <property name="line56">1281</property>
    <property name="typeline56">2</property>
    <property name="line55">390</property>
    <property name="typeline55">2</property>
    <property name="line54">858</property>
    <property name="typeline54">3</property>
    <property name="line53">1182</property>
    <property name="typeline53">1</property>
    <property name="line52">592</property>
    <property name="typeline52">1</property>
    <property name="line51">252</property>
    <property name="typeline51">2</property>
    <property name="line61">571</property>
    <property name="typeline61">2</property>
    <property name="line60">495</property>
    <property name="typeline60">2</property>
    <property name="line59">1075</property>
    <property name="typeline59">3</property>
    <property name="line58">1213</property>
    <property name="typeline58">2</property>
    <property name="line57">1161</property>
    <property name="typeline57">3</property>
    <property name="line67">1267</property>
    <property name="typeline67">3</property>
    <property name="line66">22</property>
    <property name="typeline66">1</property>
    <property name="line65">1222</property>
    <property name="typeline65">2</property>
    <property name="line64">76</property>
    <property name="typeline64">3</property>
    <property name="line63">586</property>
    <property name="typeline63">1</property>
    <property name="line62">1279</property>
    <property name="typeline62">1</property>
    <property name="line73">564</property>
    <property name="typeline73">3</property>
    <property name="line72">844</property>
    <property name="typeline72">1</property>
    <property name="line71">37</property>
    <property name="typeline71">3</property>
    <property name="line70">112</property>
    <property name="typeline70">3</property>
    <property name="line69">1216</property>
    <property name="typeline69">1</property>
    <property name="line68">860</property>
    <property name="typeline68">3</property>
    <property name="line79">530</property>
    <property name="typeline79">2</property>
    <property name="line78">1015</property>
    <property name="typeline78">1</property>
    <property name="line77">217</property>
    <property name="typeline77">1</property>
    <property name="line76">859</property>
    <property name="typeline76">2</property>
    <property name="line75">667</property>
    <property name="typeline75">3</property>
    <property name="line74">439</property>
    <property name="typeline74">2</property>
    <property name="line83">579</property>
    <property name="typeline83">1</property>
    <property name="line82">668</property>
    <property name="typeline82">1</property>
    <property name="line81">1040</property>
    <property name="typeline81">2</property>
    <property name="line80">299</property>
    <property name="typeline80">3</property>
   </filter>
   <filter id="filter71">
    <property name="maxdiameter">00:00:00.000=48</property>
    <property name="maxcount">00:00:00.000=182</property>
    <property name="mlt_service">dust</property>
    <property name="kdenlive_id">dust</property>
    <property name="kdenlive:collapsed">0</property>
    <property name="cache-dy-1-25">33</property>
    <property name="cache-dy-2-25">15</property>
    <property name="cache-dy-1-128">169</property>
    <property name="cache-dy-4-128">196</property>
    <property name="cache-dy-3-128">302</property>
    <property name="cache-dy-0-128">115</property>
    <property name="cache-dy-1-230">304</property>
    <property name="cache-dy-3-230">543</property>
    <property name="cache-dy-0-230">207</property>
    <property name="cache-dy-2-230">140</property>
    <property name="cache-dy-1-332">439</property>
    <property name="cache-dy-0-332">300</property>
    <property name="cache-dy-3-332">784</property>
    <property name="cache-dy-2-332">202</property>
    <property name="cache-dy-4-332">510</property>
    <property name="cache-dy-1-435">576</property>
    <property name="cache-dy-2-435">265</property>
    <property name="cache-dy-4-435">668</property>
    <property name="cache-dy-0-435">393</property>
    <property name="cache-dy-3-435">1028</property>
    <property name="cache-dy-4-537">825</property>
    <property name="cache-dy-2-537">328</property>
    <property name="cache-dy-3-537">1269</property>
    <property name="cache-dy-0-537">485</property>
    <property name="cache-dy-1-537">711</property>
    <property name="cache-dy-1-614">813</property>
    <property name="cache-dy-0-614">555</property>
    <property name="cache-dy-2-614">375</property>
    <property name="cache-dy-3-614">1451</property>
    <property name="cache-dy-4-614">944</property>
    <property name="cache-dy-1-409">541</property>
    <property name="cache-dy-3-409">966</property>
    <property name="cache-dy-0-409">369</property>
    <property name="cache-dy-4-409">628</property>
    <property name="cache-dy-2-409">249</property>
    <property name="cache-dy-0-550">497</property>
    <property name="cache-dy-2-550">335</property>
    <property name="cache-dy-3-550">1300</property>
    <property name="cache-dy-4-550">845</property>
    <property name="cache-dy-1-550">728</property>
    <property name="cache-dy-0-588">531</property>
    <property name="cache-dy-4-588">904</property>
    <property name="cache-dy-2-588">359</property>
    <property name="cache-dy-1-588">778</property>
    <property name="cache-dy-3-588">1389</property>
    <property name="cache-dy-0-563">509</property>
    <property name="cache-dy-2-563">343</property>
    <property name="cache-dy-3-563">1330</property>
    <property name="cache-dy-4-563">865</property>
    <property name="cache-dy-1-563">745</property>
    <property name="cache-dy-1-601">796</property>
    <property name="cache-dy-4-601">924</property>
    <property name="cache-dy-2-601">367</property>
    <property name="cache-dy-3-601">1420</property>
    <property name="cache-dy-0-601">543</property>
    <property name="cache-dy-2-576">351</property>
    <property name="cache-dy-0-576">520</property>
    <property name="cache-dy-1-576">763</property>
    <property name="cache-dy-3-576">1361</property>
    <property name="cache-dy-4-576">885</property>
   </filter>
   <filter id="filter72">
    <property name="delta">00:00:00.000=0;00:00:01.400=0;00:00:01.433=97</property>
    <property name="every">00:00:00.000=20;00:00:01.400=20;00:00:01.433=20</property>
    <property name="brightnessdelta_up">00:00:00.000=20;00:00:01.400=20;00:00:01.433=20</property>
    <property name="brightnessdelta_down">00:00:00.000=30;00:00:01.400=30;00:00:01.433=30</property>
    <property name="brightnessdelta_every">00:00:00.000=70;00:00:01.400=70;00:00:01.433=70</property>
    <property name="unevendevelop_up">00:00:00.000=60;00:00:01.400=60;00:00:01.433=60</property>
    <property name="unevendevelop_down">00:00:00.000=20;00:00:01.400=20;00:00:01.433=20</property>
    <property name="unevendevelop_duration">00:00:00.000=70;00:00:01.400=70;00:00:01.433=70</property>
    <property name="mlt_service">oldfilm</property>
    <property name="kdenlive_id">oldfilm</property>
    <property name="kdenlive:collapsed">0</property>
   </filter>
   <filter id="filter73" in="00:00:01.200" out="00:00:02.333">
    <property name="start">1</property>
    <property name="mlt_service">brightness</property>
    <property name="kdenlive_id">fade_to_black</property>
    <property name="end">0</property>
    <property name="alpha">-1</property>
    <property name="kdenlive:collapsed">0</property>
   </filter>
  </entry>
  <blank length="00:00:00.667"/>
  <entry producer="producer17" in="00:00:00.000" out="00:00:03.000">
   <property name="kdenlive:id">21</property>
  </entry>
  <blank length="00:00:03.167"/>
  <entry producer="producer18" in="00:00:00.000" out="00:00:02.133">
   <property name="kdenlive:id">22</property>
   <filter id="filter74" in="00:00:01.333" out="00:00:02.133">
    <property name="start">1</property>
    <property name="mlt_service">brightness</property>
    <property name="kdenlive_id">fade_to_black</property>
    <property name="end">0</property>
    <property name="alpha">-1</property>
    <property name="kdenlive:collapsed">0</property>
   </filter>
  </entry>
  <entry producer="producer51" in="00:00:00.000" out="00:00:03.233">
   <property name="kdenlive:id">59</property>
  </entry>
  <blank length="00:00:00.033"/>
  <entry producer="producer52" in="00:00:00.000" out="00:00:02.467">
   <property name="kdenlive:id">61</property>
  </entry>
  <entry producer="producer54" in="00:00:00.000" out="00:00:02.933">
   <property name="kdenlive:id">63</property>
  </entry>
  <entry producer="producer53" in="00:00:00.000" out="00:00:02.533">
   <property name="kdenlive:id">62</property>
  </entry>
  <entry producer="producer55" in="00:00:00.000" out="00:00:00.967">
   <property name="kdenlive:id">64</property>
  </entry>
  <entry producer="producer56" in="00:00:00.000" out="00:00:02.600">
   <property name="kdenlive:id">65</property>
  </entry>
  <entry producer="producer57" in="00:00:00.000" out="00:00:02.833">
   <property name="kdenlive:id">66</property>
  </entry>
  <entry producer="producer58" in="00:00:00.000" out="00:00:04.233">
   <property name="kdenlive:id">67</property>
  </entry>
  <entry producer="producer60" in="00:00:00.000" out="00:00:02.767">
   <property name="kdenlive:id">69</property>
  </entry>
  <entry producer="producer59" in="00:00:00.000" out="00:00:03.267">
   <property name="kdenlive:id">68</property>
  </entry>
  <entry producer="producer61" in="00:00:00.000" out="00:00:00.733">
   <property name="kdenlive:id">70</property>
  </entry>
  <blank length="00:00:01.700"/>
  <entry producer="producer49" in="00:00:00.000" out="00:00:04.767">
   <property name="kdenlive:id">55</property>
   <filter id="filter75" out="00:00:00.933">
    <property name="start">0</property>
    <property name="mlt_service">brightness</property>
    <property name="kdenlive_id">fade_from_black</property>
    <property name="end">1</property>
    <property name="alpha">-1</property>
   </filter>
  </entry>
  <blank length="00:00:00.600"/>
  <entry producer="producer50" in="00:00:00.000" out="00:00:08.933">
   <property name="kdenlive:id">57</property>
   <filter id="filter76" out="00:00:01.367">
    <property name="start">0</property>
    <property name="mlt_service">brightness</property>
    <property name="kdenlive_id">fade_from_black</property>
    <property name="end">1</property>
    <property name="alpha">-1</property>
    <property name="kdenlive:collapsed">0</property>
   </filter>
  </entry>
  <blank length="00:00:01.200"/>
  <entry producer="producer47" in="00:00:00.000" out="00:00:14.367">
   <property name="kdenlive:id">58</property>
  </entry>
 </playlist>
 <playlist id="playlist11"/>
 <tractor id="tractor6" in="00:00:00.000" out="00:04:55.867">
  <property name="kdenlive:trackheight">69</property>
  <property name="kdenlive:timeline_active">1</property>
  <property name="kdenlive:collapsed">0</property>
  <property name="kdenlive:thumbs_format"/>
  <property name="kdenlive:audio_rec"/>
  <track hide="audio" producer="playlist10"/>
  <track producer="playlist11"/>
 </tractor>
 <producer id="producer98" in="00:00:00.000" out="00:00:00.800">
  <property name="length">25</property>
  <property name="eof">pause</property>
  <property name="resource">/home/duangsuse/.cache/kdenlive/1628200406675/preview/0.avi</property>
  <property name="meta.media.nb_streams">1</property>
  <property name="meta.media.0.stream.type">video</property>
  <property name="meta.media.0.stream.frame_rate">30</property>
  <property name="meta.media.0.stream.sample_aspect_ratio">1</property>
  <property name="meta.media.0.codec.width">1280</property>
  <property name="meta.media.0.codec.height">720</property>
  <property name="meta.media.0.codec.rotate">0</property>
  <property name="meta.media.0.codec.frame_rate">30</property>
  <property name="meta.media.0.codec.pix_fmt">yuvj420p</property>
  <property name="meta.media.0.codec.sample_aspect_ratio">1</property>
  <property name="meta.media.0.codec.colorspace">601</property>
  <property name="meta.media.0.codec.name">mjpeg</property>
  <property name="meta.media.0.codec.long_name">MJPEG (Motion JPEG)</property>
  <property name="meta.media.0.codec.bit_rate">14506130</property>
  <property name="meta.attr.software.markup">Lavf58.76.100</property>
  <property name="seekable">1</property>
  <property name="meta.media.sample_aspect_num">1</property>
  <property name="meta.media.sample_aspect_den">1</property>
  <property name="aspect_ratio">1</property>
  <property name="audio_index">-1</property>
  <property name="video_index">0</property>
  <property name="mute_on_pause">1</property>
  <property name="mlt_service">avformat-novalidate</property>
 </producer>
 <playlist id="timeline_preview">
  <entry producer="producer98" in="00:00:00.000" out="00:00:00.800"/>
 </playlist>
 <tractor id="tractor7" global_feed="1" in="00:00:00.000" out="00:21:35.900">
  <track producer="black_track"/>
  <track producer="tractor1"/>
  <track producer="tractor2"/>
  <track producer="tractor3"/>
  <track producer="tractor4"/>
  <track producer="tractor5"/>
  <track producer="tractor6"/>
  <track hide="both" producer="timeline_preview"/>
  <transition id="transition0" in="00:02:43.100" out="00:02:44.567">
   <property name="a_track">5</property>
   <property name="b_track">6</property>
   <property name="start">0/0:100%x100%</property>
   <property name="factory">loader</property>
   <property name="aligned">0</property>
   <property name="progressive">1</property>
   <property name="mlt_service">composite</property>
   <property name="kdenlive_id">wipe</property>
   <property name="softness">0</property>
   <property name="luma"/>
   <property name="luma_invert">0</property>
   <property name="geometry">0%/0%:100%x100%:0;-1=0%/0%:100%x100%:100</property>
   <property name="fill">1</property>
  </transition>
  <transition id="transition1" in="00:02:25.767" out="00:02:26.767">
   <property name="a_track">5</property>
   <property name="b_track">6</property>
   <property name="start">0/0:100%x100%</property>
   <property name="factory">loader</property>
   <property name="aligned">0</property>
   <property name="progressive">1</property>
   <property name="mlt_service">composite</property>
   <property name="kdenlive_id">wipe</property>
   <property name="softness">0</property>
   <property name="luma"/>
   <property name="luma_invert">0</property>
   <property name="geometry">0%/0%:100%x100%:100;-1=0%/0%:100%x100%:0</property>
   <property name="fill">1</property>
  </transition>
  <transition id="transition2" in="00:00:45.333" out="00:00:48.767">
   <property name="a_track">5</property>
   <property name="b_track">6</property>
   <property name="distort">0</property>
   <property name="rect">0%/0%:100%x100%:100%</property>
   <property name="fill">1</property>
   <property name="mlt_service">affine</property>
   <property name="kdenlive_id">affine</property>
   <property name="geometry">0=636 21 1170 701 0.000000;15=636 21 1170 701 100.000000;66=636 21 1170 701 100.000000;78=636 21 1170 701 20.000000;103=636 21 1170 701 0.000000</property>
   <property name="rotate_x">00:00:00.000=0;00:00:00.500=0;00:00:02.200=0;00:00:02.600=0;00:00:03.433=0</property>
   <property name="rotate_y">00:00:00.000=0;00:00:00.500=0;00:00:02.200=0;00:00:02.600=0;00:00:03.433=0</property>
   <property name="rotate_z">00:00:00.000=0;00:00:00.500=0;00:00:02.200=0;00:00:02.600=0;00:00:03.433=0</property>
   <property name="keyed">1</property>
   <property name="transition.repeat_off">1</property>
   <property name="transition.mirror_off">1</property>
  </transition>
  <transition id="transition3" in="00:00:25.567" out="00:00:26.767">
   <property name="a_track">5</property>
   <property name="b_track">6</property>
   <property name="start">0/0:100%x100%</property>
   <property name="factory">loader</property>
   <property name="aligned">0</property>
   <property name="progressive">1</property>
   <property name="mlt_service">composite</property>
   <property name="kdenlive_id">wipe</property>
   <property name="softness">0</property>
   <property name="luma"/>
   <property name="luma_invert">0</property>
   <property name="geometry">0%/0%:100%x100%:100;-1=0%/0%:100%x100%:0</property>
   <property name="fill">1</property>
  </transition>
  <transition id="transition4" in="00:02:55.600" out="00:02:57.400">
   <property name="a_track">5</property>
   <property name="b_track">6</property>
   <property name="start">0/0:100%x100%</property>
   <property name="factory">loader</property>
   <property name="aligned">0</property>
   <property name="progressive">1</property>
   <property name="mlt_service">composite</property>
   <property name="kdenlive_id">wipe</property>
   <property name="softness">0</property>
   <property name="luma"/>
   <property name="luma_invert">0</property>
   <property name="geometry">0%/0%:100%x100%:100;-1=0%/0%:100%x100%:0</property>
   <property name="fill">1</property>
  </transition>
  <transition id="transition5" in="00:01:55.300" out="00:01:55.867">
   <property name="a_track">5</property>
   <property name="b_track">6</property>
   <property name="start">0/0:100%x100%</property>
   <property name="factory">loader</property>
   <property name="aligned">0</property>
   <property name="progressive">1</property>
   <property name="mlt_service">composite</property>
   <property name="kdenlive_id">wipe</property>
   <property name="softness">0.23</property>
   <property name="luma">/usr/share/mlt/lumas/16_9/luma07.pgm.png</property>
   <property name="luma_invert">1</property>
   <property name="geometry">0%/0%:100%x100%:100;-1=0%/0%:100%x100%:0</property>
   <property name="fill">1</property>
  </transition>
  <transition id="transition6" in="00:01:02.233" out="00:01:05.200">
   <property name="a_track">5</property>
   <property name="b_track">6</property>
   <property name="start">0/0:100%x100%</property>
   <property name="factory">loader</property>
   <property name="aligned">0</property>
   <property name="progressive">1</property>
   <property name="mlt_service">composite</property>
   <property name="kdenlive_id">wipe</property>
   <property name="softness">0.13</property>
   <property name="luma">/usr/share/kdenlive/lumas/HD/spiral.pgm</property>
   <property name="luma_invert">0</property>
   <property name="geometry">0%/0%:100%x100%:0;-1=0%/0%:100%x100%:100</property>
   <property name="fill">1</property>
  </transition>
  <transition id="transition7" in="00:02:10.367" out="00:02:11.300">
   <property name="a_track">5</property>
   <property name="b_track">6</property>
   <property name="start">0/0:100%x100%</property>
   <property name="factory">loader</property>
   <property name="aligned">0</property>
   <property name="progressive">1</property>
   <property name="mlt_service">composite</property>
   <property name="kdenlive_id">wipe</property>
   <property name="softness">0</property>
   <property name="luma"/>
   <property name="luma_invert">0</property>
   <property name="geometry">0%/0%:100%x100%:0;-1=0%/0%:100%x100%:100</property>
   <property name="fill">1</property>
  </transition>
  <transition id="transition8" in="00:01:12.900" out="00:01:14.367">
   <property name="a_track">4</property>
   <property name="b_track">5</property>
   <property name="start">0/0:100%x100%</property>
   <property name="factory">loader</property>
   <property name="aligned">0</property>
   <property name="progressive">1</property>
   <property name="mlt_service">composite</property>
   <property name="kdenlive_id">wipe</property>
   <property name="softness">0</property>
   <property name="luma"/>
   <property name="luma_invert">0</property>
   <property name="geometry">0%/0%:100%x100%:100;-1=0%/0%:100%x100%:0</property>
   <property name="fill">1</property>
  </transition>
  <transition id="transition9" in="00:01:34.700" out="00:01:35.567">
   <property name="a_track">4</property>
   <property name="b_track">5</property>
   <property name="start">0/0:100%x100%</property>
   <property name="factory">loader</property>
   <property name="aligned">0</property>
   <property name="progressive">1</property>
   <property name="mlt_service">composite</property>
   <property name="kdenlive_id">wipe</property>
   <property name="softness">0</property>
   <property name="luma"/>
   <property name="luma_invert">0</property>
   <property name="geometry">0%/0%:100%x100%:100;-1=0%/0%:100%x100%:0</property>
   <property name="fill">1</property>
  </transition>
  <transition id="transition10" in="00:00:13.033" out="00:00:16.733">
   <property name="a_track">4</property>
   <property name="b_track">5</property>
   <property name="start">0/0:100%x100%</property>
   <property name="factory">loader</property>
   <property name="aligned">0</property>
   <property name="progressive">1</property>
   <property name="mlt_service">composite</property>
   <property name="kdenlive_id">wipe</property>
   <property name="softness">0</property>
   <property name="luma"/>
   <property name="luma_invert">0</property>
   <property name="geometry">0%/0%:100%x100%:100;-1=0%/0%:100%x100%:0</property>
   <property name="fill">1</property>
  </transition>
  <transition id="transition11">
   <property name="a_track">0</property>
   <property name="b_track">1</property>
   <property name="mlt_service">mix</property>
   <property name="kdenlive_id">mix</property>
   <property name="internal_added">237</property>
   <property name="always_active">1</property>
   <property name="accepts_blanks">1</property>
   <property name="sum">1</property>
  </transition>
  <transition id="transition12">
   <property name="a_track">0</property>
   <property name="b_track">2</property>
   <property name="mlt_service">mix</property>
   <property name="kdenlive_id">mix</property>
   <property name="internal_added">237</property>
   <property name="always_active">1</property>
   <property name="accepts_blanks">1</property>
   <property name="sum">1</property>
  </transition>
  <transition id="transition13">
   <property name="a_track">0</property>
   <property name="b_track">3</property>
   <property name="mlt_service">mix</property>
   <property name="kdenlive_id">mix</property>
   <property name="internal_added">237</property>
   <property name="always_active">1</property>
   <property name="accepts_blanks">1</property>
   <property name="sum">1</property>
  </transition>
  <transition id="transition14">
   <property name="a_track">0</property>
   <property name="b_track">4</property>
   <property name="compositing">0</property>
   <property name="distort">0</property>
   <property name="rotate_center">0</property>
   <property name="mlt_service">qtblend</property>
   <property name="kdenlive_id">qtblend</property>
   <property name="internal_added">237</property>
   <property name="always_active">1</property>
  </transition>
  <transition id="transition15">
   <property name="a_track">0</property>
   <property name="b_track">5</property>
   <property name="compositing">0</property>
   <property name="distort">0</property>
   <property name="rotate_center">0</property>
   <property name="mlt_service">qtblend</property>
   <property name="kdenlive_id">qtblend</property>
   <property name="internal_added">237</property>
   <property name="always_active">1</property>
  </transition>
  <transition id="transition16">
   <property name="a_track">0</property>
   <property name="b_track">6</property>
   <property name="compositing">0</property>
   <property name="distort">0</property>
   <property name="rotate_center">0</property>
   <property name="mlt_service">qtblend</property>
   <property name="kdenlive_id">qtblend</property>
   <property name="internal_added">237</property>
   <property name="always_active">1</property>
  </transition>
  <filter id="filter77">
   <property name="window">75</property>
   <property name="max_gain">20dB</property>
   <property name="mlt_service">volume</property>
   <property name="internal_added">237</property>
   <property name="disable">1</property>
  </filter>
  <filter id="filter78">
   <property name="channel">-1</property>
   <property name="mlt_service">panner</property>
   <property name="internal_added">237</property>
   <property name="start">0.5</property>
   <property name="disable">1</property>
  </filter>
  <filter id="filter79">
   <property name="mlt_service">avfilter.subtitles</property>
   <property name="internal_added">237</property>
   <property name="av.filename">/tmp/1628200406675.srt</property>
  </filter>
  <filter id="filter80">
   <property name="iec_scale">0</property>
   <property name="mlt_service">audiolevel</property>
   <property name="disable">1</property>
  </filter>
 </tractor>
</mlt>
